M48
; DRILL file {KiCad 9.0.2} date 2025-06-09T08:41:51+0530
; FORMAT={-:-/ absolute / metric / decimal}
; #@! TF.CreationDate,2025-06-09T08:41:51+05:30
; #@! TF.GenerationSoftware,Kicad,Pcbnew,9.0.2
; #@! TF.FileFunction,NonPlated,1,2,NPTH
FMAT,2
METRIC
; #@! TA.AperFunction,NonPlated,NPTH,ComponentDrill
T1C1.700
; #@! TA.AperFunction,NonPlated,NPTH,ComponentDrill
T2C4.000
%
G90
G05
T1
X97.314Y-107.156
X97.314Y-126.206
X107.474Y-107.156
X107.474Y-126.206
X116.364Y-107.156
X116.364Y-126.206
X126.524Y-107.156
X126.524Y-126.206
X135.414Y-107.156
X135.414Y-126.206
X145.574Y-107.156
X145.574Y-126.206
X154.464Y-107.156
X154.464Y-126.206
X164.624Y-107.156
X164.624Y-126.206
T2
X102.394Y-107.156
X102.394Y-126.206
X121.444Y-107.156
X121.444Y-126.206
X140.494Y-107.156
X140.494Y-126.206
X159.544Y-107.156
X159.544Y-126.206
M30
