G04 #@! TF.GenerationSoftware,KiCad,Pcbnew,9.0.2*
G04 #@! TF.CreationDate,2025-06-09T08:41:51+05:30*
G04 #@! TF.ProjectId,DevBuddy,44657642-7564-4647-992e-6b696361645f,rev?*
G04 #@! TF.SameCoordinates,Original*
G04 #@! TF.FileFunction,Soldermask,Bot*
G04 #@! TF.FilePolarity,Negative*
%FSLAX46Y46*%
G04 Gerber Fmt 4.6, Leading zero omitted, Abs format (unit mm)*
G04 Created by KiCad (PCBNEW 9.0.2) date 2025-06-09 08:41:51*
%MOMM*%
%LPD*%
G01*
G04 APERTURE LIST*
G04 Aperture macros list*
%AMRoundRect*
0 Rectangle with rounded corners*
0 $1 Rounding radius*
0 $2 $3 $4 $5 $6 $7 $8 $9 X,Y pos of 4 corners*
0 Add a 4 corners polygon primitive as box body*
4,1,4,$2,$3,$4,$5,$6,$7,$8,$9,$2,$3,0*
0 Add four circle primitives for the rounded corners*
1,1,$1+$1,$2,$3*
1,1,$1+$1,$4,$5*
1,1,$1+$1,$6,$7*
1,1,$1+$1,$8,$9*
0 Add four rect primitives between the rounded corners*
20,1,$1+$1,$2,$3,$4,$5,0*
20,1,$1+$1,$4,$5,$6,$7,0*
20,1,$1+$1,$6,$7,$8,$9,0*
20,1,$1+$1,$8,$9,$2,$3,0*%
G04 Aperture macros list end*
%ADD10RoundRect,0.152400X-1.063600X-0.609600X1.063600X-0.609600X1.063600X0.609600X-1.063600X0.609600X0*%
%ADD11C,1.524000*%
%ADD12RoundRect,0.152400X1.063600X0.609600X-1.063600X0.609600X-1.063600X-0.609600X1.063600X-0.609600X0*%
%ADD13R,1.700000X1.700000*%
%ADD14O,1.700000X1.700000*%
%ADD15C,2.000000*%
%ADD16R,3.200000X2.000000*%
%ADD17R,2.000000X2.000000*%
%ADD18C,2.200000*%
%ADD19C,1.700000*%
%ADD20C,4.000000*%
%ADD21C,1.600000*%
%ADD22RoundRect,0.250000X0.550000X-0.550000X0.550000X0.550000X-0.550000X0.550000X-0.550000X-0.550000X0*%
G04 APERTURE END LIST*
D10*
G04 #@! TO.C,U1*
X129898750Y-80486250D03*
D11*
X129063750Y-80486250D03*
D10*
X129898750Y-83026250D03*
D11*
X129063750Y-83026250D03*
D10*
X129898750Y-85566250D03*
D11*
X129063750Y-85566250D03*
D10*
X129898750Y-88106250D03*
D11*
X129063750Y-88106250D03*
D10*
X129898750Y-90646250D03*
D11*
X129063750Y-90646250D03*
D10*
X129898750Y-93186250D03*
D11*
X129063750Y-93186250D03*
D10*
X129898750Y-95726250D03*
D11*
X129063750Y-95726250D03*
X113823750Y-95726250D03*
D12*
X112988750Y-95726250D03*
D11*
X113823750Y-93186250D03*
D12*
X112988750Y-93186250D03*
D11*
X113823750Y-90646250D03*
D12*
X112988750Y-90646250D03*
D11*
X113823750Y-88106250D03*
D12*
X112988750Y-88106250D03*
D11*
X113823750Y-85566250D03*
D12*
X112988750Y-85566250D03*
D11*
X113823750Y-83026250D03*
D12*
X112988750Y-83026250D03*
D11*
X113823750Y-80486250D03*
D12*
X112988750Y-80486250D03*
G04 #@! TD*
D13*
G04 #@! TO.C,J1*
X167633750Y-84411250D03*
D14*
X167633750Y-86951250D03*
X167633750Y-89491250D03*
X167633750Y-92031250D03*
G04 #@! TD*
D15*
G04 #@! TO.C,SW15*
X95143750Y-85606250D03*
X95143750Y-90606250D03*
D16*
X102143750Y-82506250D03*
X102143750Y-93706250D03*
D15*
X109643750Y-85606250D03*
X109643750Y-88106250D03*
D17*
X109643750Y-90606250D03*
G04 #@! TD*
D18*
G04 #@! TO.C,SW7*
X136683750Y-123666250D03*
X143033750Y-121126250D03*
D19*
X145573750Y-126206250D03*
D20*
X140493750Y-126206250D03*
D19*
X135413750Y-126206250D03*
G04 #@! TD*
D21*
G04 #@! TO.C,D5*
X92868750Y-123348750D03*
D22*
X92868750Y-130968750D03*
G04 #@! TD*
D21*
G04 #@! TO.C,D6*
X111918750Y-123348750D03*
D22*
X111918750Y-130968750D03*
G04 #@! TD*
D21*
G04 #@! TO.C,D4*
X150018750Y-104298750D03*
D22*
X150018750Y-111918750D03*
G04 #@! TD*
D21*
G04 #@! TO.C,D8*
X150018750Y-123348750D03*
D22*
X150018750Y-130968750D03*
G04 #@! TD*
D21*
G04 #@! TO.C,D7*
X130968750Y-123348750D03*
D22*
X130968750Y-130968750D03*
G04 #@! TD*
D18*
G04 #@! TO.C,SW1*
X98583750Y-104616250D03*
X104933750Y-102076250D03*
D19*
X107473750Y-107156250D03*
D20*
X102393750Y-107156250D03*
D19*
X97313750Y-107156250D03*
G04 #@! TD*
G04 #@! TO.C,SW8*
X154463750Y-126206250D03*
D20*
X159543750Y-126206250D03*
D19*
X164623750Y-126206250D03*
D18*
X162083750Y-121126250D03*
X155733750Y-123666250D03*
G04 #@! TD*
D19*
G04 #@! TO.C,SW6*
X116363750Y-126206250D03*
D20*
X121443750Y-126206250D03*
D19*
X126523750Y-126206250D03*
D18*
X123983750Y-121126250D03*
X117633750Y-123666250D03*
G04 #@! TD*
D19*
G04 #@! TO.C,SW5*
X97313750Y-126206250D03*
D20*
X102393750Y-126206250D03*
D19*
X107473750Y-126206250D03*
D18*
X104933750Y-121126250D03*
X98583750Y-123666250D03*
G04 #@! TD*
D19*
G04 #@! TO.C,SW4*
X154463750Y-107156250D03*
D20*
X159543750Y-107156250D03*
D19*
X164623750Y-107156250D03*
D18*
X162083750Y-102076250D03*
X155733750Y-104616250D03*
G04 #@! TD*
D19*
G04 #@! TO.C,SW3*
X135413750Y-107156250D03*
D20*
X140493750Y-107156250D03*
D19*
X145573750Y-107156250D03*
D18*
X143033750Y-102076250D03*
X136683750Y-104616250D03*
G04 #@! TD*
D19*
G04 #@! TO.C,SW2*
X116363750Y-107156250D03*
D20*
X121443750Y-107156250D03*
D19*
X126523750Y-107156250D03*
D18*
X123983750Y-102076250D03*
X117633750Y-104616250D03*
G04 #@! TD*
D22*
G04 #@! TO.C,D3*
X130968750Y-111918750D03*
D21*
X130968750Y-104298750D03*
G04 #@! TD*
D22*
G04 #@! TO.C,D2*
X111918750Y-111918750D03*
D21*
X111918750Y-104298750D03*
G04 #@! TD*
D22*
G04 #@! TO.C,D1*
X92868750Y-111918750D03*
D21*
X92868750Y-104298750D03*
G04 #@! TD*
M02*
