G04 #@! TF.GenerationSoftware,KiCad,Pcbnew,9.0.2*
G04 #@! TF.CreationDate,2025-06-09T08:41:51+05:30*
G04 #@! TF.ProjectId,DevBuddy,44657642-7564-4647-992e-6b696361645f,rev?*
G04 #@! TF.SameCoordinates,Original*
G04 #@! TF.FileFunction,Copper,L2,Bot*
G04 #@! TF.FilePolarity,Positive*
%FSLAX46Y46*%
G04 Gerber Fmt 4.6, Leading zero omitted, Abs format (unit mm)*
G04 Created by KiCad (PCBNEW 9.0.2) date 2025-06-09 08:41:51*
%MOMM*%
%LPD*%
G01*
G04 APERTURE LIST*
G04 Aperture macros list*
%AMRoundRect*
0 Rectangle with rounded corners*
0 $1 Rounding radius*
0 $2 $3 $4 $5 $6 $7 $8 $9 X,Y pos of 4 corners*
0 Add a 4 corners polygon primitive as box body*
4,1,4,$2,$3,$4,$5,$6,$7,$8,$9,$2,$3,0*
0 Add four circle primitives for the rounded corners*
1,1,$1+$1,$2,$3*
1,1,$1+$1,$4,$5*
1,1,$1+$1,$6,$7*
1,1,$1+$1,$8,$9*
0 Add four rect primitives between the rounded corners*
20,1,$1+$1,$2,$3,$4,$5,0*
20,1,$1+$1,$4,$5,$6,$7,0*
20,1,$1+$1,$6,$7,$8,$9,0*
20,1,$1+$1,$8,$9,$2,$3,0*%
G04 Aperture macros list end*
G04 #@! TA.AperFunction,SMDPad,CuDef*
%ADD10RoundRect,0.152400X-1.063600X-0.609600X1.063600X-0.609600X1.063600X0.609600X-1.063600X0.609600X0*%
G04 #@! TD*
G04 #@! TA.AperFunction,ComponentPad*
%ADD11C,1.524000*%
G04 #@! TD*
G04 #@! TA.AperFunction,SMDPad,CuDef*
%ADD12RoundRect,0.152400X1.063600X0.609600X-1.063600X0.609600X-1.063600X-0.609600X1.063600X-0.609600X0*%
G04 #@! TD*
G04 #@! TA.AperFunction,ComponentPad*
%ADD13R,1.700000X1.700000*%
G04 #@! TD*
G04 #@! TA.AperFunction,ComponentPad*
%ADD14O,1.700000X1.700000*%
G04 #@! TD*
G04 #@! TA.AperFunction,ComponentPad*
%ADD15C,2.000000*%
G04 #@! TD*
G04 #@! TA.AperFunction,ComponentPad*
%ADD16R,3.200000X2.000000*%
G04 #@! TD*
G04 #@! TA.AperFunction,ComponentPad*
%ADD17R,2.000000X2.000000*%
G04 #@! TD*
G04 #@! TA.AperFunction,ComponentPad*
%ADD18C,2.200000*%
G04 #@! TD*
G04 #@! TA.AperFunction,ComponentPad*
%ADD19C,1.600000*%
G04 #@! TD*
G04 #@! TA.AperFunction,ComponentPad*
%ADD20RoundRect,0.250000X0.550000X-0.550000X0.550000X0.550000X-0.550000X0.550000X-0.550000X-0.550000X0*%
G04 #@! TD*
G04 #@! TA.AperFunction,ViaPad*
%ADD21C,0.600000*%
G04 #@! TD*
G04 #@! TA.AperFunction,Conductor*
%ADD22C,0.200000*%
G04 #@! TD*
G04 APERTURE END LIST*
D10*
G04 #@! TO.P,U1,1,GPIO26/ADC0/A0*
G04 #@! TO.N,Column 0*
X129898750Y-80486250D03*
D11*
X129063750Y-80486250D03*
D10*
G04 #@! TO.P,U1,2,GPIO27/ADC1/A1*
G04 #@! TO.N,Column 1*
X129898750Y-83026250D03*
D11*
X129063750Y-83026250D03*
D10*
G04 #@! TO.P,U1,3,GPIO28/ADC2/A2*
G04 #@! TO.N,Column 2*
X129898750Y-85566250D03*
D11*
X129063750Y-85566250D03*
D10*
G04 #@! TO.P,U1,4,GPIO29/ADC3/A3*
G04 #@! TO.N,Column 3*
X129898750Y-88106250D03*
D11*
X129063750Y-88106250D03*
D10*
G04 #@! TO.P,U1,5,GPIO6/SDA*
G04 #@! TO.N,Net-(J1-SDA)*
X129898750Y-90646250D03*
D11*
X129063750Y-90646250D03*
D10*
G04 #@! TO.P,U1,6,GPIO7/SCL*
G04 #@! TO.N,Net-(J1-SCL)*
X129898750Y-93186250D03*
D11*
X129063750Y-93186250D03*
D10*
G04 #@! TO.P,U1,7,GPIO0/TX*
G04 #@! TO.N,Row 0*
X129898750Y-95726250D03*
D11*
X129063750Y-95726250D03*
G04 #@! TO.P,U1,8,GPIO1/RX*
G04 #@! TO.N,Row 1*
X113823750Y-95726250D03*
D12*
X112988750Y-95726250D03*
D11*
G04 #@! TO.P,U1,9,GPIO2/SCK*
G04 #@! TO.N,Net-(U1-GPIO2{slash}SCK)*
X113823750Y-93186250D03*
D12*
X112988750Y-93186250D03*
D11*
G04 #@! TO.P,U1,10,GPIO4/MISO*
G04 #@! TO.N,Net-(U1-GPIO4{slash}MISO)*
X113823750Y-90646250D03*
D12*
X112988750Y-90646250D03*
D11*
G04 #@! TO.P,U1,11,GPIO3/MOSI*
G04 #@! TO.N,Net-(U1-GPIO3{slash}MOSI)*
X113823750Y-88106250D03*
D12*
X112988750Y-88106250D03*
D11*
G04 #@! TO.P,U1,12,3V3*
G04 #@! TO.N,Net-(J1-VCC)*
X113823750Y-85566250D03*
D12*
X112988750Y-85566250D03*
D11*
G04 #@! TO.P,U1,13,GND*
G04 #@! TO.N,GND*
X113823750Y-83026250D03*
D12*
X112988750Y-83026250D03*
D11*
G04 #@! TO.P,U1,14,VBUS*
G04 #@! TO.N,+5V*
X113823750Y-80486250D03*
D12*
X112988750Y-80486250D03*
G04 #@! TD*
D13*
G04 #@! TO.P,J1,1,GND*
G04 #@! TO.N,GND*
X167633750Y-84411250D03*
D14*
G04 #@! TO.P,J1,2,VCC*
G04 #@! TO.N,Net-(J1-VCC)*
X167633750Y-86951250D03*
G04 #@! TO.P,J1,3,SCL*
G04 #@! TO.N,Net-(J1-SCL)*
X167633750Y-89491250D03*
G04 #@! TO.P,J1,4,SDA*
G04 #@! TO.N,Net-(J1-SDA)*
X167633750Y-92031250D03*
G04 #@! TD*
D15*
G04 #@! TO.P,SW15,S1,S1*
G04 #@! TO.N,Net-(J1-VCC)*
X95143750Y-85606250D03*
G04 #@! TO.P,SW15,S2,S2*
G04 #@! TO.N,GND*
X95143750Y-90606250D03*
D16*
G04 #@! TO.P,SW15,MP*
G04 #@! TO.N,N/C*
X102143750Y-82506250D03*
X102143750Y-93706250D03*
D15*
G04 #@! TO.P,SW15,B,B*
G04 #@! TO.N,Net-(U1-GPIO3{slash}MOSI)*
X109643750Y-85606250D03*
G04 #@! TO.P,SW15,C,C*
G04 #@! TO.N,Net-(U1-GPIO4{slash}MISO)*
X109643750Y-88106250D03*
D17*
G04 #@! TO.P,SW15,A,A*
G04 #@! TO.N,Net-(U1-GPIO2{slash}SCK)*
X109643750Y-90606250D03*
G04 #@! TD*
D18*
G04 #@! TO.P,SW7,2,2*
G04 #@! TO.N,Net-(D7-A)*
X136683750Y-123666250D03*
G04 #@! TO.P,SW7,1,1*
G04 #@! TO.N,Column 2*
X143033750Y-121126250D03*
G04 #@! TD*
D19*
G04 #@! TO.P,D5,2,A*
G04 #@! TO.N,Net-(D5-A)*
X92868750Y-123348750D03*
D20*
G04 #@! TO.P,D5,1,K*
G04 #@! TO.N,Row 1*
X92868750Y-130968750D03*
G04 #@! TD*
D19*
G04 #@! TO.P,D6,2,A*
G04 #@! TO.N,Net-(D6-A)*
X111918750Y-123348750D03*
D20*
G04 #@! TO.P,D6,1,K*
G04 #@! TO.N,Row 1*
X111918750Y-130968750D03*
G04 #@! TD*
D19*
G04 #@! TO.P,D4,2,A*
G04 #@! TO.N,Net-(D4-A)*
X150018750Y-104298750D03*
D20*
G04 #@! TO.P,D4,1,K*
G04 #@! TO.N,Row 0*
X150018750Y-111918750D03*
G04 #@! TD*
D19*
G04 #@! TO.P,D8,2,A*
G04 #@! TO.N,Net-(D8-A)*
X150018750Y-123348750D03*
D20*
G04 #@! TO.P,D8,1,K*
G04 #@! TO.N,Row 1*
X150018750Y-130968750D03*
G04 #@! TD*
D19*
G04 #@! TO.P,D7,2,A*
G04 #@! TO.N,Net-(D7-A)*
X130968750Y-123348750D03*
D20*
G04 #@! TO.P,D7,1,K*
G04 #@! TO.N,Row 1*
X130968750Y-130968750D03*
G04 #@! TD*
D18*
G04 #@! TO.P,SW1,2,2*
G04 #@! TO.N,Net-(D1-A)*
X98583750Y-104616250D03*
G04 #@! TO.P,SW1,1,1*
G04 #@! TO.N,Column 0*
X104933750Y-102076250D03*
G04 #@! TD*
G04 #@! TO.P,SW8,1,1*
G04 #@! TO.N,Column 3*
X162083750Y-121126250D03*
G04 #@! TO.P,SW8,2,2*
G04 #@! TO.N,Net-(D8-A)*
X155733750Y-123666250D03*
G04 #@! TD*
G04 #@! TO.P,SW6,1,1*
G04 #@! TO.N,Column 1*
X123983750Y-121126250D03*
G04 #@! TO.P,SW6,2,2*
G04 #@! TO.N,Net-(D6-A)*
X117633750Y-123666250D03*
G04 #@! TD*
G04 #@! TO.P,SW5,1,1*
G04 #@! TO.N,Column 0*
X104933750Y-121126250D03*
G04 #@! TO.P,SW5,2,2*
G04 #@! TO.N,Net-(D5-A)*
X98583750Y-123666250D03*
G04 #@! TD*
G04 #@! TO.P,SW4,1,1*
G04 #@! TO.N,Column 3*
X162083750Y-102076250D03*
G04 #@! TO.P,SW4,2,2*
G04 #@! TO.N,Net-(D4-A)*
X155733750Y-104616250D03*
G04 #@! TD*
G04 #@! TO.P,SW3,1,1*
G04 #@! TO.N,Column 2*
X143033750Y-102076250D03*
G04 #@! TO.P,SW3,2,2*
G04 #@! TO.N,Net-(D3-A)*
X136683750Y-104616250D03*
G04 #@! TD*
G04 #@! TO.P,SW2,1,1*
G04 #@! TO.N,Column 1*
X123983750Y-102076250D03*
G04 #@! TO.P,SW2,2,2*
G04 #@! TO.N,Net-(D2-A)*
X117633750Y-104616250D03*
G04 #@! TD*
D20*
G04 #@! TO.P,D3,1,K*
G04 #@! TO.N,Row 0*
X130968750Y-111918750D03*
D19*
G04 #@! TO.P,D3,2,A*
G04 #@! TO.N,Net-(D3-A)*
X130968750Y-104298750D03*
G04 #@! TD*
D20*
G04 #@! TO.P,D2,1,K*
G04 #@! TO.N,Row 0*
X111918750Y-111918750D03*
D19*
G04 #@! TO.P,D2,2,A*
G04 #@! TO.N,Net-(D2-A)*
X111918750Y-104298750D03*
G04 #@! TD*
D20*
G04 #@! TO.P,D1,1,K*
G04 #@! TO.N,Row 0*
X92868750Y-111918750D03*
D19*
G04 #@! TO.P,D1,2,A*
G04 #@! TO.N,Net-(D1-A)*
X92868750Y-104298750D03*
G04 #@! TD*
D21*
G04 #@! TO.N,Column 3*
X152400000Y-88106250D03*
X152400000Y-95250000D03*
G04 #@! TO.N,Net-(J1-SCL)*
X157162500Y-92868750D03*
G04 #@! TO.N,Net-(J1-VCC)*
X131614750Y-85725000D03*
G04 #@! TO.N,GND*
X126206250Y-83343750D03*
G04 #@! TD*
D22*
G04 #@! TO.N,Column 3*
X152400000Y-95250000D02*
X152400000Y-88106250D01*
G04 #@! TO.N,Column 2*
X143033750Y-102076250D02*
X143033750Y-96294057D01*
X143033750Y-96294057D02*
X131863693Y-85124000D01*
X131863693Y-85124000D02*
X129506000Y-85124000D01*
X129506000Y-85124000D02*
X129063750Y-85566250D01*
G04 #@! TO.N,Net-(J1-SCL)*
X157162500Y-92868750D02*
X164256250Y-92868750D01*
X164256250Y-92868750D02*
X167633750Y-89491250D01*
G04 #@! TO.N,Net-(J1-VCC)*
X115204250Y-86629250D02*
X114300000Y-85725000D01*
X131154376Y-86629250D02*
X115204250Y-86629250D01*
X131614750Y-85725000D02*
X131614750Y-86168876D01*
X131614750Y-86168876D02*
X131154376Y-86629250D01*
G04 #@! TO.N,GND*
X126206250Y-83343750D02*
X127273750Y-84411250D01*
X127273750Y-84411250D02*
X167633750Y-84411250D01*
G04 #@! TO.N,Column 3*
X162083750Y-102076250D02*
X162083750Y-121126250D01*
G04 #@! TO.N,Column 2*
X143033750Y-102076250D02*
X143033750Y-121126250D01*
G04 #@! TO.N,Column 1*
X123983750Y-102076250D02*
X123983750Y-121126250D01*
G04 #@! TO.N,Column 0*
X104933750Y-102076250D02*
X104933750Y-121126250D01*
G04 #@! TO.N,Row 0*
X129063750Y-110013750D02*
X129063750Y-95726250D01*
X130968750Y-111918750D02*
X129063750Y-110013750D01*
G04 #@! TO.N,Row 1*
X113823750Y-129063750D02*
X113823750Y-95726250D01*
X111918750Y-130968750D02*
X113823750Y-129063750D01*
G04 #@! TD*
M02*
