%TF.GenerationSoftware,KiCad,Pcbnew,9.0.2*%
%TF.CreationDate,2025-06-09T08:41:51+05:30*%
%TF.ProjectId,DevBuddy,44657642-7564-4647-992e-6b696361645f,rev?*%
%TF.SameCoordinates,Original*%
%TF.FileFunction,Drillmap*%
%TF.FilePolarity,Positive*%
%FSLAX45Y45*%
G04 Gerber Fmt 4.5, Leading zero omitted, Abs format (unit mm)*
G04 Created by KiCad (PCBNEW 9.0.2) date 2025-06-09 08:41:51*
%MOMM*%
%LPD*%
G01*
G04 APERTURE LIST*
%ADD10C,0.050000*%
%ADD11C,0.200000*%
%ADD12C,0.100000*%
%ADD13C,0.150000*%
G04 APERTURE END LIST*
D10*
X9048750Y-13811250D02*
X9048750Y-7858125D01*
X17145000Y-13811250D02*
X9048750Y-13811250D01*
X17145000Y-7858125D02*
X17145000Y-13811250D01*
X9048750Y-7858125D02*
X17145000Y-7858125D01*
D11*
D12*
X12605625Y-8319375D02*
X12635625Y-8349375D01*
X12635625Y-8319375D02*
X12605625Y-8349375D01*
X13146475Y-8557500D02*
X13176475Y-8587500D01*
X13176475Y-8557500D02*
X13146475Y-8587500D01*
X15225000Y-8795625D02*
X15255000Y-8825625D01*
X15255000Y-8795625D02*
X15225000Y-8825625D01*
X15225000Y-9510000D02*
X15255000Y-9540000D01*
X15255000Y-9510000D02*
X15225000Y-9540000D01*
X15701250Y-9271875D02*
X15731250Y-9301875D01*
X15731250Y-9271875D02*
X15701250Y-9301875D01*
X9326875Y-10429875D02*
G75*
G02*
X9246875Y-10429875I-40000J0D01*
G01*
X9246875Y-10429875D02*
G75*
G02*
X9326875Y-10429875I40000J0D01*
G01*
X9326875Y-11191875D02*
G75*
G02*
X9246875Y-11191875I-40000J0D01*
G01*
X9246875Y-11191875D02*
G75*
G02*
X9326875Y-11191875I40000J0D01*
G01*
X9326875Y-12334875D02*
G75*
G02*
X9246875Y-12334875I-40000J0D01*
G01*
X9246875Y-12334875D02*
G75*
G02*
X9326875Y-12334875I40000J0D01*
G01*
X9326875Y-13096875D02*
G75*
G02*
X9246875Y-13096875I-40000J0D01*
G01*
X9246875Y-13096875D02*
G75*
G02*
X9326875Y-13096875I40000J0D01*
G01*
X11231875Y-10429875D02*
G75*
G02*
X11151875Y-10429875I-40000J0D01*
G01*
X11151875Y-10429875D02*
G75*
G02*
X11231875Y-10429875I40000J0D01*
G01*
X11231875Y-11191875D02*
G75*
G02*
X11151875Y-11191875I-40000J0D01*
G01*
X11151875Y-11191875D02*
G75*
G02*
X11231875Y-11191875I40000J0D01*
G01*
X11231875Y-12334875D02*
G75*
G02*
X11151875Y-12334875I-40000J0D01*
G01*
X11151875Y-12334875D02*
G75*
G02*
X11231875Y-12334875I40000J0D01*
G01*
X11231875Y-13096875D02*
G75*
G02*
X11151875Y-13096875I-40000J0D01*
G01*
X11151875Y-13096875D02*
G75*
G02*
X11231875Y-13096875I40000J0D01*
G01*
X13136875Y-10429875D02*
G75*
G02*
X13056875Y-10429875I-40000J0D01*
G01*
X13056875Y-10429875D02*
G75*
G02*
X13136875Y-10429875I40000J0D01*
G01*
X13136875Y-11191875D02*
G75*
G02*
X13056875Y-11191875I-40000J0D01*
G01*
X13056875Y-11191875D02*
G75*
G02*
X13136875Y-11191875I40000J0D01*
G01*
X13136875Y-12334875D02*
G75*
G02*
X13056875Y-12334875I-40000J0D01*
G01*
X13056875Y-12334875D02*
G75*
G02*
X13136875Y-12334875I40000J0D01*
G01*
X13136875Y-13096875D02*
G75*
G02*
X13056875Y-13096875I-40000J0D01*
G01*
X13056875Y-13096875D02*
G75*
G02*
X13136875Y-13096875I40000J0D01*
G01*
X15041875Y-10429875D02*
G75*
G02*
X14961875Y-10429875I-40000J0D01*
G01*
X14961875Y-10429875D02*
G75*
G02*
X15041875Y-10429875I40000J0D01*
G01*
X15041875Y-11191875D02*
G75*
G02*
X14961875Y-11191875I-40000J0D01*
G01*
X14961875Y-11191875D02*
G75*
G02*
X15041875Y-11191875I40000J0D01*
G01*
X15041875Y-12334875D02*
G75*
G02*
X14961875Y-12334875I-40000J0D01*
G01*
X14961875Y-12334875D02*
G75*
G02*
X15041875Y-12334875I40000J0D01*
G01*
X15041875Y-13096875D02*
G75*
G02*
X14961875Y-13096875I-40000J0D01*
G01*
X14961875Y-13096875D02*
G75*
G02*
X15041875Y-13096875I40000J0D01*
G01*
X11382375Y-8004175D02*
X11382375Y-8093075D01*
X11337925Y-8048625D02*
X11426825Y-8048625D01*
X11382375Y-8258175D02*
X11382375Y-8347075D01*
X11337925Y-8302625D02*
X11426825Y-8302625D01*
X11382375Y-8512175D02*
X11382375Y-8601075D01*
X11337925Y-8556625D02*
X11426825Y-8556625D01*
X11382375Y-8766175D02*
X11382375Y-8855075D01*
X11337925Y-8810625D02*
X11426825Y-8810625D01*
X11382375Y-9020175D02*
X11382375Y-9109075D01*
X11337925Y-9064625D02*
X11426825Y-9064625D01*
X11382375Y-9274175D02*
X11382375Y-9363075D01*
X11337925Y-9318625D02*
X11426825Y-9318625D01*
X11382375Y-9528175D02*
X11382375Y-9617075D01*
X11337925Y-9572625D02*
X11426825Y-9572625D01*
X12906375Y-8004175D02*
X12906375Y-8093075D01*
X12861925Y-8048625D02*
X12950825Y-8048625D01*
X12906375Y-8258175D02*
X12906375Y-8347075D01*
X12861925Y-8302625D02*
X12950825Y-8302625D01*
X12906375Y-8512175D02*
X12906375Y-8601075D01*
X12861925Y-8556625D02*
X12950825Y-8556625D01*
X12906375Y-8766175D02*
X12906375Y-8855075D01*
X12861925Y-8810625D02*
X12950825Y-8810625D01*
X12906375Y-9020175D02*
X12906375Y-9109075D01*
X12861925Y-9064625D02*
X12950825Y-9064625D01*
X12906375Y-9274175D02*
X12906375Y-9363075D01*
X12861925Y-9318625D02*
X12950825Y-9318625D01*
X12906375Y-9528175D02*
X12906375Y-9617075D01*
X12861925Y-9572625D02*
X12950825Y-9572625D01*
X9549731Y-8595981D02*
X9549731Y-8525269D01*
X9479019Y-8525269D01*
X9479019Y-8595981D01*
X9549731Y-8595981D01*
X9549731Y-9095981D02*
X9549731Y-9025269D01*
X9479019Y-9025269D01*
X9479019Y-9095981D01*
X9549731Y-9095981D01*
X10999731Y-8595981D02*
X10999731Y-8525269D01*
X10929019Y-8525269D01*
X10929019Y-8595981D01*
X10999731Y-8595981D01*
X10999731Y-8845981D02*
X10999731Y-8775269D01*
X10929019Y-8775269D01*
X10929019Y-8845981D01*
X10999731Y-8845981D01*
X10999731Y-9095981D02*
X10999731Y-9025269D01*
X10929019Y-9025269D01*
X10929019Y-9095981D01*
X10999731Y-9095981D01*
X16798731Y-8476481D02*
X16798731Y-8405769D01*
X16728019Y-8405769D01*
X16728019Y-8476481D01*
X16798731Y-8476481D01*
X16798731Y-8730481D02*
X16798731Y-8659769D01*
X16728019Y-8659769D01*
X16728019Y-8730481D01*
X16798731Y-8730481D01*
X16798731Y-8984481D02*
X16798731Y-8913769D01*
X16728019Y-8913769D01*
X16728019Y-8984481D01*
X16798731Y-8984481D01*
X16798731Y-9238481D02*
X16798731Y-9167769D01*
X16728019Y-9167769D01*
X16728019Y-9238481D01*
X16798731Y-9238481D01*
D13*
X9858375Y-10536625D02*
X9933375Y-10461625D01*
X9858375Y-10386625D01*
X9783375Y-10461625D01*
X9858375Y-10536625D01*
X9858375Y-12441625D02*
X9933375Y-12366625D01*
X9858375Y-12291625D01*
X9783375Y-12366625D01*
X9858375Y-12441625D01*
X10214375Y-8325625D02*
X10289375Y-8250625D01*
X10214375Y-8175625D01*
X10139375Y-8250625D01*
X10214375Y-8325625D01*
D12*
X10279375Y-8175625D02*
X10149375Y-8175625D01*
X10149375Y-8325625D02*
G75*
G02*
X10149375Y-8175625I0J75000D01*
G01*
X10149375Y-8325625D02*
X10279375Y-8325625D01*
X10279375Y-8325625D02*
G75*
G03*
X10279375Y-8175625I0J75000D01*
G01*
D13*
X10214375Y-9445625D02*
X10289375Y-9370625D01*
X10214375Y-9295625D01*
X10139375Y-9370625D01*
X10214375Y-9445625D01*
D12*
X10279375Y-9295625D02*
X10149375Y-9295625D01*
X10149375Y-9445625D02*
G75*
G02*
X10149375Y-9295625I0J75000D01*
G01*
X10149375Y-9445625D02*
X10279375Y-9445625D01*
X10279375Y-9445625D02*
G75*
G03*
X10279375Y-9295625I0J75000D01*
G01*
D13*
X10493375Y-10282625D02*
X10568375Y-10207625D01*
X10493375Y-10132625D01*
X10418375Y-10207625D01*
X10493375Y-10282625D01*
X10493375Y-12187625D02*
X10568375Y-12112625D01*
X10493375Y-12037625D01*
X10418375Y-12112625D01*
X10493375Y-12187625D01*
X11763375Y-10536625D02*
X11838375Y-10461625D01*
X11763375Y-10386625D01*
X11688375Y-10461625D01*
X11763375Y-10536625D01*
X11763375Y-12441625D02*
X11838375Y-12366625D01*
X11763375Y-12291625D01*
X11688375Y-12366625D01*
X11763375Y-12441625D01*
X12398375Y-10282625D02*
X12473375Y-10207625D01*
X12398375Y-10132625D01*
X12323375Y-10207625D01*
X12398375Y-10282625D01*
X12398375Y-12187625D02*
X12473375Y-12112625D01*
X12398375Y-12037625D01*
X12323375Y-12112625D01*
X12398375Y-12187625D01*
X13668375Y-10536625D02*
X13743375Y-10461625D01*
X13668375Y-10386625D01*
X13593375Y-10461625D01*
X13668375Y-10536625D01*
X13668375Y-12441625D02*
X13743375Y-12366625D01*
X13668375Y-12291625D01*
X13593375Y-12366625D01*
X13668375Y-12441625D01*
X14303375Y-10282625D02*
X14378375Y-10207625D01*
X14303375Y-10132625D01*
X14228375Y-10207625D01*
X14303375Y-10282625D01*
X14303375Y-12187625D02*
X14378375Y-12112625D01*
X14303375Y-12037625D01*
X14228375Y-12112625D01*
X14303375Y-12187625D01*
X15573375Y-10536625D02*
X15648375Y-10461625D01*
X15573375Y-10386625D01*
X15498375Y-10461625D01*
X15573375Y-10536625D01*
X15573375Y-12441625D02*
X15648375Y-12366625D01*
X15573375Y-12291625D01*
X15498375Y-12366625D01*
X15573375Y-12441625D01*
X16208375Y-10282625D02*
X16283375Y-10207625D01*
X16208375Y-10132625D01*
X16133375Y-10207625D01*
X16208375Y-10282625D01*
X16208375Y-12187625D02*
X16283375Y-12112625D01*
X16208375Y-12037625D01*
X16133375Y-12112625D01*
X16208375Y-12187625D01*
D11*
X9307027Y-14125234D02*
X9307027Y-13925234D01*
X9307027Y-13925234D02*
X9354646Y-13925234D01*
X9354646Y-13925234D02*
X9383217Y-13934758D01*
X9383217Y-13934758D02*
X9402265Y-13953805D01*
X9402265Y-13953805D02*
X9411789Y-13972853D01*
X9411789Y-13972853D02*
X9421313Y-14010948D01*
X9421313Y-14010948D02*
X9421313Y-14039519D01*
X9421313Y-14039519D02*
X9411789Y-14077615D01*
X9411789Y-14077615D02*
X9402265Y-14096662D01*
X9402265Y-14096662D02*
X9383217Y-14115710D01*
X9383217Y-14115710D02*
X9354646Y-14125234D01*
X9354646Y-14125234D02*
X9307027Y-14125234D01*
X9507027Y-14125234D02*
X9507027Y-13991900D01*
X9507027Y-14029996D02*
X9516551Y-14010948D01*
X9516551Y-14010948D02*
X9526074Y-14001424D01*
X9526074Y-14001424D02*
X9545122Y-13991900D01*
X9545122Y-13991900D02*
X9564170Y-13991900D01*
X9630836Y-14125234D02*
X9630836Y-13991900D01*
X9630836Y-13925234D02*
X9621313Y-13934758D01*
X9621313Y-13934758D02*
X9630836Y-13944281D01*
X9630836Y-13944281D02*
X9640360Y-13934758D01*
X9640360Y-13934758D02*
X9630836Y-13925234D01*
X9630836Y-13925234D02*
X9630836Y-13944281D01*
X9754646Y-14125234D02*
X9735598Y-14115710D01*
X9735598Y-14115710D02*
X9726074Y-14096662D01*
X9726074Y-14096662D02*
X9726074Y-13925234D01*
X9859408Y-14125234D02*
X9840360Y-14115710D01*
X9840360Y-14115710D02*
X9830836Y-14096662D01*
X9830836Y-14096662D02*
X9830836Y-13925234D01*
X10087979Y-14125234D02*
X10087979Y-13925234D01*
X10087979Y-13925234D02*
X10154646Y-14068091D01*
X10154646Y-14068091D02*
X10221313Y-13925234D01*
X10221313Y-13925234D02*
X10221313Y-14125234D01*
X10402265Y-14125234D02*
X10402265Y-14020472D01*
X10402265Y-14020472D02*
X10392741Y-14001424D01*
X10392741Y-14001424D02*
X10373694Y-13991900D01*
X10373694Y-13991900D02*
X10335598Y-13991900D01*
X10335598Y-13991900D02*
X10316551Y-14001424D01*
X10402265Y-14115710D02*
X10383217Y-14125234D01*
X10383217Y-14125234D02*
X10335598Y-14125234D01*
X10335598Y-14125234D02*
X10316551Y-14115710D01*
X10316551Y-14115710D02*
X10307027Y-14096662D01*
X10307027Y-14096662D02*
X10307027Y-14077615D01*
X10307027Y-14077615D02*
X10316551Y-14058567D01*
X10316551Y-14058567D02*
X10335598Y-14049043D01*
X10335598Y-14049043D02*
X10383217Y-14049043D01*
X10383217Y-14049043D02*
X10402265Y-14039519D01*
X10497503Y-13991900D02*
X10497503Y-14191900D01*
X10497503Y-14001424D02*
X10516551Y-13991900D01*
X10516551Y-13991900D02*
X10554646Y-13991900D01*
X10554646Y-13991900D02*
X10573694Y-14001424D01*
X10573694Y-14001424D02*
X10583217Y-14010948D01*
X10583217Y-14010948D02*
X10592741Y-14029996D01*
X10592741Y-14029996D02*
X10592741Y-14087138D01*
X10592741Y-14087138D02*
X10583217Y-14106186D01*
X10583217Y-14106186D02*
X10573694Y-14115710D01*
X10573694Y-14115710D02*
X10554646Y-14125234D01*
X10554646Y-14125234D02*
X10516551Y-14125234D01*
X10516551Y-14125234D02*
X10497503Y-14115710D01*
X10678455Y-14106186D02*
X10687979Y-14115710D01*
X10687979Y-14115710D02*
X10678455Y-14125234D01*
X10678455Y-14125234D02*
X10668932Y-14115710D01*
X10668932Y-14115710D02*
X10678455Y-14106186D01*
X10678455Y-14106186D02*
X10678455Y-14125234D01*
X10678455Y-14001424D02*
X10687979Y-14010948D01*
X10687979Y-14010948D02*
X10678455Y-14020472D01*
X10678455Y-14020472D02*
X10668932Y-14010948D01*
X10668932Y-14010948D02*
X10678455Y-14001424D01*
X10678455Y-14001424D02*
X10678455Y-14020472D01*
D12*
X9016250Y-14438750D02*
X9046250Y-14468750D01*
X9046250Y-14438750D02*
X9016250Y-14468750D01*
D11*
X9345122Y-14345234D02*
X9364170Y-14345234D01*
X9364170Y-14345234D02*
X9383217Y-14354758D01*
X9383217Y-14354758D02*
X9392741Y-14364281D01*
X9392741Y-14364281D02*
X9402265Y-14383329D01*
X9402265Y-14383329D02*
X9411789Y-14421424D01*
X9411789Y-14421424D02*
X9411789Y-14469043D01*
X9411789Y-14469043D02*
X9402265Y-14507138D01*
X9402265Y-14507138D02*
X9392741Y-14526186D01*
X9392741Y-14526186D02*
X9383217Y-14535710D01*
X9383217Y-14535710D02*
X9364170Y-14545234D01*
X9364170Y-14545234D02*
X9345122Y-14545234D01*
X9345122Y-14545234D02*
X9326074Y-14535710D01*
X9326074Y-14535710D02*
X9316551Y-14526186D01*
X9316551Y-14526186D02*
X9307027Y-14507138D01*
X9307027Y-14507138D02*
X9297503Y-14469043D01*
X9297503Y-14469043D02*
X9297503Y-14421424D01*
X9297503Y-14421424D02*
X9307027Y-14383329D01*
X9307027Y-14383329D02*
X9316551Y-14364281D01*
X9316551Y-14364281D02*
X9326074Y-14354758D01*
X9326074Y-14354758D02*
X9345122Y-14345234D01*
X9497503Y-14526186D02*
X9507027Y-14535710D01*
X9507027Y-14535710D02*
X9497503Y-14545234D01*
X9497503Y-14545234D02*
X9487979Y-14535710D01*
X9487979Y-14535710D02*
X9497503Y-14526186D01*
X9497503Y-14526186D02*
X9497503Y-14545234D01*
X9573694Y-14345234D02*
X9697503Y-14345234D01*
X9697503Y-14345234D02*
X9630836Y-14421424D01*
X9630836Y-14421424D02*
X9659408Y-14421424D01*
X9659408Y-14421424D02*
X9678455Y-14430948D01*
X9678455Y-14430948D02*
X9687979Y-14440472D01*
X9687979Y-14440472D02*
X9697503Y-14459519D01*
X9697503Y-14459519D02*
X9697503Y-14507138D01*
X9697503Y-14507138D02*
X9687979Y-14526186D01*
X9687979Y-14526186D02*
X9678455Y-14535710D01*
X9678455Y-14535710D02*
X9659408Y-14545234D01*
X9659408Y-14545234D02*
X9602265Y-14545234D01*
X9602265Y-14545234D02*
X9583217Y-14535710D01*
X9583217Y-14535710D02*
X9573694Y-14526186D01*
X9821313Y-14345234D02*
X9840360Y-14345234D01*
X9840360Y-14345234D02*
X9859408Y-14354758D01*
X9859408Y-14354758D02*
X9868932Y-14364281D01*
X9868932Y-14364281D02*
X9878455Y-14383329D01*
X9878455Y-14383329D02*
X9887979Y-14421424D01*
X9887979Y-14421424D02*
X9887979Y-14469043D01*
X9887979Y-14469043D02*
X9878455Y-14507138D01*
X9878455Y-14507138D02*
X9868932Y-14526186D01*
X9868932Y-14526186D02*
X9859408Y-14535710D01*
X9859408Y-14535710D02*
X9840360Y-14545234D01*
X9840360Y-14545234D02*
X9821313Y-14545234D01*
X9821313Y-14545234D02*
X9802265Y-14535710D01*
X9802265Y-14535710D02*
X9792741Y-14526186D01*
X9792741Y-14526186D02*
X9783217Y-14507138D01*
X9783217Y-14507138D02*
X9773694Y-14469043D01*
X9773694Y-14469043D02*
X9773694Y-14421424D01*
X9773694Y-14421424D02*
X9783217Y-14383329D01*
X9783217Y-14383329D02*
X9792741Y-14364281D01*
X9792741Y-14364281D02*
X9802265Y-14354758D01*
X9802265Y-14354758D02*
X9821313Y-14345234D01*
X10011789Y-14345234D02*
X10030836Y-14345234D01*
X10030836Y-14345234D02*
X10049884Y-14354758D01*
X10049884Y-14354758D02*
X10059408Y-14364281D01*
X10059408Y-14364281D02*
X10068932Y-14383329D01*
X10068932Y-14383329D02*
X10078455Y-14421424D01*
X10078455Y-14421424D02*
X10078455Y-14469043D01*
X10078455Y-14469043D02*
X10068932Y-14507138D01*
X10068932Y-14507138D02*
X10059408Y-14526186D01*
X10059408Y-14526186D02*
X10049884Y-14535710D01*
X10049884Y-14535710D02*
X10030836Y-14545234D01*
X10030836Y-14545234D02*
X10011789Y-14545234D01*
X10011789Y-14545234D02*
X9992741Y-14535710D01*
X9992741Y-14535710D02*
X9983217Y-14526186D01*
X9983217Y-14526186D02*
X9973694Y-14507138D01*
X9973694Y-14507138D02*
X9964170Y-14469043D01*
X9964170Y-14469043D02*
X9964170Y-14421424D01*
X9964170Y-14421424D02*
X9973694Y-14383329D01*
X9973694Y-14383329D02*
X9983217Y-14364281D01*
X9983217Y-14364281D02*
X9992741Y-14354758D01*
X9992741Y-14354758D02*
X10011789Y-14345234D01*
X10164170Y-14545234D02*
X10164170Y-14411900D01*
X10164170Y-14430948D02*
X10173694Y-14421424D01*
X10173694Y-14421424D02*
X10192741Y-14411900D01*
X10192741Y-14411900D02*
X10221313Y-14411900D01*
X10221313Y-14411900D02*
X10240360Y-14421424D01*
X10240360Y-14421424D02*
X10249884Y-14440472D01*
X10249884Y-14440472D02*
X10249884Y-14545234D01*
X10249884Y-14440472D02*
X10259408Y-14421424D01*
X10259408Y-14421424D02*
X10278455Y-14411900D01*
X10278455Y-14411900D02*
X10307027Y-14411900D01*
X10307027Y-14411900D02*
X10326075Y-14421424D01*
X10326075Y-14421424D02*
X10335598Y-14440472D01*
X10335598Y-14440472D02*
X10335598Y-14545234D01*
X10430836Y-14545234D02*
X10430836Y-14411900D01*
X10430836Y-14430948D02*
X10440360Y-14421424D01*
X10440360Y-14421424D02*
X10459408Y-14411900D01*
X10459408Y-14411900D02*
X10487979Y-14411900D01*
X10487979Y-14411900D02*
X10507027Y-14421424D01*
X10507027Y-14421424D02*
X10516551Y-14440472D01*
X10516551Y-14440472D02*
X10516551Y-14545234D01*
X10516551Y-14440472D02*
X10526075Y-14421424D01*
X10526075Y-14421424D02*
X10545122Y-14411900D01*
X10545122Y-14411900D02*
X10573694Y-14411900D01*
X10573694Y-14411900D02*
X10592741Y-14421424D01*
X10592741Y-14421424D02*
X10602265Y-14440472D01*
X10602265Y-14440472D02*
X10602265Y-14545234D01*
X10992741Y-14335710D02*
X10821313Y-14592853D01*
X11249884Y-14345234D02*
X11268932Y-14345234D01*
X11268932Y-14345234D02*
X11287979Y-14354758D01*
X11287979Y-14354758D02*
X11297503Y-14364281D01*
X11297503Y-14364281D02*
X11307027Y-14383329D01*
X11307027Y-14383329D02*
X11316551Y-14421424D01*
X11316551Y-14421424D02*
X11316551Y-14469043D01*
X11316551Y-14469043D02*
X11307027Y-14507138D01*
X11307027Y-14507138D02*
X11297503Y-14526186D01*
X11297503Y-14526186D02*
X11287979Y-14535710D01*
X11287979Y-14535710D02*
X11268932Y-14545234D01*
X11268932Y-14545234D02*
X11249884Y-14545234D01*
X11249884Y-14545234D02*
X11230836Y-14535710D01*
X11230836Y-14535710D02*
X11221313Y-14526186D01*
X11221313Y-14526186D02*
X11211789Y-14507138D01*
X11211789Y-14507138D02*
X11202265Y-14469043D01*
X11202265Y-14469043D02*
X11202265Y-14421424D01*
X11202265Y-14421424D02*
X11211789Y-14383329D01*
X11211789Y-14383329D02*
X11221313Y-14364281D01*
X11221313Y-14364281D02*
X11230836Y-14354758D01*
X11230836Y-14354758D02*
X11249884Y-14345234D01*
X11402265Y-14526186D02*
X11411789Y-14535710D01*
X11411789Y-14535710D02*
X11402265Y-14545234D01*
X11402265Y-14545234D02*
X11392741Y-14535710D01*
X11392741Y-14535710D02*
X11402265Y-14526186D01*
X11402265Y-14526186D02*
X11402265Y-14545234D01*
X11535598Y-14345234D02*
X11554646Y-14345234D01*
X11554646Y-14345234D02*
X11573694Y-14354758D01*
X11573694Y-14354758D02*
X11583217Y-14364281D01*
X11583217Y-14364281D02*
X11592741Y-14383329D01*
X11592741Y-14383329D02*
X11602265Y-14421424D01*
X11602265Y-14421424D02*
X11602265Y-14469043D01*
X11602265Y-14469043D02*
X11592741Y-14507138D01*
X11592741Y-14507138D02*
X11583217Y-14526186D01*
X11583217Y-14526186D02*
X11573694Y-14535710D01*
X11573694Y-14535710D02*
X11554646Y-14545234D01*
X11554646Y-14545234D02*
X11535598Y-14545234D01*
X11535598Y-14545234D02*
X11516551Y-14535710D01*
X11516551Y-14535710D02*
X11507027Y-14526186D01*
X11507027Y-14526186D02*
X11497503Y-14507138D01*
X11497503Y-14507138D02*
X11487979Y-14469043D01*
X11487979Y-14469043D02*
X11487979Y-14421424D01*
X11487979Y-14421424D02*
X11497503Y-14383329D01*
X11497503Y-14383329D02*
X11507027Y-14364281D01*
X11507027Y-14364281D02*
X11516551Y-14354758D01*
X11516551Y-14354758D02*
X11535598Y-14345234D01*
X11792741Y-14545234D02*
X11678456Y-14545234D01*
X11735598Y-14545234D02*
X11735598Y-14345234D01*
X11735598Y-14345234D02*
X11716551Y-14373805D01*
X11716551Y-14373805D02*
X11697503Y-14392853D01*
X11697503Y-14392853D02*
X11678456Y-14402377D01*
X11983217Y-14545234D02*
X11868932Y-14545234D01*
X11926075Y-14545234D02*
X11926075Y-14345234D01*
X11926075Y-14345234D02*
X11907027Y-14373805D01*
X11907027Y-14373805D02*
X11887979Y-14392853D01*
X11887979Y-14392853D02*
X11868932Y-14402377D01*
X12097503Y-14430948D02*
X12078456Y-14421424D01*
X12078456Y-14421424D02*
X12068932Y-14411900D01*
X12068932Y-14411900D02*
X12059408Y-14392853D01*
X12059408Y-14392853D02*
X12059408Y-14383329D01*
X12059408Y-14383329D02*
X12068932Y-14364281D01*
X12068932Y-14364281D02*
X12078456Y-14354758D01*
X12078456Y-14354758D02*
X12097503Y-14345234D01*
X12097503Y-14345234D02*
X12135598Y-14345234D01*
X12135598Y-14345234D02*
X12154646Y-14354758D01*
X12154646Y-14354758D02*
X12164170Y-14364281D01*
X12164170Y-14364281D02*
X12173694Y-14383329D01*
X12173694Y-14383329D02*
X12173694Y-14392853D01*
X12173694Y-14392853D02*
X12164170Y-14411900D01*
X12164170Y-14411900D02*
X12154646Y-14421424D01*
X12154646Y-14421424D02*
X12135598Y-14430948D01*
X12135598Y-14430948D02*
X12097503Y-14430948D01*
X12097503Y-14430948D02*
X12078456Y-14440472D01*
X12078456Y-14440472D02*
X12068932Y-14449996D01*
X12068932Y-14449996D02*
X12059408Y-14469043D01*
X12059408Y-14469043D02*
X12059408Y-14507138D01*
X12059408Y-14507138D02*
X12068932Y-14526186D01*
X12068932Y-14526186D02*
X12078456Y-14535710D01*
X12078456Y-14535710D02*
X12097503Y-14545234D01*
X12097503Y-14545234D02*
X12135598Y-14545234D01*
X12135598Y-14545234D02*
X12154646Y-14535710D01*
X12154646Y-14535710D02*
X12164170Y-14526186D01*
X12164170Y-14526186D02*
X12173694Y-14507138D01*
X12173694Y-14507138D02*
X12173694Y-14469043D01*
X12173694Y-14469043D02*
X12164170Y-14449996D01*
X12164170Y-14449996D02*
X12154646Y-14440472D01*
X12154646Y-14440472D02*
X12135598Y-14430948D01*
X12249884Y-14345234D02*
X12249884Y-14383329D01*
X12326075Y-14345234D02*
X12326075Y-14383329D01*
X12621313Y-14621424D02*
X12611789Y-14611900D01*
X12611789Y-14611900D02*
X12592741Y-14583329D01*
X12592741Y-14583329D02*
X12583218Y-14564281D01*
X12583218Y-14564281D02*
X12573694Y-14535710D01*
X12573694Y-14535710D02*
X12564170Y-14488091D01*
X12564170Y-14488091D02*
X12564170Y-14449996D01*
X12564170Y-14449996D02*
X12573694Y-14402377D01*
X12573694Y-14402377D02*
X12583218Y-14373805D01*
X12583218Y-14373805D02*
X12592741Y-14354758D01*
X12592741Y-14354758D02*
X12611789Y-14326186D01*
X12611789Y-14326186D02*
X12621313Y-14316662D01*
X12792741Y-14345234D02*
X12697503Y-14345234D01*
X12697503Y-14345234D02*
X12687979Y-14440472D01*
X12687979Y-14440472D02*
X12697503Y-14430948D01*
X12697503Y-14430948D02*
X12716551Y-14421424D01*
X12716551Y-14421424D02*
X12764170Y-14421424D01*
X12764170Y-14421424D02*
X12783218Y-14430948D01*
X12783218Y-14430948D02*
X12792741Y-14440472D01*
X12792741Y-14440472D02*
X12802265Y-14459519D01*
X12802265Y-14459519D02*
X12802265Y-14507138D01*
X12802265Y-14507138D02*
X12792741Y-14526186D01*
X12792741Y-14526186D02*
X12783218Y-14535710D01*
X12783218Y-14535710D02*
X12764170Y-14545234D01*
X12764170Y-14545234D02*
X12716551Y-14545234D01*
X12716551Y-14545234D02*
X12697503Y-14535710D01*
X12697503Y-14535710D02*
X12687979Y-14526186D01*
X13040360Y-14545234D02*
X13040360Y-14345234D01*
X13126075Y-14545234D02*
X13126075Y-14440472D01*
X13126075Y-14440472D02*
X13116551Y-14421424D01*
X13116551Y-14421424D02*
X13097503Y-14411900D01*
X13097503Y-14411900D02*
X13068932Y-14411900D01*
X13068932Y-14411900D02*
X13049884Y-14421424D01*
X13049884Y-14421424D02*
X13040360Y-14430948D01*
X13249884Y-14545234D02*
X13230837Y-14535710D01*
X13230837Y-14535710D02*
X13221313Y-14526186D01*
X13221313Y-14526186D02*
X13211789Y-14507138D01*
X13211789Y-14507138D02*
X13211789Y-14449996D01*
X13211789Y-14449996D02*
X13221313Y-14430948D01*
X13221313Y-14430948D02*
X13230837Y-14421424D01*
X13230837Y-14421424D02*
X13249884Y-14411900D01*
X13249884Y-14411900D02*
X13278456Y-14411900D01*
X13278456Y-14411900D02*
X13297503Y-14421424D01*
X13297503Y-14421424D02*
X13307027Y-14430948D01*
X13307027Y-14430948D02*
X13316551Y-14449996D01*
X13316551Y-14449996D02*
X13316551Y-14507138D01*
X13316551Y-14507138D02*
X13307027Y-14526186D01*
X13307027Y-14526186D02*
X13297503Y-14535710D01*
X13297503Y-14535710D02*
X13278456Y-14545234D01*
X13278456Y-14545234D02*
X13249884Y-14545234D01*
X13430837Y-14545234D02*
X13411789Y-14535710D01*
X13411789Y-14535710D02*
X13402265Y-14516662D01*
X13402265Y-14516662D02*
X13402265Y-14345234D01*
X13583218Y-14535710D02*
X13564170Y-14545234D01*
X13564170Y-14545234D02*
X13526075Y-14545234D01*
X13526075Y-14545234D02*
X13507027Y-14535710D01*
X13507027Y-14535710D02*
X13497503Y-14516662D01*
X13497503Y-14516662D02*
X13497503Y-14440472D01*
X13497503Y-14440472D02*
X13507027Y-14421424D01*
X13507027Y-14421424D02*
X13526075Y-14411900D01*
X13526075Y-14411900D02*
X13564170Y-14411900D01*
X13564170Y-14411900D02*
X13583218Y-14421424D01*
X13583218Y-14421424D02*
X13592741Y-14440472D01*
X13592741Y-14440472D02*
X13592741Y-14459519D01*
X13592741Y-14459519D02*
X13497503Y-14478567D01*
X13668932Y-14535710D02*
X13687980Y-14545234D01*
X13687980Y-14545234D02*
X13726075Y-14545234D01*
X13726075Y-14545234D02*
X13745122Y-14535710D01*
X13745122Y-14535710D02*
X13754646Y-14516662D01*
X13754646Y-14516662D02*
X13754646Y-14507138D01*
X13754646Y-14507138D02*
X13745122Y-14488091D01*
X13745122Y-14488091D02*
X13726075Y-14478567D01*
X13726075Y-14478567D02*
X13697503Y-14478567D01*
X13697503Y-14478567D02*
X13678456Y-14469043D01*
X13678456Y-14469043D02*
X13668932Y-14449996D01*
X13668932Y-14449996D02*
X13668932Y-14440472D01*
X13668932Y-14440472D02*
X13678456Y-14421424D01*
X13678456Y-14421424D02*
X13697503Y-14411900D01*
X13697503Y-14411900D02*
X13726075Y-14411900D01*
X13726075Y-14411900D02*
X13745122Y-14421424D01*
X13821313Y-14621424D02*
X13830837Y-14611900D01*
X13830837Y-14611900D02*
X13849884Y-14583329D01*
X13849884Y-14583329D02*
X13859408Y-14564281D01*
X13859408Y-14564281D02*
X13868932Y-14535710D01*
X13868932Y-14535710D02*
X13878456Y-14488091D01*
X13878456Y-14488091D02*
X13878456Y-14449996D01*
X13878456Y-14449996D02*
X13868932Y-14402377D01*
X13868932Y-14402377D02*
X13859408Y-14373805D01*
X13859408Y-14373805D02*
X13849884Y-14354758D01*
X13849884Y-14354758D02*
X13830837Y-14326186D01*
X13830837Y-14326186D02*
X13821313Y-14316662D01*
D12*
X9046250Y-14717750D02*
G75*
G02*
X8966250Y-14717750I-40000J0D01*
G01*
X8966250Y-14717750D02*
G75*
G02*
X9046250Y-14717750I40000J0D01*
G01*
D11*
X9345122Y-14609234D02*
X9364170Y-14609234D01*
X9364170Y-14609234D02*
X9383217Y-14618758D01*
X9383217Y-14618758D02*
X9392741Y-14628281D01*
X9392741Y-14628281D02*
X9402265Y-14647329D01*
X9402265Y-14647329D02*
X9411789Y-14685424D01*
X9411789Y-14685424D02*
X9411789Y-14733043D01*
X9411789Y-14733043D02*
X9402265Y-14771138D01*
X9402265Y-14771138D02*
X9392741Y-14790186D01*
X9392741Y-14790186D02*
X9383217Y-14799710D01*
X9383217Y-14799710D02*
X9364170Y-14809234D01*
X9364170Y-14809234D02*
X9345122Y-14809234D01*
X9345122Y-14809234D02*
X9326074Y-14799710D01*
X9326074Y-14799710D02*
X9316551Y-14790186D01*
X9316551Y-14790186D02*
X9307027Y-14771138D01*
X9307027Y-14771138D02*
X9297503Y-14733043D01*
X9297503Y-14733043D02*
X9297503Y-14685424D01*
X9297503Y-14685424D02*
X9307027Y-14647329D01*
X9307027Y-14647329D02*
X9316551Y-14628281D01*
X9316551Y-14628281D02*
X9326074Y-14618758D01*
X9326074Y-14618758D02*
X9345122Y-14609234D01*
X9497503Y-14790186D02*
X9507027Y-14799710D01*
X9507027Y-14799710D02*
X9497503Y-14809234D01*
X9497503Y-14809234D02*
X9487979Y-14799710D01*
X9487979Y-14799710D02*
X9497503Y-14790186D01*
X9497503Y-14790186D02*
X9497503Y-14809234D01*
X9621313Y-14694948D02*
X9602265Y-14685424D01*
X9602265Y-14685424D02*
X9592741Y-14675900D01*
X9592741Y-14675900D02*
X9583217Y-14656853D01*
X9583217Y-14656853D02*
X9583217Y-14647329D01*
X9583217Y-14647329D02*
X9592741Y-14628281D01*
X9592741Y-14628281D02*
X9602265Y-14618758D01*
X9602265Y-14618758D02*
X9621313Y-14609234D01*
X9621313Y-14609234D02*
X9659408Y-14609234D01*
X9659408Y-14609234D02*
X9678455Y-14618758D01*
X9678455Y-14618758D02*
X9687979Y-14628281D01*
X9687979Y-14628281D02*
X9697503Y-14647329D01*
X9697503Y-14647329D02*
X9697503Y-14656853D01*
X9697503Y-14656853D02*
X9687979Y-14675900D01*
X9687979Y-14675900D02*
X9678455Y-14685424D01*
X9678455Y-14685424D02*
X9659408Y-14694948D01*
X9659408Y-14694948D02*
X9621313Y-14694948D01*
X9621313Y-14694948D02*
X9602265Y-14704472D01*
X9602265Y-14704472D02*
X9592741Y-14713996D01*
X9592741Y-14713996D02*
X9583217Y-14733043D01*
X9583217Y-14733043D02*
X9583217Y-14771138D01*
X9583217Y-14771138D02*
X9592741Y-14790186D01*
X9592741Y-14790186D02*
X9602265Y-14799710D01*
X9602265Y-14799710D02*
X9621313Y-14809234D01*
X9621313Y-14809234D02*
X9659408Y-14809234D01*
X9659408Y-14809234D02*
X9678455Y-14799710D01*
X9678455Y-14799710D02*
X9687979Y-14790186D01*
X9687979Y-14790186D02*
X9697503Y-14771138D01*
X9697503Y-14771138D02*
X9697503Y-14733043D01*
X9697503Y-14733043D02*
X9687979Y-14713996D01*
X9687979Y-14713996D02*
X9678455Y-14704472D01*
X9678455Y-14704472D02*
X9659408Y-14694948D01*
X9821313Y-14609234D02*
X9840360Y-14609234D01*
X9840360Y-14609234D02*
X9859408Y-14618758D01*
X9859408Y-14618758D02*
X9868932Y-14628281D01*
X9868932Y-14628281D02*
X9878455Y-14647329D01*
X9878455Y-14647329D02*
X9887979Y-14685424D01*
X9887979Y-14685424D02*
X9887979Y-14733043D01*
X9887979Y-14733043D02*
X9878455Y-14771138D01*
X9878455Y-14771138D02*
X9868932Y-14790186D01*
X9868932Y-14790186D02*
X9859408Y-14799710D01*
X9859408Y-14799710D02*
X9840360Y-14809234D01*
X9840360Y-14809234D02*
X9821313Y-14809234D01*
X9821313Y-14809234D02*
X9802265Y-14799710D01*
X9802265Y-14799710D02*
X9792741Y-14790186D01*
X9792741Y-14790186D02*
X9783217Y-14771138D01*
X9783217Y-14771138D02*
X9773694Y-14733043D01*
X9773694Y-14733043D02*
X9773694Y-14685424D01*
X9773694Y-14685424D02*
X9783217Y-14647329D01*
X9783217Y-14647329D02*
X9792741Y-14628281D01*
X9792741Y-14628281D02*
X9802265Y-14618758D01*
X9802265Y-14618758D02*
X9821313Y-14609234D01*
X10011789Y-14609234D02*
X10030836Y-14609234D01*
X10030836Y-14609234D02*
X10049884Y-14618758D01*
X10049884Y-14618758D02*
X10059408Y-14628281D01*
X10059408Y-14628281D02*
X10068932Y-14647329D01*
X10068932Y-14647329D02*
X10078455Y-14685424D01*
X10078455Y-14685424D02*
X10078455Y-14733043D01*
X10078455Y-14733043D02*
X10068932Y-14771138D01*
X10068932Y-14771138D02*
X10059408Y-14790186D01*
X10059408Y-14790186D02*
X10049884Y-14799710D01*
X10049884Y-14799710D02*
X10030836Y-14809234D01*
X10030836Y-14809234D02*
X10011789Y-14809234D01*
X10011789Y-14809234D02*
X9992741Y-14799710D01*
X9992741Y-14799710D02*
X9983217Y-14790186D01*
X9983217Y-14790186D02*
X9973694Y-14771138D01*
X9973694Y-14771138D02*
X9964170Y-14733043D01*
X9964170Y-14733043D02*
X9964170Y-14685424D01*
X9964170Y-14685424D02*
X9973694Y-14647329D01*
X9973694Y-14647329D02*
X9983217Y-14628281D01*
X9983217Y-14628281D02*
X9992741Y-14618758D01*
X9992741Y-14618758D02*
X10011789Y-14609234D01*
X10164170Y-14809234D02*
X10164170Y-14675900D01*
X10164170Y-14694948D02*
X10173694Y-14685424D01*
X10173694Y-14685424D02*
X10192741Y-14675900D01*
X10192741Y-14675900D02*
X10221313Y-14675900D01*
X10221313Y-14675900D02*
X10240360Y-14685424D01*
X10240360Y-14685424D02*
X10249884Y-14704472D01*
X10249884Y-14704472D02*
X10249884Y-14809234D01*
X10249884Y-14704472D02*
X10259408Y-14685424D01*
X10259408Y-14685424D02*
X10278455Y-14675900D01*
X10278455Y-14675900D02*
X10307027Y-14675900D01*
X10307027Y-14675900D02*
X10326075Y-14685424D01*
X10326075Y-14685424D02*
X10335598Y-14704472D01*
X10335598Y-14704472D02*
X10335598Y-14809234D01*
X10430836Y-14809234D02*
X10430836Y-14675900D01*
X10430836Y-14694948D02*
X10440360Y-14685424D01*
X10440360Y-14685424D02*
X10459408Y-14675900D01*
X10459408Y-14675900D02*
X10487979Y-14675900D01*
X10487979Y-14675900D02*
X10507027Y-14685424D01*
X10507027Y-14685424D02*
X10516551Y-14704472D01*
X10516551Y-14704472D02*
X10516551Y-14809234D01*
X10516551Y-14704472D02*
X10526075Y-14685424D01*
X10526075Y-14685424D02*
X10545122Y-14675900D01*
X10545122Y-14675900D02*
X10573694Y-14675900D01*
X10573694Y-14675900D02*
X10592741Y-14685424D01*
X10592741Y-14685424D02*
X10602265Y-14704472D01*
X10602265Y-14704472D02*
X10602265Y-14809234D01*
X10992741Y-14599710D02*
X10821313Y-14856853D01*
X11249884Y-14609234D02*
X11268932Y-14609234D01*
X11268932Y-14609234D02*
X11287979Y-14618758D01*
X11287979Y-14618758D02*
X11297503Y-14628281D01*
X11297503Y-14628281D02*
X11307027Y-14647329D01*
X11307027Y-14647329D02*
X11316551Y-14685424D01*
X11316551Y-14685424D02*
X11316551Y-14733043D01*
X11316551Y-14733043D02*
X11307027Y-14771138D01*
X11307027Y-14771138D02*
X11297503Y-14790186D01*
X11297503Y-14790186D02*
X11287979Y-14799710D01*
X11287979Y-14799710D02*
X11268932Y-14809234D01*
X11268932Y-14809234D02*
X11249884Y-14809234D01*
X11249884Y-14809234D02*
X11230836Y-14799710D01*
X11230836Y-14799710D02*
X11221313Y-14790186D01*
X11221313Y-14790186D02*
X11211789Y-14771138D01*
X11211789Y-14771138D02*
X11202265Y-14733043D01*
X11202265Y-14733043D02*
X11202265Y-14685424D01*
X11202265Y-14685424D02*
X11211789Y-14647329D01*
X11211789Y-14647329D02*
X11221313Y-14628281D01*
X11221313Y-14628281D02*
X11230836Y-14618758D01*
X11230836Y-14618758D02*
X11249884Y-14609234D01*
X11402265Y-14790186D02*
X11411789Y-14799710D01*
X11411789Y-14799710D02*
X11402265Y-14809234D01*
X11402265Y-14809234D02*
X11392741Y-14799710D01*
X11392741Y-14799710D02*
X11402265Y-14790186D01*
X11402265Y-14790186D02*
X11402265Y-14809234D01*
X11535598Y-14609234D02*
X11554646Y-14609234D01*
X11554646Y-14609234D02*
X11573694Y-14618758D01*
X11573694Y-14618758D02*
X11583217Y-14628281D01*
X11583217Y-14628281D02*
X11592741Y-14647329D01*
X11592741Y-14647329D02*
X11602265Y-14685424D01*
X11602265Y-14685424D02*
X11602265Y-14733043D01*
X11602265Y-14733043D02*
X11592741Y-14771138D01*
X11592741Y-14771138D02*
X11583217Y-14790186D01*
X11583217Y-14790186D02*
X11573694Y-14799710D01*
X11573694Y-14799710D02*
X11554646Y-14809234D01*
X11554646Y-14809234D02*
X11535598Y-14809234D01*
X11535598Y-14809234D02*
X11516551Y-14799710D01*
X11516551Y-14799710D02*
X11507027Y-14790186D01*
X11507027Y-14790186D02*
X11497503Y-14771138D01*
X11497503Y-14771138D02*
X11487979Y-14733043D01*
X11487979Y-14733043D02*
X11487979Y-14685424D01*
X11487979Y-14685424D02*
X11497503Y-14647329D01*
X11497503Y-14647329D02*
X11507027Y-14628281D01*
X11507027Y-14628281D02*
X11516551Y-14618758D01*
X11516551Y-14618758D02*
X11535598Y-14609234D01*
X11668932Y-14609234D02*
X11792741Y-14609234D01*
X11792741Y-14609234D02*
X11726075Y-14685424D01*
X11726075Y-14685424D02*
X11754646Y-14685424D01*
X11754646Y-14685424D02*
X11773694Y-14694948D01*
X11773694Y-14694948D02*
X11783217Y-14704472D01*
X11783217Y-14704472D02*
X11792741Y-14723519D01*
X11792741Y-14723519D02*
X11792741Y-14771138D01*
X11792741Y-14771138D02*
X11783217Y-14790186D01*
X11783217Y-14790186D02*
X11773694Y-14799710D01*
X11773694Y-14799710D02*
X11754646Y-14809234D01*
X11754646Y-14809234D02*
X11697503Y-14809234D01*
X11697503Y-14809234D02*
X11678456Y-14799710D01*
X11678456Y-14799710D02*
X11668932Y-14790186D01*
X11983217Y-14809234D02*
X11868932Y-14809234D01*
X11926075Y-14809234D02*
X11926075Y-14609234D01*
X11926075Y-14609234D02*
X11907027Y-14637805D01*
X11907027Y-14637805D02*
X11887979Y-14656853D01*
X11887979Y-14656853D02*
X11868932Y-14666377D01*
X12164170Y-14609234D02*
X12068932Y-14609234D01*
X12068932Y-14609234D02*
X12059408Y-14704472D01*
X12059408Y-14704472D02*
X12068932Y-14694948D01*
X12068932Y-14694948D02*
X12087979Y-14685424D01*
X12087979Y-14685424D02*
X12135598Y-14685424D01*
X12135598Y-14685424D02*
X12154646Y-14694948D01*
X12154646Y-14694948D02*
X12164170Y-14704472D01*
X12164170Y-14704472D02*
X12173694Y-14723519D01*
X12173694Y-14723519D02*
X12173694Y-14771138D01*
X12173694Y-14771138D02*
X12164170Y-14790186D01*
X12164170Y-14790186D02*
X12154646Y-14799710D01*
X12154646Y-14799710D02*
X12135598Y-14809234D01*
X12135598Y-14809234D02*
X12087979Y-14809234D01*
X12087979Y-14809234D02*
X12068932Y-14799710D01*
X12068932Y-14799710D02*
X12059408Y-14790186D01*
X12249884Y-14609234D02*
X12249884Y-14647329D01*
X12326075Y-14609234D02*
X12326075Y-14647329D01*
X12621313Y-14885424D02*
X12611789Y-14875900D01*
X12611789Y-14875900D02*
X12592741Y-14847329D01*
X12592741Y-14847329D02*
X12583218Y-14828281D01*
X12583218Y-14828281D02*
X12573694Y-14799710D01*
X12573694Y-14799710D02*
X12564170Y-14752091D01*
X12564170Y-14752091D02*
X12564170Y-14713996D01*
X12564170Y-14713996D02*
X12573694Y-14666377D01*
X12573694Y-14666377D02*
X12583218Y-14637805D01*
X12583218Y-14637805D02*
X12592741Y-14618758D01*
X12592741Y-14618758D02*
X12611789Y-14590186D01*
X12611789Y-14590186D02*
X12621313Y-14580662D01*
X12802265Y-14809234D02*
X12687979Y-14809234D01*
X12745122Y-14809234D02*
X12745122Y-14609234D01*
X12745122Y-14609234D02*
X12726075Y-14637805D01*
X12726075Y-14637805D02*
X12707027Y-14656853D01*
X12707027Y-14656853D02*
X12687979Y-14666377D01*
X12973694Y-14609234D02*
X12935598Y-14609234D01*
X12935598Y-14609234D02*
X12916551Y-14618758D01*
X12916551Y-14618758D02*
X12907027Y-14628281D01*
X12907027Y-14628281D02*
X12887979Y-14656853D01*
X12887979Y-14656853D02*
X12878456Y-14694948D01*
X12878456Y-14694948D02*
X12878456Y-14771138D01*
X12878456Y-14771138D02*
X12887979Y-14790186D01*
X12887979Y-14790186D02*
X12897503Y-14799710D01*
X12897503Y-14799710D02*
X12916551Y-14809234D01*
X12916551Y-14809234D02*
X12954646Y-14809234D01*
X12954646Y-14809234D02*
X12973694Y-14799710D01*
X12973694Y-14799710D02*
X12983218Y-14790186D01*
X12983218Y-14790186D02*
X12992741Y-14771138D01*
X12992741Y-14771138D02*
X12992741Y-14723519D01*
X12992741Y-14723519D02*
X12983218Y-14704472D01*
X12983218Y-14704472D02*
X12973694Y-14694948D01*
X12973694Y-14694948D02*
X12954646Y-14685424D01*
X12954646Y-14685424D02*
X12916551Y-14685424D01*
X12916551Y-14685424D02*
X12897503Y-14694948D01*
X12897503Y-14694948D02*
X12887979Y-14704472D01*
X12887979Y-14704472D02*
X12878456Y-14723519D01*
X13230837Y-14809234D02*
X13230837Y-14609234D01*
X13316551Y-14809234D02*
X13316551Y-14704472D01*
X13316551Y-14704472D02*
X13307027Y-14685424D01*
X13307027Y-14685424D02*
X13287980Y-14675900D01*
X13287980Y-14675900D02*
X13259408Y-14675900D01*
X13259408Y-14675900D02*
X13240360Y-14685424D01*
X13240360Y-14685424D02*
X13230837Y-14694948D01*
X13440360Y-14809234D02*
X13421313Y-14799710D01*
X13421313Y-14799710D02*
X13411789Y-14790186D01*
X13411789Y-14790186D02*
X13402265Y-14771138D01*
X13402265Y-14771138D02*
X13402265Y-14713996D01*
X13402265Y-14713996D02*
X13411789Y-14694948D01*
X13411789Y-14694948D02*
X13421313Y-14685424D01*
X13421313Y-14685424D02*
X13440360Y-14675900D01*
X13440360Y-14675900D02*
X13468932Y-14675900D01*
X13468932Y-14675900D02*
X13487980Y-14685424D01*
X13487980Y-14685424D02*
X13497503Y-14694948D01*
X13497503Y-14694948D02*
X13507027Y-14713996D01*
X13507027Y-14713996D02*
X13507027Y-14771138D01*
X13507027Y-14771138D02*
X13497503Y-14790186D01*
X13497503Y-14790186D02*
X13487980Y-14799710D01*
X13487980Y-14799710D02*
X13468932Y-14809234D01*
X13468932Y-14809234D02*
X13440360Y-14809234D01*
X13621313Y-14809234D02*
X13602265Y-14799710D01*
X13602265Y-14799710D02*
X13592741Y-14780662D01*
X13592741Y-14780662D02*
X13592741Y-14609234D01*
X13773694Y-14799710D02*
X13754646Y-14809234D01*
X13754646Y-14809234D02*
X13716551Y-14809234D01*
X13716551Y-14809234D02*
X13697503Y-14799710D01*
X13697503Y-14799710D02*
X13687980Y-14780662D01*
X13687980Y-14780662D02*
X13687980Y-14704472D01*
X13687980Y-14704472D02*
X13697503Y-14685424D01*
X13697503Y-14685424D02*
X13716551Y-14675900D01*
X13716551Y-14675900D02*
X13754646Y-14675900D01*
X13754646Y-14675900D02*
X13773694Y-14685424D01*
X13773694Y-14685424D02*
X13783218Y-14704472D01*
X13783218Y-14704472D02*
X13783218Y-14723519D01*
X13783218Y-14723519D02*
X13687980Y-14742567D01*
X13859408Y-14799710D02*
X13878456Y-14809234D01*
X13878456Y-14809234D02*
X13916551Y-14809234D01*
X13916551Y-14809234D02*
X13935599Y-14799710D01*
X13935599Y-14799710D02*
X13945122Y-14780662D01*
X13945122Y-14780662D02*
X13945122Y-14771138D01*
X13945122Y-14771138D02*
X13935599Y-14752091D01*
X13935599Y-14752091D02*
X13916551Y-14742567D01*
X13916551Y-14742567D02*
X13887980Y-14742567D01*
X13887980Y-14742567D02*
X13868932Y-14733043D01*
X13868932Y-14733043D02*
X13859408Y-14713996D01*
X13859408Y-14713996D02*
X13859408Y-14704472D01*
X13859408Y-14704472D02*
X13868932Y-14685424D01*
X13868932Y-14685424D02*
X13887980Y-14675900D01*
X13887980Y-14675900D02*
X13916551Y-14675900D01*
X13916551Y-14675900D02*
X13935599Y-14685424D01*
X14011789Y-14885424D02*
X14021313Y-14875900D01*
X14021313Y-14875900D02*
X14040361Y-14847329D01*
X14040361Y-14847329D02*
X14049884Y-14828281D01*
X14049884Y-14828281D02*
X14059408Y-14799710D01*
X14059408Y-14799710D02*
X14068932Y-14752091D01*
X14068932Y-14752091D02*
X14068932Y-14713996D01*
X14068932Y-14713996D02*
X14059408Y-14666377D01*
X14059408Y-14666377D02*
X14049884Y-14637805D01*
X14049884Y-14637805D02*
X14040361Y-14618758D01*
X14040361Y-14618758D02*
X14021313Y-14590186D01*
X14021313Y-14590186D02*
X14011789Y-14580662D01*
D12*
X9001800Y-14937300D02*
X9001800Y-15026200D01*
X8957350Y-14981750D02*
X9046250Y-14981750D01*
D11*
X9345122Y-14873234D02*
X9364170Y-14873234D01*
X9364170Y-14873234D02*
X9383217Y-14882758D01*
X9383217Y-14882758D02*
X9392741Y-14892281D01*
X9392741Y-14892281D02*
X9402265Y-14911329D01*
X9402265Y-14911329D02*
X9411789Y-14949424D01*
X9411789Y-14949424D02*
X9411789Y-14997043D01*
X9411789Y-14997043D02*
X9402265Y-15035138D01*
X9402265Y-15035138D02*
X9392741Y-15054186D01*
X9392741Y-15054186D02*
X9383217Y-15063710D01*
X9383217Y-15063710D02*
X9364170Y-15073234D01*
X9364170Y-15073234D02*
X9345122Y-15073234D01*
X9345122Y-15073234D02*
X9326074Y-15063710D01*
X9326074Y-15063710D02*
X9316551Y-15054186D01*
X9316551Y-15054186D02*
X9307027Y-15035138D01*
X9307027Y-15035138D02*
X9297503Y-14997043D01*
X9297503Y-14997043D02*
X9297503Y-14949424D01*
X9297503Y-14949424D02*
X9307027Y-14911329D01*
X9307027Y-14911329D02*
X9316551Y-14892281D01*
X9316551Y-14892281D02*
X9326074Y-14882758D01*
X9326074Y-14882758D02*
X9345122Y-14873234D01*
X9497503Y-15054186D02*
X9507027Y-15063710D01*
X9507027Y-15063710D02*
X9497503Y-15073234D01*
X9497503Y-15073234D02*
X9487979Y-15063710D01*
X9487979Y-15063710D02*
X9497503Y-15054186D01*
X9497503Y-15054186D02*
X9497503Y-15073234D01*
X9621313Y-14958948D02*
X9602265Y-14949424D01*
X9602265Y-14949424D02*
X9592741Y-14939900D01*
X9592741Y-14939900D02*
X9583217Y-14920853D01*
X9583217Y-14920853D02*
X9583217Y-14911329D01*
X9583217Y-14911329D02*
X9592741Y-14892281D01*
X9592741Y-14892281D02*
X9602265Y-14882758D01*
X9602265Y-14882758D02*
X9621313Y-14873234D01*
X9621313Y-14873234D02*
X9659408Y-14873234D01*
X9659408Y-14873234D02*
X9678455Y-14882758D01*
X9678455Y-14882758D02*
X9687979Y-14892281D01*
X9687979Y-14892281D02*
X9697503Y-14911329D01*
X9697503Y-14911329D02*
X9697503Y-14920853D01*
X9697503Y-14920853D02*
X9687979Y-14939900D01*
X9687979Y-14939900D02*
X9678455Y-14949424D01*
X9678455Y-14949424D02*
X9659408Y-14958948D01*
X9659408Y-14958948D02*
X9621313Y-14958948D01*
X9621313Y-14958948D02*
X9602265Y-14968472D01*
X9602265Y-14968472D02*
X9592741Y-14977996D01*
X9592741Y-14977996D02*
X9583217Y-14997043D01*
X9583217Y-14997043D02*
X9583217Y-15035138D01*
X9583217Y-15035138D02*
X9592741Y-15054186D01*
X9592741Y-15054186D02*
X9602265Y-15063710D01*
X9602265Y-15063710D02*
X9621313Y-15073234D01*
X9621313Y-15073234D02*
X9659408Y-15073234D01*
X9659408Y-15073234D02*
X9678455Y-15063710D01*
X9678455Y-15063710D02*
X9687979Y-15054186D01*
X9687979Y-15054186D02*
X9697503Y-15035138D01*
X9697503Y-15035138D02*
X9697503Y-14997043D01*
X9697503Y-14997043D02*
X9687979Y-14977996D01*
X9687979Y-14977996D02*
X9678455Y-14968472D01*
X9678455Y-14968472D02*
X9659408Y-14958948D01*
X9811789Y-14958948D02*
X9792741Y-14949424D01*
X9792741Y-14949424D02*
X9783217Y-14939900D01*
X9783217Y-14939900D02*
X9773694Y-14920853D01*
X9773694Y-14920853D02*
X9773694Y-14911329D01*
X9773694Y-14911329D02*
X9783217Y-14892281D01*
X9783217Y-14892281D02*
X9792741Y-14882758D01*
X9792741Y-14882758D02*
X9811789Y-14873234D01*
X9811789Y-14873234D02*
X9849884Y-14873234D01*
X9849884Y-14873234D02*
X9868932Y-14882758D01*
X9868932Y-14882758D02*
X9878455Y-14892281D01*
X9878455Y-14892281D02*
X9887979Y-14911329D01*
X9887979Y-14911329D02*
X9887979Y-14920853D01*
X9887979Y-14920853D02*
X9878455Y-14939900D01*
X9878455Y-14939900D02*
X9868932Y-14949424D01*
X9868932Y-14949424D02*
X9849884Y-14958948D01*
X9849884Y-14958948D02*
X9811789Y-14958948D01*
X9811789Y-14958948D02*
X9792741Y-14968472D01*
X9792741Y-14968472D02*
X9783217Y-14977996D01*
X9783217Y-14977996D02*
X9773694Y-14997043D01*
X9773694Y-14997043D02*
X9773694Y-15035138D01*
X9773694Y-15035138D02*
X9783217Y-15054186D01*
X9783217Y-15054186D02*
X9792741Y-15063710D01*
X9792741Y-15063710D02*
X9811789Y-15073234D01*
X9811789Y-15073234D02*
X9849884Y-15073234D01*
X9849884Y-15073234D02*
X9868932Y-15063710D01*
X9868932Y-15063710D02*
X9878455Y-15054186D01*
X9878455Y-15054186D02*
X9887979Y-15035138D01*
X9887979Y-15035138D02*
X9887979Y-14997043D01*
X9887979Y-14997043D02*
X9878455Y-14977996D01*
X9878455Y-14977996D02*
X9868932Y-14968472D01*
X9868932Y-14968472D02*
X9849884Y-14958948D01*
X9983217Y-15073234D02*
X10021313Y-15073234D01*
X10021313Y-15073234D02*
X10040360Y-15063710D01*
X10040360Y-15063710D02*
X10049884Y-15054186D01*
X10049884Y-15054186D02*
X10068932Y-15025615D01*
X10068932Y-15025615D02*
X10078455Y-14987519D01*
X10078455Y-14987519D02*
X10078455Y-14911329D01*
X10078455Y-14911329D02*
X10068932Y-14892281D01*
X10068932Y-14892281D02*
X10059408Y-14882758D01*
X10059408Y-14882758D02*
X10040360Y-14873234D01*
X10040360Y-14873234D02*
X10002265Y-14873234D01*
X10002265Y-14873234D02*
X9983217Y-14882758D01*
X9983217Y-14882758D02*
X9973694Y-14892281D01*
X9973694Y-14892281D02*
X9964170Y-14911329D01*
X9964170Y-14911329D02*
X9964170Y-14958948D01*
X9964170Y-14958948D02*
X9973694Y-14977996D01*
X9973694Y-14977996D02*
X9983217Y-14987519D01*
X9983217Y-14987519D02*
X10002265Y-14997043D01*
X10002265Y-14997043D02*
X10040360Y-14997043D01*
X10040360Y-14997043D02*
X10059408Y-14987519D01*
X10059408Y-14987519D02*
X10068932Y-14977996D01*
X10068932Y-14977996D02*
X10078455Y-14958948D01*
X10164170Y-15073234D02*
X10164170Y-14939900D01*
X10164170Y-14958948D02*
X10173694Y-14949424D01*
X10173694Y-14949424D02*
X10192741Y-14939900D01*
X10192741Y-14939900D02*
X10221313Y-14939900D01*
X10221313Y-14939900D02*
X10240360Y-14949424D01*
X10240360Y-14949424D02*
X10249884Y-14968472D01*
X10249884Y-14968472D02*
X10249884Y-15073234D01*
X10249884Y-14968472D02*
X10259408Y-14949424D01*
X10259408Y-14949424D02*
X10278455Y-14939900D01*
X10278455Y-14939900D02*
X10307027Y-14939900D01*
X10307027Y-14939900D02*
X10326075Y-14949424D01*
X10326075Y-14949424D02*
X10335598Y-14968472D01*
X10335598Y-14968472D02*
X10335598Y-15073234D01*
X10430836Y-15073234D02*
X10430836Y-14939900D01*
X10430836Y-14958948D02*
X10440360Y-14949424D01*
X10440360Y-14949424D02*
X10459408Y-14939900D01*
X10459408Y-14939900D02*
X10487979Y-14939900D01*
X10487979Y-14939900D02*
X10507027Y-14949424D01*
X10507027Y-14949424D02*
X10516551Y-14968472D01*
X10516551Y-14968472D02*
X10516551Y-15073234D01*
X10516551Y-14968472D02*
X10526075Y-14949424D01*
X10526075Y-14949424D02*
X10545122Y-14939900D01*
X10545122Y-14939900D02*
X10573694Y-14939900D01*
X10573694Y-14939900D02*
X10592741Y-14949424D01*
X10592741Y-14949424D02*
X10602265Y-14968472D01*
X10602265Y-14968472D02*
X10602265Y-15073234D01*
X10992741Y-14863710D02*
X10821313Y-15120853D01*
X11249884Y-14873234D02*
X11268932Y-14873234D01*
X11268932Y-14873234D02*
X11287979Y-14882758D01*
X11287979Y-14882758D02*
X11297503Y-14892281D01*
X11297503Y-14892281D02*
X11307027Y-14911329D01*
X11307027Y-14911329D02*
X11316551Y-14949424D01*
X11316551Y-14949424D02*
X11316551Y-14997043D01*
X11316551Y-14997043D02*
X11307027Y-15035138D01*
X11307027Y-15035138D02*
X11297503Y-15054186D01*
X11297503Y-15054186D02*
X11287979Y-15063710D01*
X11287979Y-15063710D02*
X11268932Y-15073234D01*
X11268932Y-15073234D02*
X11249884Y-15073234D01*
X11249884Y-15073234D02*
X11230836Y-15063710D01*
X11230836Y-15063710D02*
X11221313Y-15054186D01*
X11221313Y-15054186D02*
X11211789Y-15035138D01*
X11211789Y-15035138D02*
X11202265Y-14997043D01*
X11202265Y-14997043D02*
X11202265Y-14949424D01*
X11202265Y-14949424D02*
X11211789Y-14911329D01*
X11211789Y-14911329D02*
X11221313Y-14892281D01*
X11221313Y-14892281D02*
X11230836Y-14882758D01*
X11230836Y-14882758D02*
X11249884Y-14873234D01*
X11402265Y-15054186D02*
X11411789Y-15063710D01*
X11411789Y-15063710D02*
X11402265Y-15073234D01*
X11402265Y-15073234D02*
X11392741Y-15063710D01*
X11392741Y-15063710D02*
X11402265Y-15054186D01*
X11402265Y-15054186D02*
X11402265Y-15073234D01*
X11535598Y-14873234D02*
X11554646Y-14873234D01*
X11554646Y-14873234D02*
X11573694Y-14882758D01*
X11573694Y-14882758D02*
X11583217Y-14892281D01*
X11583217Y-14892281D02*
X11592741Y-14911329D01*
X11592741Y-14911329D02*
X11602265Y-14949424D01*
X11602265Y-14949424D02*
X11602265Y-14997043D01*
X11602265Y-14997043D02*
X11592741Y-15035138D01*
X11592741Y-15035138D02*
X11583217Y-15054186D01*
X11583217Y-15054186D02*
X11573694Y-15063710D01*
X11573694Y-15063710D02*
X11554646Y-15073234D01*
X11554646Y-15073234D02*
X11535598Y-15073234D01*
X11535598Y-15073234D02*
X11516551Y-15063710D01*
X11516551Y-15063710D02*
X11507027Y-15054186D01*
X11507027Y-15054186D02*
X11497503Y-15035138D01*
X11497503Y-15035138D02*
X11487979Y-14997043D01*
X11487979Y-14997043D02*
X11487979Y-14949424D01*
X11487979Y-14949424D02*
X11497503Y-14911329D01*
X11497503Y-14911329D02*
X11507027Y-14892281D01*
X11507027Y-14892281D02*
X11516551Y-14882758D01*
X11516551Y-14882758D02*
X11535598Y-14873234D01*
X11668932Y-14873234D02*
X11792741Y-14873234D01*
X11792741Y-14873234D02*
X11726075Y-14949424D01*
X11726075Y-14949424D02*
X11754646Y-14949424D01*
X11754646Y-14949424D02*
X11773694Y-14958948D01*
X11773694Y-14958948D02*
X11783217Y-14968472D01*
X11783217Y-14968472D02*
X11792741Y-14987519D01*
X11792741Y-14987519D02*
X11792741Y-15035138D01*
X11792741Y-15035138D02*
X11783217Y-15054186D01*
X11783217Y-15054186D02*
X11773694Y-15063710D01*
X11773694Y-15063710D02*
X11754646Y-15073234D01*
X11754646Y-15073234D02*
X11697503Y-15073234D01*
X11697503Y-15073234D02*
X11678456Y-15063710D01*
X11678456Y-15063710D02*
X11668932Y-15054186D01*
X11973694Y-14873234D02*
X11878456Y-14873234D01*
X11878456Y-14873234D02*
X11868932Y-14968472D01*
X11868932Y-14968472D02*
X11878456Y-14958948D01*
X11878456Y-14958948D02*
X11897503Y-14949424D01*
X11897503Y-14949424D02*
X11945122Y-14949424D01*
X11945122Y-14949424D02*
X11964170Y-14958948D01*
X11964170Y-14958948D02*
X11973694Y-14968472D01*
X11973694Y-14968472D02*
X11983217Y-14987519D01*
X11983217Y-14987519D02*
X11983217Y-15035138D01*
X11983217Y-15035138D02*
X11973694Y-15054186D01*
X11973694Y-15054186D02*
X11964170Y-15063710D01*
X11964170Y-15063710D02*
X11945122Y-15073234D01*
X11945122Y-15073234D02*
X11897503Y-15073234D01*
X11897503Y-15073234D02*
X11878456Y-15063710D01*
X11878456Y-15063710D02*
X11868932Y-15054186D01*
X12107027Y-14873234D02*
X12126075Y-14873234D01*
X12126075Y-14873234D02*
X12145122Y-14882758D01*
X12145122Y-14882758D02*
X12154646Y-14892281D01*
X12154646Y-14892281D02*
X12164170Y-14911329D01*
X12164170Y-14911329D02*
X12173694Y-14949424D01*
X12173694Y-14949424D02*
X12173694Y-14997043D01*
X12173694Y-14997043D02*
X12164170Y-15035138D01*
X12164170Y-15035138D02*
X12154646Y-15054186D01*
X12154646Y-15054186D02*
X12145122Y-15063710D01*
X12145122Y-15063710D02*
X12126075Y-15073234D01*
X12126075Y-15073234D02*
X12107027Y-15073234D01*
X12107027Y-15073234D02*
X12087979Y-15063710D01*
X12087979Y-15063710D02*
X12078456Y-15054186D01*
X12078456Y-15054186D02*
X12068932Y-15035138D01*
X12068932Y-15035138D02*
X12059408Y-14997043D01*
X12059408Y-14997043D02*
X12059408Y-14949424D01*
X12059408Y-14949424D02*
X12068932Y-14911329D01*
X12068932Y-14911329D02*
X12078456Y-14892281D01*
X12078456Y-14892281D02*
X12087979Y-14882758D01*
X12087979Y-14882758D02*
X12107027Y-14873234D01*
X12249884Y-14873234D02*
X12249884Y-14911329D01*
X12326075Y-14873234D02*
X12326075Y-14911329D01*
X12621313Y-15149424D02*
X12611789Y-15139900D01*
X12611789Y-15139900D02*
X12592741Y-15111329D01*
X12592741Y-15111329D02*
X12583218Y-15092281D01*
X12583218Y-15092281D02*
X12573694Y-15063710D01*
X12573694Y-15063710D02*
X12564170Y-15016091D01*
X12564170Y-15016091D02*
X12564170Y-14977996D01*
X12564170Y-14977996D02*
X12573694Y-14930377D01*
X12573694Y-14930377D02*
X12583218Y-14901805D01*
X12583218Y-14901805D02*
X12592741Y-14882758D01*
X12592741Y-14882758D02*
X12611789Y-14854186D01*
X12611789Y-14854186D02*
X12621313Y-14844662D01*
X12802265Y-15073234D02*
X12687979Y-15073234D01*
X12745122Y-15073234D02*
X12745122Y-14873234D01*
X12745122Y-14873234D02*
X12726075Y-14901805D01*
X12726075Y-14901805D02*
X12707027Y-14920853D01*
X12707027Y-14920853D02*
X12687979Y-14930377D01*
X12973694Y-14939900D02*
X12973694Y-15073234D01*
X12926075Y-14863710D02*
X12878456Y-15006567D01*
X12878456Y-15006567D02*
X13002265Y-15006567D01*
X13230837Y-15073234D02*
X13230837Y-14873234D01*
X13316551Y-15073234D02*
X13316551Y-14968472D01*
X13316551Y-14968472D02*
X13307027Y-14949424D01*
X13307027Y-14949424D02*
X13287980Y-14939900D01*
X13287980Y-14939900D02*
X13259408Y-14939900D01*
X13259408Y-14939900D02*
X13240360Y-14949424D01*
X13240360Y-14949424D02*
X13230837Y-14958948D01*
X13440360Y-15073234D02*
X13421313Y-15063710D01*
X13421313Y-15063710D02*
X13411789Y-15054186D01*
X13411789Y-15054186D02*
X13402265Y-15035138D01*
X13402265Y-15035138D02*
X13402265Y-14977996D01*
X13402265Y-14977996D02*
X13411789Y-14958948D01*
X13411789Y-14958948D02*
X13421313Y-14949424D01*
X13421313Y-14949424D02*
X13440360Y-14939900D01*
X13440360Y-14939900D02*
X13468932Y-14939900D01*
X13468932Y-14939900D02*
X13487980Y-14949424D01*
X13487980Y-14949424D02*
X13497503Y-14958948D01*
X13497503Y-14958948D02*
X13507027Y-14977996D01*
X13507027Y-14977996D02*
X13507027Y-15035138D01*
X13507027Y-15035138D02*
X13497503Y-15054186D01*
X13497503Y-15054186D02*
X13487980Y-15063710D01*
X13487980Y-15063710D02*
X13468932Y-15073234D01*
X13468932Y-15073234D02*
X13440360Y-15073234D01*
X13621313Y-15073234D02*
X13602265Y-15063710D01*
X13602265Y-15063710D02*
X13592741Y-15044662D01*
X13592741Y-15044662D02*
X13592741Y-14873234D01*
X13773694Y-15063710D02*
X13754646Y-15073234D01*
X13754646Y-15073234D02*
X13716551Y-15073234D01*
X13716551Y-15073234D02*
X13697503Y-15063710D01*
X13697503Y-15063710D02*
X13687980Y-15044662D01*
X13687980Y-15044662D02*
X13687980Y-14968472D01*
X13687980Y-14968472D02*
X13697503Y-14949424D01*
X13697503Y-14949424D02*
X13716551Y-14939900D01*
X13716551Y-14939900D02*
X13754646Y-14939900D01*
X13754646Y-14939900D02*
X13773694Y-14949424D01*
X13773694Y-14949424D02*
X13783218Y-14968472D01*
X13783218Y-14968472D02*
X13783218Y-14987519D01*
X13783218Y-14987519D02*
X13687980Y-15006567D01*
X13859408Y-15063710D02*
X13878456Y-15073234D01*
X13878456Y-15073234D02*
X13916551Y-15073234D01*
X13916551Y-15073234D02*
X13935599Y-15063710D01*
X13935599Y-15063710D02*
X13945122Y-15044662D01*
X13945122Y-15044662D02*
X13945122Y-15035138D01*
X13945122Y-15035138D02*
X13935599Y-15016091D01*
X13935599Y-15016091D02*
X13916551Y-15006567D01*
X13916551Y-15006567D02*
X13887980Y-15006567D01*
X13887980Y-15006567D02*
X13868932Y-14997043D01*
X13868932Y-14997043D02*
X13859408Y-14977996D01*
X13859408Y-14977996D02*
X13859408Y-14968472D01*
X13859408Y-14968472D02*
X13868932Y-14949424D01*
X13868932Y-14949424D02*
X13887980Y-14939900D01*
X13887980Y-14939900D02*
X13916551Y-14939900D01*
X13916551Y-14939900D02*
X13935599Y-14949424D01*
X14011789Y-15149424D02*
X14021313Y-15139900D01*
X14021313Y-15139900D02*
X14040361Y-15111329D01*
X14040361Y-15111329D02*
X14049884Y-15092281D01*
X14049884Y-15092281D02*
X14059408Y-15063710D01*
X14059408Y-15063710D02*
X14068932Y-15016091D01*
X14068932Y-15016091D02*
X14068932Y-14977996D01*
X14068932Y-14977996D02*
X14059408Y-14930377D01*
X14059408Y-14930377D02*
X14049884Y-14901805D01*
X14049884Y-14901805D02*
X14040361Y-14882758D01*
X14040361Y-14882758D02*
X14021313Y-14854186D01*
X14021313Y-14854186D02*
X14011789Y-14844662D01*
D12*
X9031606Y-15281106D02*
X9031606Y-15210394D01*
X8960894Y-15210394D01*
X8960894Y-15281106D01*
X9031606Y-15281106D01*
D11*
X9411789Y-15337234D02*
X9297503Y-15337234D01*
X9354646Y-15337234D02*
X9354646Y-15137234D01*
X9354646Y-15137234D02*
X9335598Y-15165805D01*
X9335598Y-15165805D02*
X9316551Y-15184853D01*
X9316551Y-15184853D02*
X9297503Y-15194377D01*
X9497503Y-15318186D02*
X9507027Y-15327710D01*
X9507027Y-15327710D02*
X9497503Y-15337234D01*
X9497503Y-15337234D02*
X9487979Y-15327710D01*
X9487979Y-15327710D02*
X9497503Y-15318186D01*
X9497503Y-15318186D02*
X9497503Y-15337234D01*
X9630836Y-15137234D02*
X9649884Y-15137234D01*
X9649884Y-15137234D02*
X9668932Y-15146758D01*
X9668932Y-15146758D02*
X9678455Y-15156281D01*
X9678455Y-15156281D02*
X9687979Y-15175329D01*
X9687979Y-15175329D02*
X9697503Y-15213424D01*
X9697503Y-15213424D02*
X9697503Y-15261043D01*
X9697503Y-15261043D02*
X9687979Y-15299138D01*
X9687979Y-15299138D02*
X9678455Y-15318186D01*
X9678455Y-15318186D02*
X9668932Y-15327710D01*
X9668932Y-15327710D02*
X9649884Y-15337234D01*
X9649884Y-15337234D02*
X9630836Y-15337234D01*
X9630836Y-15337234D02*
X9611789Y-15327710D01*
X9611789Y-15327710D02*
X9602265Y-15318186D01*
X9602265Y-15318186D02*
X9592741Y-15299138D01*
X9592741Y-15299138D02*
X9583217Y-15261043D01*
X9583217Y-15261043D02*
X9583217Y-15213424D01*
X9583217Y-15213424D02*
X9592741Y-15175329D01*
X9592741Y-15175329D02*
X9602265Y-15156281D01*
X9602265Y-15156281D02*
X9611789Y-15146758D01*
X9611789Y-15146758D02*
X9630836Y-15137234D01*
X9821313Y-15137234D02*
X9840360Y-15137234D01*
X9840360Y-15137234D02*
X9859408Y-15146758D01*
X9859408Y-15146758D02*
X9868932Y-15156281D01*
X9868932Y-15156281D02*
X9878455Y-15175329D01*
X9878455Y-15175329D02*
X9887979Y-15213424D01*
X9887979Y-15213424D02*
X9887979Y-15261043D01*
X9887979Y-15261043D02*
X9878455Y-15299138D01*
X9878455Y-15299138D02*
X9868932Y-15318186D01*
X9868932Y-15318186D02*
X9859408Y-15327710D01*
X9859408Y-15327710D02*
X9840360Y-15337234D01*
X9840360Y-15337234D02*
X9821313Y-15337234D01*
X9821313Y-15337234D02*
X9802265Y-15327710D01*
X9802265Y-15327710D02*
X9792741Y-15318186D01*
X9792741Y-15318186D02*
X9783217Y-15299138D01*
X9783217Y-15299138D02*
X9773694Y-15261043D01*
X9773694Y-15261043D02*
X9773694Y-15213424D01*
X9773694Y-15213424D02*
X9783217Y-15175329D01*
X9783217Y-15175329D02*
X9792741Y-15156281D01*
X9792741Y-15156281D02*
X9802265Y-15146758D01*
X9802265Y-15146758D02*
X9821313Y-15137234D01*
X10011789Y-15137234D02*
X10030836Y-15137234D01*
X10030836Y-15137234D02*
X10049884Y-15146758D01*
X10049884Y-15146758D02*
X10059408Y-15156281D01*
X10059408Y-15156281D02*
X10068932Y-15175329D01*
X10068932Y-15175329D02*
X10078455Y-15213424D01*
X10078455Y-15213424D02*
X10078455Y-15261043D01*
X10078455Y-15261043D02*
X10068932Y-15299138D01*
X10068932Y-15299138D02*
X10059408Y-15318186D01*
X10059408Y-15318186D02*
X10049884Y-15327710D01*
X10049884Y-15327710D02*
X10030836Y-15337234D01*
X10030836Y-15337234D02*
X10011789Y-15337234D01*
X10011789Y-15337234D02*
X9992741Y-15327710D01*
X9992741Y-15327710D02*
X9983217Y-15318186D01*
X9983217Y-15318186D02*
X9973694Y-15299138D01*
X9973694Y-15299138D02*
X9964170Y-15261043D01*
X9964170Y-15261043D02*
X9964170Y-15213424D01*
X9964170Y-15213424D02*
X9973694Y-15175329D01*
X9973694Y-15175329D02*
X9983217Y-15156281D01*
X9983217Y-15156281D02*
X9992741Y-15146758D01*
X9992741Y-15146758D02*
X10011789Y-15137234D01*
X10164170Y-15337234D02*
X10164170Y-15203900D01*
X10164170Y-15222948D02*
X10173694Y-15213424D01*
X10173694Y-15213424D02*
X10192741Y-15203900D01*
X10192741Y-15203900D02*
X10221313Y-15203900D01*
X10221313Y-15203900D02*
X10240360Y-15213424D01*
X10240360Y-15213424D02*
X10249884Y-15232472D01*
X10249884Y-15232472D02*
X10249884Y-15337234D01*
X10249884Y-15232472D02*
X10259408Y-15213424D01*
X10259408Y-15213424D02*
X10278455Y-15203900D01*
X10278455Y-15203900D02*
X10307027Y-15203900D01*
X10307027Y-15203900D02*
X10326075Y-15213424D01*
X10326075Y-15213424D02*
X10335598Y-15232472D01*
X10335598Y-15232472D02*
X10335598Y-15337234D01*
X10430836Y-15337234D02*
X10430836Y-15203900D01*
X10430836Y-15222948D02*
X10440360Y-15213424D01*
X10440360Y-15213424D02*
X10459408Y-15203900D01*
X10459408Y-15203900D02*
X10487979Y-15203900D01*
X10487979Y-15203900D02*
X10507027Y-15213424D01*
X10507027Y-15213424D02*
X10516551Y-15232472D01*
X10516551Y-15232472D02*
X10516551Y-15337234D01*
X10516551Y-15232472D02*
X10526075Y-15213424D01*
X10526075Y-15213424D02*
X10545122Y-15203900D01*
X10545122Y-15203900D02*
X10573694Y-15203900D01*
X10573694Y-15203900D02*
X10592741Y-15213424D01*
X10592741Y-15213424D02*
X10602265Y-15232472D01*
X10602265Y-15232472D02*
X10602265Y-15337234D01*
X10992741Y-15127710D02*
X10821313Y-15384853D01*
X11249884Y-15137234D02*
X11268932Y-15137234D01*
X11268932Y-15137234D02*
X11287979Y-15146758D01*
X11287979Y-15146758D02*
X11297503Y-15156281D01*
X11297503Y-15156281D02*
X11307027Y-15175329D01*
X11307027Y-15175329D02*
X11316551Y-15213424D01*
X11316551Y-15213424D02*
X11316551Y-15261043D01*
X11316551Y-15261043D02*
X11307027Y-15299138D01*
X11307027Y-15299138D02*
X11297503Y-15318186D01*
X11297503Y-15318186D02*
X11287979Y-15327710D01*
X11287979Y-15327710D02*
X11268932Y-15337234D01*
X11268932Y-15337234D02*
X11249884Y-15337234D01*
X11249884Y-15337234D02*
X11230836Y-15327710D01*
X11230836Y-15327710D02*
X11221313Y-15318186D01*
X11221313Y-15318186D02*
X11211789Y-15299138D01*
X11211789Y-15299138D02*
X11202265Y-15261043D01*
X11202265Y-15261043D02*
X11202265Y-15213424D01*
X11202265Y-15213424D02*
X11211789Y-15175329D01*
X11211789Y-15175329D02*
X11221313Y-15156281D01*
X11221313Y-15156281D02*
X11230836Y-15146758D01*
X11230836Y-15146758D02*
X11249884Y-15137234D01*
X11402265Y-15318186D02*
X11411789Y-15327710D01*
X11411789Y-15327710D02*
X11402265Y-15337234D01*
X11402265Y-15337234D02*
X11392741Y-15327710D01*
X11392741Y-15327710D02*
X11402265Y-15318186D01*
X11402265Y-15318186D02*
X11402265Y-15337234D01*
X11535598Y-15137234D02*
X11554646Y-15137234D01*
X11554646Y-15137234D02*
X11573694Y-15146758D01*
X11573694Y-15146758D02*
X11583217Y-15156281D01*
X11583217Y-15156281D02*
X11592741Y-15175329D01*
X11592741Y-15175329D02*
X11602265Y-15213424D01*
X11602265Y-15213424D02*
X11602265Y-15261043D01*
X11602265Y-15261043D02*
X11592741Y-15299138D01*
X11592741Y-15299138D02*
X11583217Y-15318186D01*
X11583217Y-15318186D02*
X11573694Y-15327710D01*
X11573694Y-15327710D02*
X11554646Y-15337234D01*
X11554646Y-15337234D02*
X11535598Y-15337234D01*
X11535598Y-15337234D02*
X11516551Y-15327710D01*
X11516551Y-15327710D02*
X11507027Y-15318186D01*
X11507027Y-15318186D02*
X11497503Y-15299138D01*
X11497503Y-15299138D02*
X11487979Y-15261043D01*
X11487979Y-15261043D02*
X11487979Y-15213424D01*
X11487979Y-15213424D02*
X11497503Y-15175329D01*
X11497503Y-15175329D02*
X11507027Y-15156281D01*
X11507027Y-15156281D02*
X11516551Y-15146758D01*
X11516551Y-15146758D02*
X11535598Y-15137234D01*
X11668932Y-15137234D02*
X11792741Y-15137234D01*
X11792741Y-15137234D02*
X11726075Y-15213424D01*
X11726075Y-15213424D02*
X11754646Y-15213424D01*
X11754646Y-15213424D02*
X11773694Y-15222948D01*
X11773694Y-15222948D02*
X11783217Y-15232472D01*
X11783217Y-15232472D02*
X11792741Y-15251519D01*
X11792741Y-15251519D02*
X11792741Y-15299138D01*
X11792741Y-15299138D02*
X11783217Y-15318186D01*
X11783217Y-15318186D02*
X11773694Y-15327710D01*
X11773694Y-15327710D02*
X11754646Y-15337234D01*
X11754646Y-15337234D02*
X11697503Y-15337234D01*
X11697503Y-15337234D02*
X11678456Y-15327710D01*
X11678456Y-15327710D02*
X11668932Y-15318186D01*
X11887979Y-15337234D02*
X11926075Y-15337234D01*
X11926075Y-15337234D02*
X11945122Y-15327710D01*
X11945122Y-15327710D02*
X11954646Y-15318186D01*
X11954646Y-15318186D02*
X11973694Y-15289615D01*
X11973694Y-15289615D02*
X11983217Y-15251519D01*
X11983217Y-15251519D02*
X11983217Y-15175329D01*
X11983217Y-15175329D02*
X11973694Y-15156281D01*
X11973694Y-15156281D02*
X11964170Y-15146758D01*
X11964170Y-15146758D02*
X11945122Y-15137234D01*
X11945122Y-15137234D02*
X11907027Y-15137234D01*
X11907027Y-15137234D02*
X11887979Y-15146758D01*
X11887979Y-15146758D02*
X11878456Y-15156281D01*
X11878456Y-15156281D02*
X11868932Y-15175329D01*
X11868932Y-15175329D02*
X11868932Y-15222948D01*
X11868932Y-15222948D02*
X11878456Y-15241996D01*
X11878456Y-15241996D02*
X11887979Y-15251519D01*
X11887979Y-15251519D02*
X11907027Y-15261043D01*
X11907027Y-15261043D02*
X11945122Y-15261043D01*
X11945122Y-15261043D02*
X11964170Y-15251519D01*
X11964170Y-15251519D02*
X11973694Y-15241996D01*
X11973694Y-15241996D02*
X11983217Y-15222948D01*
X12154646Y-15203900D02*
X12154646Y-15337234D01*
X12107027Y-15127710D02*
X12059408Y-15270567D01*
X12059408Y-15270567D02*
X12183217Y-15270567D01*
X12249884Y-15137234D02*
X12249884Y-15175329D01*
X12326075Y-15137234D02*
X12326075Y-15175329D01*
X12621313Y-15413424D02*
X12611789Y-15403900D01*
X12611789Y-15403900D02*
X12592741Y-15375329D01*
X12592741Y-15375329D02*
X12583218Y-15356281D01*
X12583218Y-15356281D02*
X12573694Y-15327710D01*
X12573694Y-15327710D02*
X12564170Y-15280091D01*
X12564170Y-15280091D02*
X12564170Y-15241996D01*
X12564170Y-15241996D02*
X12573694Y-15194377D01*
X12573694Y-15194377D02*
X12583218Y-15165805D01*
X12583218Y-15165805D02*
X12592741Y-15146758D01*
X12592741Y-15146758D02*
X12611789Y-15118186D01*
X12611789Y-15118186D02*
X12621313Y-15108662D01*
X12707027Y-15337234D02*
X12745122Y-15337234D01*
X12745122Y-15337234D02*
X12764170Y-15327710D01*
X12764170Y-15327710D02*
X12773694Y-15318186D01*
X12773694Y-15318186D02*
X12792741Y-15289615D01*
X12792741Y-15289615D02*
X12802265Y-15251519D01*
X12802265Y-15251519D02*
X12802265Y-15175329D01*
X12802265Y-15175329D02*
X12792741Y-15156281D01*
X12792741Y-15156281D02*
X12783218Y-15146758D01*
X12783218Y-15146758D02*
X12764170Y-15137234D01*
X12764170Y-15137234D02*
X12726075Y-15137234D01*
X12726075Y-15137234D02*
X12707027Y-15146758D01*
X12707027Y-15146758D02*
X12697503Y-15156281D01*
X12697503Y-15156281D02*
X12687979Y-15175329D01*
X12687979Y-15175329D02*
X12687979Y-15222948D01*
X12687979Y-15222948D02*
X12697503Y-15241996D01*
X12697503Y-15241996D02*
X12707027Y-15251519D01*
X12707027Y-15251519D02*
X12726075Y-15261043D01*
X12726075Y-15261043D02*
X12764170Y-15261043D01*
X12764170Y-15261043D02*
X12783218Y-15251519D01*
X12783218Y-15251519D02*
X12792741Y-15241996D01*
X12792741Y-15241996D02*
X12802265Y-15222948D01*
X13040360Y-15337234D02*
X13040360Y-15137234D01*
X13126075Y-15337234D02*
X13126075Y-15232472D01*
X13126075Y-15232472D02*
X13116551Y-15213424D01*
X13116551Y-15213424D02*
X13097503Y-15203900D01*
X13097503Y-15203900D02*
X13068932Y-15203900D01*
X13068932Y-15203900D02*
X13049884Y-15213424D01*
X13049884Y-15213424D02*
X13040360Y-15222948D01*
X13249884Y-15337234D02*
X13230837Y-15327710D01*
X13230837Y-15327710D02*
X13221313Y-15318186D01*
X13221313Y-15318186D02*
X13211789Y-15299138D01*
X13211789Y-15299138D02*
X13211789Y-15241996D01*
X13211789Y-15241996D02*
X13221313Y-15222948D01*
X13221313Y-15222948D02*
X13230837Y-15213424D01*
X13230837Y-15213424D02*
X13249884Y-15203900D01*
X13249884Y-15203900D02*
X13278456Y-15203900D01*
X13278456Y-15203900D02*
X13297503Y-15213424D01*
X13297503Y-15213424D02*
X13307027Y-15222948D01*
X13307027Y-15222948D02*
X13316551Y-15241996D01*
X13316551Y-15241996D02*
X13316551Y-15299138D01*
X13316551Y-15299138D02*
X13307027Y-15318186D01*
X13307027Y-15318186D02*
X13297503Y-15327710D01*
X13297503Y-15327710D02*
X13278456Y-15337234D01*
X13278456Y-15337234D02*
X13249884Y-15337234D01*
X13430837Y-15337234D02*
X13411789Y-15327710D01*
X13411789Y-15327710D02*
X13402265Y-15308662D01*
X13402265Y-15308662D02*
X13402265Y-15137234D01*
X13583218Y-15327710D02*
X13564170Y-15337234D01*
X13564170Y-15337234D02*
X13526075Y-15337234D01*
X13526075Y-15337234D02*
X13507027Y-15327710D01*
X13507027Y-15327710D02*
X13497503Y-15308662D01*
X13497503Y-15308662D02*
X13497503Y-15232472D01*
X13497503Y-15232472D02*
X13507027Y-15213424D01*
X13507027Y-15213424D02*
X13526075Y-15203900D01*
X13526075Y-15203900D02*
X13564170Y-15203900D01*
X13564170Y-15203900D02*
X13583218Y-15213424D01*
X13583218Y-15213424D02*
X13592741Y-15232472D01*
X13592741Y-15232472D02*
X13592741Y-15251519D01*
X13592741Y-15251519D02*
X13497503Y-15270567D01*
X13668932Y-15327710D02*
X13687980Y-15337234D01*
X13687980Y-15337234D02*
X13726075Y-15337234D01*
X13726075Y-15337234D02*
X13745122Y-15327710D01*
X13745122Y-15327710D02*
X13754646Y-15308662D01*
X13754646Y-15308662D02*
X13754646Y-15299138D01*
X13754646Y-15299138D02*
X13745122Y-15280091D01*
X13745122Y-15280091D02*
X13726075Y-15270567D01*
X13726075Y-15270567D02*
X13697503Y-15270567D01*
X13697503Y-15270567D02*
X13678456Y-15261043D01*
X13678456Y-15261043D02*
X13668932Y-15241996D01*
X13668932Y-15241996D02*
X13668932Y-15232472D01*
X13668932Y-15232472D02*
X13678456Y-15213424D01*
X13678456Y-15213424D02*
X13697503Y-15203900D01*
X13697503Y-15203900D02*
X13726075Y-15203900D01*
X13726075Y-15203900D02*
X13745122Y-15213424D01*
X13821313Y-15413424D02*
X13830837Y-15403900D01*
X13830837Y-15403900D02*
X13849884Y-15375329D01*
X13849884Y-15375329D02*
X13859408Y-15356281D01*
X13859408Y-15356281D02*
X13868932Y-15327710D01*
X13868932Y-15327710D02*
X13878456Y-15280091D01*
X13878456Y-15280091D02*
X13878456Y-15241996D01*
X13878456Y-15241996D02*
X13868932Y-15194377D01*
X13868932Y-15194377D02*
X13859408Y-15165805D01*
X13859408Y-15165805D02*
X13849884Y-15146758D01*
X13849884Y-15146758D02*
X13830837Y-15118186D01*
X13830837Y-15118186D02*
X13821313Y-15108662D01*
D13*
X8971250Y-15584750D02*
X9046250Y-15509750D01*
X8971250Y-15434750D01*
X8896250Y-15509750D01*
X8971250Y-15584750D01*
D11*
X9411789Y-15601234D02*
X9297503Y-15601234D01*
X9354646Y-15601234D02*
X9354646Y-15401234D01*
X9354646Y-15401234D02*
X9335598Y-15429805D01*
X9335598Y-15429805D02*
X9316551Y-15448853D01*
X9316551Y-15448853D02*
X9297503Y-15458377D01*
X9497503Y-15582186D02*
X9507027Y-15591710D01*
X9507027Y-15591710D02*
X9497503Y-15601234D01*
X9497503Y-15601234D02*
X9487979Y-15591710D01*
X9487979Y-15591710D02*
X9497503Y-15582186D01*
X9497503Y-15582186D02*
X9497503Y-15601234D01*
X9687979Y-15401234D02*
X9592741Y-15401234D01*
X9592741Y-15401234D02*
X9583217Y-15496472D01*
X9583217Y-15496472D02*
X9592741Y-15486948D01*
X9592741Y-15486948D02*
X9611789Y-15477424D01*
X9611789Y-15477424D02*
X9659408Y-15477424D01*
X9659408Y-15477424D02*
X9678455Y-15486948D01*
X9678455Y-15486948D02*
X9687979Y-15496472D01*
X9687979Y-15496472D02*
X9697503Y-15515519D01*
X9697503Y-15515519D02*
X9697503Y-15563138D01*
X9697503Y-15563138D02*
X9687979Y-15582186D01*
X9687979Y-15582186D02*
X9678455Y-15591710D01*
X9678455Y-15591710D02*
X9659408Y-15601234D01*
X9659408Y-15601234D02*
X9611789Y-15601234D01*
X9611789Y-15601234D02*
X9592741Y-15591710D01*
X9592741Y-15591710D02*
X9583217Y-15582186D01*
X9821313Y-15401234D02*
X9840360Y-15401234D01*
X9840360Y-15401234D02*
X9859408Y-15410758D01*
X9859408Y-15410758D02*
X9868932Y-15420281D01*
X9868932Y-15420281D02*
X9878455Y-15439329D01*
X9878455Y-15439329D02*
X9887979Y-15477424D01*
X9887979Y-15477424D02*
X9887979Y-15525043D01*
X9887979Y-15525043D02*
X9878455Y-15563138D01*
X9878455Y-15563138D02*
X9868932Y-15582186D01*
X9868932Y-15582186D02*
X9859408Y-15591710D01*
X9859408Y-15591710D02*
X9840360Y-15601234D01*
X9840360Y-15601234D02*
X9821313Y-15601234D01*
X9821313Y-15601234D02*
X9802265Y-15591710D01*
X9802265Y-15591710D02*
X9792741Y-15582186D01*
X9792741Y-15582186D02*
X9783217Y-15563138D01*
X9783217Y-15563138D02*
X9773694Y-15525043D01*
X9773694Y-15525043D02*
X9773694Y-15477424D01*
X9773694Y-15477424D02*
X9783217Y-15439329D01*
X9783217Y-15439329D02*
X9792741Y-15420281D01*
X9792741Y-15420281D02*
X9802265Y-15410758D01*
X9802265Y-15410758D02*
X9821313Y-15401234D01*
X10011789Y-15401234D02*
X10030836Y-15401234D01*
X10030836Y-15401234D02*
X10049884Y-15410758D01*
X10049884Y-15410758D02*
X10059408Y-15420281D01*
X10059408Y-15420281D02*
X10068932Y-15439329D01*
X10068932Y-15439329D02*
X10078455Y-15477424D01*
X10078455Y-15477424D02*
X10078455Y-15525043D01*
X10078455Y-15525043D02*
X10068932Y-15563138D01*
X10068932Y-15563138D02*
X10059408Y-15582186D01*
X10059408Y-15582186D02*
X10049884Y-15591710D01*
X10049884Y-15591710D02*
X10030836Y-15601234D01*
X10030836Y-15601234D02*
X10011789Y-15601234D01*
X10011789Y-15601234D02*
X9992741Y-15591710D01*
X9992741Y-15591710D02*
X9983217Y-15582186D01*
X9983217Y-15582186D02*
X9973694Y-15563138D01*
X9973694Y-15563138D02*
X9964170Y-15525043D01*
X9964170Y-15525043D02*
X9964170Y-15477424D01*
X9964170Y-15477424D02*
X9973694Y-15439329D01*
X9973694Y-15439329D02*
X9983217Y-15420281D01*
X9983217Y-15420281D02*
X9992741Y-15410758D01*
X9992741Y-15410758D02*
X10011789Y-15401234D01*
X10164170Y-15601234D02*
X10164170Y-15467900D01*
X10164170Y-15486948D02*
X10173694Y-15477424D01*
X10173694Y-15477424D02*
X10192741Y-15467900D01*
X10192741Y-15467900D02*
X10221313Y-15467900D01*
X10221313Y-15467900D02*
X10240360Y-15477424D01*
X10240360Y-15477424D02*
X10249884Y-15496472D01*
X10249884Y-15496472D02*
X10249884Y-15601234D01*
X10249884Y-15496472D02*
X10259408Y-15477424D01*
X10259408Y-15477424D02*
X10278455Y-15467900D01*
X10278455Y-15467900D02*
X10307027Y-15467900D01*
X10307027Y-15467900D02*
X10326075Y-15477424D01*
X10326075Y-15477424D02*
X10335598Y-15496472D01*
X10335598Y-15496472D02*
X10335598Y-15601234D01*
X10430836Y-15601234D02*
X10430836Y-15467900D01*
X10430836Y-15486948D02*
X10440360Y-15477424D01*
X10440360Y-15477424D02*
X10459408Y-15467900D01*
X10459408Y-15467900D02*
X10487979Y-15467900D01*
X10487979Y-15467900D02*
X10507027Y-15477424D01*
X10507027Y-15477424D02*
X10516551Y-15496472D01*
X10516551Y-15496472D02*
X10516551Y-15601234D01*
X10516551Y-15496472D02*
X10526075Y-15477424D01*
X10526075Y-15477424D02*
X10545122Y-15467900D01*
X10545122Y-15467900D02*
X10573694Y-15467900D01*
X10573694Y-15467900D02*
X10592741Y-15477424D01*
X10592741Y-15477424D02*
X10602265Y-15496472D01*
X10602265Y-15496472D02*
X10602265Y-15601234D01*
X10992741Y-15391710D02*
X10821313Y-15648853D01*
X11249884Y-15401234D02*
X11268932Y-15401234D01*
X11268932Y-15401234D02*
X11287979Y-15410758D01*
X11287979Y-15410758D02*
X11297503Y-15420281D01*
X11297503Y-15420281D02*
X11307027Y-15439329D01*
X11307027Y-15439329D02*
X11316551Y-15477424D01*
X11316551Y-15477424D02*
X11316551Y-15525043D01*
X11316551Y-15525043D02*
X11307027Y-15563138D01*
X11307027Y-15563138D02*
X11297503Y-15582186D01*
X11297503Y-15582186D02*
X11287979Y-15591710D01*
X11287979Y-15591710D02*
X11268932Y-15601234D01*
X11268932Y-15601234D02*
X11249884Y-15601234D01*
X11249884Y-15601234D02*
X11230836Y-15591710D01*
X11230836Y-15591710D02*
X11221313Y-15582186D01*
X11221313Y-15582186D02*
X11211789Y-15563138D01*
X11211789Y-15563138D02*
X11202265Y-15525043D01*
X11202265Y-15525043D02*
X11202265Y-15477424D01*
X11202265Y-15477424D02*
X11211789Y-15439329D01*
X11211789Y-15439329D02*
X11221313Y-15420281D01*
X11221313Y-15420281D02*
X11230836Y-15410758D01*
X11230836Y-15410758D02*
X11249884Y-15401234D01*
X11402265Y-15582186D02*
X11411789Y-15591710D01*
X11411789Y-15591710D02*
X11402265Y-15601234D01*
X11402265Y-15601234D02*
X11392741Y-15591710D01*
X11392741Y-15591710D02*
X11402265Y-15582186D01*
X11402265Y-15582186D02*
X11402265Y-15601234D01*
X11535598Y-15401234D02*
X11554646Y-15401234D01*
X11554646Y-15401234D02*
X11573694Y-15410758D01*
X11573694Y-15410758D02*
X11583217Y-15420281D01*
X11583217Y-15420281D02*
X11592741Y-15439329D01*
X11592741Y-15439329D02*
X11602265Y-15477424D01*
X11602265Y-15477424D02*
X11602265Y-15525043D01*
X11602265Y-15525043D02*
X11592741Y-15563138D01*
X11592741Y-15563138D02*
X11583217Y-15582186D01*
X11583217Y-15582186D02*
X11573694Y-15591710D01*
X11573694Y-15591710D02*
X11554646Y-15601234D01*
X11554646Y-15601234D02*
X11535598Y-15601234D01*
X11535598Y-15601234D02*
X11516551Y-15591710D01*
X11516551Y-15591710D02*
X11507027Y-15582186D01*
X11507027Y-15582186D02*
X11497503Y-15563138D01*
X11497503Y-15563138D02*
X11487979Y-15525043D01*
X11487979Y-15525043D02*
X11487979Y-15477424D01*
X11487979Y-15477424D02*
X11497503Y-15439329D01*
X11497503Y-15439329D02*
X11507027Y-15420281D01*
X11507027Y-15420281D02*
X11516551Y-15410758D01*
X11516551Y-15410758D02*
X11535598Y-15401234D01*
X11783217Y-15401234D02*
X11687979Y-15401234D01*
X11687979Y-15401234D02*
X11678456Y-15496472D01*
X11678456Y-15496472D02*
X11687979Y-15486948D01*
X11687979Y-15486948D02*
X11707027Y-15477424D01*
X11707027Y-15477424D02*
X11754646Y-15477424D01*
X11754646Y-15477424D02*
X11773694Y-15486948D01*
X11773694Y-15486948D02*
X11783217Y-15496472D01*
X11783217Y-15496472D02*
X11792741Y-15515519D01*
X11792741Y-15515519D02*
X11792741Y-15563138D01*
X11792741Y-15563138D02*
X11783217Y-15582186D01*
X11783217Y-15582186D02*
X11773694Y-15591710D01*
X11773694Y-15591710D02*
X11754646Y-15601234D01*
X11754646Y-15601234D02*
X11707027Y-15601234D01*
X11707027Y-15601234D02*
X11687979Y-15591710D01*
X11687979Y-15591710D02*
X11678456Y-15582186D01*
X11887979Y-15601234D02*
X11926075Y-15601234D01*
X11926075Y-15601234D02*
X11945122Y-15591710D01*
X11945122Y-15591710D02*
X11954646Y-15582186D01*
X11954646Y-15582186D02*
X11973694Y-15553615D01*
X11973694Y-15553615D02*
X11983217Y-15515519D01*
X11983217Y-15515519D02*
X11983217Y-15439329D01*
X11983217Y-15439329D02*
X11973694Y-15420281D01*
X11973694Y-15420281D02*
X11964170Y-15410758D01*
X11964170Y-15410758D02*
X11945122Y-15401234D01*
X11945122Y-15401234D02*
X11907027Y-15401234D01*
X11907027Y-15401234D02*
X11887979Y-15410758D01*
X11887979Y-15410758D02*
X11878456Y-15420281D01*
X11878456Y-15420281D02*
X11868932Y-15439329D01*
X11868932Y-15439329D02*
X11868932Y-15486948D01*
X11868932Y-15486948D02*
X11878456Y-15505996D01*
X11878456Y-15505996D02*
X11887979Y-15515519D01*
X11887979Y-15515519D02*
X11907027Y-15525043D01*
X11907027Y-15525043D02*
X11945122Y-15525043D01*
X11945122Y-15525043D02*
X11964170Y-15515519D01*
X11964170Y-15515519D02*
X11973694Y-15505996D01*
X11973694Y-15505996D02*
X11983217Y-15486948D01*
X12173694Y-15601234D02*
X12059408Y-15601234D01*
X12116551Y-15601234D02*
X12116551Y-15401234D01*
X12116551Y-15401234D02*
X12097503Y-15429805D01*
X12097503Y-15429805D02*
X12078456Y-15448853D01*
X12078456Y-15448853D02*
X12059408Y-15458377D01*
X12249884Y-15401234D02*
X12249884Y-15439329D01*
X12326075Y-15401234D02*
X12326075Y-15439329D01*
X12621313Y-15677424D02*
X12611789Y-15667900D01*
X12611789Y-15667900D02*
X12592741Y-15639329D01*
X12592741Y-15639329D02*
X12583218Y-15620281D01*
X12583218Y-15620281D02*
X12573694Y-15591710D01*
X12573694Y-15591710D02*
X12564170Y-15544091D01*
X12564170Y-15544091D02*
X12564170Y-15505996D01*
X12564170Y-15505996D02*
X12573694Y-15458377D01*
X12573694Y-15458377D02*
X12583218Y-15429805D01*
X12583218Y-15429805D02*
X12592741Y-15410758D01*
X12592741Y-15410758D02*
X12611789Y-15382186D01*
X12611789Y-15382186D02*
X12621313Y-15372662D01*
X12802265Y-15601234D02*
X12687979Y-15601234D01*
X12745122Y-15601234D02*
X12745122Y-15401234D01*
X12745122Y-15401234D02*
X12726075Y-15429805D01*
X12726075Y-15429805D02*
X12707027Y-15448853D01*
X12707027Y-15448853D02*
X12687979Y-15458377D01*
X12973694Y-15401234D02*
X12935598Y-15401234D01*
X12935598Y-15401234D02*
X12916551Y-15410758D01*
X12916551Y-15410758D02*
X12907027Y-15420281D01*
X12907027Y-15420281D02*
X12887979Y-15448853D01*
X12887979Y-15448853D02*
X12878456Y-15486948D01*
X12878456Y-15486948D02*
X12878456Y-15563138D01*
X12878456Y-15563138D02*
X12887979Y-15582186D01*
X12887979Y-15582186D02*
X12897503Y-15591710D01*
X12897503Y-15591710D02*
X12916551Y-15601234D01*
X12916551Y-15601234D02*
X12954646Y-15601234D01*
X12954646Y-15601234D02*
X12973694Y-15591710D01*
X12973694Y-15591710D02*
X12983218Y-15582186D01*
X12983218Y-15582186D02*
X12992741Y-15563138D01*
X12992741Y-15563138D02*
X12992741Y-15515519D01*
X12992741Y-15515519D02*
X12983218Y-15496472D01*
X12983218Y-15496472D02*
X12973694Y-15486948D01*
X12973694Y-15486948D02*
X12954646Y-15477424D01*
X12954646Y-15477424D02*
X12916551Y-15477424D01*
X12916551Y-15477424D02*
X12897503Y-15486948D01*
X12897503Y-15486948D02*
X12887979Y-15496472D01*
X12887979Y-15496472D02*
X12878456Y-15515519D01*
X13230837Y-15601234D02*
X13230837Y-15401234D01*
X13316551Y-15601234D02*
X13316551Y-15496472D01*
X13316551Y-15496472D02*
X13307027Y-15477424D01*
X13307027Y-15477424D02*
X13287980Y-15467900D01*
X13287980Y-15467900D02*
X13259408Y-15467900D01*
X13259408Y-15467900D02*
X13240360Y-15477424D01*
X13240360Y-15477424D02*
X13230837Y-15486948D01*
X13440360Y-15601234D02*
X13421313Y-15591710D01*
X13421313Y-15591710D02*
X13411789Y-15582186D01*
X13411789Y-15582186D02*
X13402265Y-15563138D01*
X13402265Y-15563138D02*
X13402265Y-15505996D01*
X13402265Y-15505996D02*
X13411789Y-15486948D01*
X13411789Y-15486948D02*
X13421313Y-15477424D01*
X13421313Y-15477424D02*
X13440360Y-15467900D01*
X13440360Y-15467900D02*
X13468932Y-15467900D01*
X13468932Y-15467900D02*
X13487980Y-15477424D01*
X13487980Y-15477424D02*
X13497503Y-15486948D01*
X13497503Y-15486948D02*
X13507027Y-15505996D01*
X13507027Y-15505996D02*
X13507027Y-15563138D01*
X13507027Y-15563138D02*
X13497503Y-15582186D01*
X13497503Y-15582186D02*
X13487980Y-15591710D01*
X13487980Y-15591710D02*
X13468932Y-15601234D01*
X13468932Y-15601234D02*
X13440360Y-15601234D01*
X13621313Y-15601234D02*
X13602265Y-15591710D01*
X13602265Y-15591710D02*
X13592741Y-15572662D01*
X13592741Y-15572662D02*
X13592741Y-15401234D01*
X13773694Y-15591710D02*
X13754646Y-15601234D01*
X13754646Y-15601234D02*
X13716551Y-15601234D01*
X13716551Y-15601234D02*
X13697503Y-15591710D01*
X13697503Y-15591710D02*
X13687980Y-15572662D01*
X13687980Y-15572662D02*
X13687980Y-15496472D01*
X13687980Y-15496472D02*
X13697503Y-15477424D01*
X13697503Y-15477424D02*
X13716551Y-15467900D01*
X13716551Y-15467900D02*
X13754646Y-15467900D01*
X13754646Y-15467900D02*
X13773694Y-15477424D01*
X13773694Y-15477424D02*
X13783218Y-15496472D01*
X13783218Y-15496472D02*
X13783218Y-15515519D01*
X13783218Y-15515519D02*
X13687980Y-15534567D01*
X13859408Y-15591710D02*
X13878456Y-15601234D01*
X13878456Y-15601234D02*
X13916551Y-15601234D01*
X13916551Y-15601234D02*
X13935599Y-15591710D01*
X13935599Y-15591710D02*
X13945122Y-15572662D01*
X13945122Y-15572662D02*
X13945122Y-15563138D01*
X13945122Y-15563138D02*
X13935599Y-15544091D01*
X13935599Y-15544091D02*
X13916551Y-15534567D01*
X13916551Y-15534567D02*
X13887980Y-15534567D01*
X13887980Y-15534567D02*
X13868932Y-15525043D01*
X13868932Y-15525043D02*
X13859408Y-15505996D01*
X13859408Y-15505996D02*
X13859408Y-15496472D01*
X13859408Y-15496472D02*
X13868932Y-15477424D01*
X13868932Y-15477424D02*
X13887980Y-15467900D01*
X13887980Y-15467900D02*
X13916551Y-15467900D01*
X13916551Y-15467900D02*
X13935599Y-15477424D01*
X14183218Y-15525043D02*
X14335599Y-15525043D01*
X14259408Y-15601234D02*
X14259408Y-15448853D01*
X14573694Y-15420281D02*
X14583218Y-15410758D01*
X14583218Y-15410758D02*
X14602265Y-15401234D01*
X14602265Y-15401234D02*
X14649884Y-15401234D01*
X14649884Y-15401234D02*
X14668932Y-15410758D01*
X14668932Y-15410758D02*
X14678456Y-15420281D01*
X14678456Y-15420281D02*
X14687980Y-15439329D01*
X14687980Y-15439329D02*
X14687980Y-15458377D01*
X14687980Y-15458377D02*
X14678456Y-15486948D01*
X14678456Y-15486948D02*
X14564170Y-15601234D01*
X14564170Y-15601234D02*
X14687980Y-15601234D01*
X14916551Y-15591710D02*
X14935599Y-15601234D01*
X14935599Y-15601234D02*
X14973694Y-15601234D01*
X14973694Y-15601234D02*
X14992742Y-15591710D01*
X14992742Y-15591710D02*
X15002265Y-15572662D01*
X15002265Y-15572662D02*
X15002265Y-15563138D01*
X15002265Y-15563138D02*
X14992742Y-15544091D01*
X14992742Y-15544091D02*
X14973694Y-15534567D01*
X14973694Y-15534567D02*
X14945123Y-15534567D01*
X14945123Y-15534567D02*
X14926075Y-15525043D01*
X14926075Y-15525043D02*
X14916551Y-15505996D01*
X14916551Y-15505996D02*
X14916551Y-15496472D01*
X14916551Y-15496472D02*
X14926075Y-15477424D01*
X14926075Y-15477424D02*
X14945123Y-15467900D01*
X14945123Y-15467900D02*
X14973694Y-15467900D01*
X14973694Y-15467900D02*
X14992742Y-15477424D01*
X15116551Y-15601234D02*
X15097504Y-15591710D01*
X15097504Y-15591710D02*
X15087980Y-15572662D01*
X15087980Y-15572662D02*
X15087980Y-15401234D01*
X15221313Y-15601234D02*
X15202265Y-15591710D01*
X15202265Y-15591710D02*
X15192742Y-15582186D01*
X15192742Y-15582186D02*
X15183218Y-15563138D01*
X15183218Y-15563138D02*
X15183218Y-15505996D01*
X15183218Y-15505996D02*
X15192742Y-15486948D01*
X15192742Y-15486948D02*
X15202265Y-15477424D01*
X15202265Y-15477424D02*
X15221313Y-15467900D01*
X15221313Y-15467900D02*
X15249885Y-15467900D01*
X15249885Y-15467900D02*
X15268932Y-15477424D01*
X15268932Y-15477424D02*
X15278456Y-15486948D01*
X15278456Y-15486948D02*
X15287980Y-15505996D01*
X15287980Y-15505996D02*
X15287980Y-15563138D01*
X15287980Y-15563138D02*
X15278456Y-15582186D01*
X15278456Y-15582186D02*
X15268932Y-15591710D01*
X15268932Y-15591710D02*
X15249885Y-15601234D01*
X15249885Y-15601234D02*
X15221313Y-15601234D01*
X15345123Y-15467900D02*
X15421313Y-15467900D01*
X15373694Y-15401234D02*
X15373694Y-15572662D01*
X15373694Y-15572662D02*
X15383218Y-15591710D01*
X15383218Y-15591710D02*
X15402265Y-15601234D01*
X15402265Y-15601234D02*
X15421313Y-15601234D01*
X15478456Y-15591710D02*
X15497504Y-15601234D01*
X15497504Y-15601234D02*
X15535599Y-15601234D01*
X15535599Y-15601234D02*
X15554646Y-15591710D01*
X15554646Y-15591710D02*
X15564170Y-15572662D01*
X15564170Y-15572662D02*
X15564170Y-15563138D01*
X15564170Y-15563138D02*
X15554646Y-15544091D01*
X15554646Y-15544091D02*
X15535599Y-15534567D01*
X15535599Y-15534567D02*
X15507027Y-15534567D01*
X15507027Y-15534567D02*
X15487980Y-15525043D01*
X15487980Y-15525043D02*
X15478456Y-15505996D01*
X15478456Y-15505996D02*
X15478456Y-15496472D01*
X15478456Y-15496472D02*
X15487980Y-15477424D01*
X15487980Y-15477424D02*
X15507027Y-15467900D01*
X15507027Y-15467900D02*
X15535599Y-15467900D01*
X15535599Y-15467900D02*
X15554646Y-15477424D01*
X15630837Y-15677424D02*
X15640361Y-15667900D01*
X15640361Y-15667900D02*
X15659408Y-15639329D01*
X15659408Y-15639329D02*
X15668932Y-15620281D01*
X15668932Y-15620281D02*
X15678456Y-15591710D01*
X15678456Y-15591710D02*
X15687980Y-15544091D01*
X15687980Y-15544091D02*
X15687980Y-15505996D01*
X15687980Y-15505996D02*
X15678456Y-15458377D01*
X15678456Y-15458377D02*
X15668932Y-15429805D01*
X15668932Y-15429805D02*
X15659408Y-15410758D01*
X15659408Y-15410758D02*
X15640361Y-15382186D01*
X15640361Y-15382186D02*
X15630837Y-15372662D01*
M02*
