G04 #@! TF.GenerationSoftware,KiCad,Pcbnew,9.0.2*
G04 #@! TF.CreationDate,2025-06-09T08:41:51+05:30*
G04 #@! TF.ProjectId,DevBuddy,44657642-7564-4647-992e-6b696361645f,rev?*
G04 #@! TF.SameCoordinates,Original*
G04 #@! TF.FileFunction,Legend,Top*
G04 #@! TF.FilePolarity,Positive*
%FSLAX46Y46*%
G04 Gerber Fmt 4.6, Leading zero omitted, Abs format (unit mm)*
G04 Created by KiCad (PCBNEW 9.0.2) date 2025-06-09 08:41:51*
%MOMM*%
%LPD*%
G01*
G04 APERTURE LIST*
G04 Aperture macros list*
%AMRoundRect*
0 Rectangle with rounded corners*
0 $1 Rounding radius*
0 $2 $3 $4 $5 $6 $7 $8 $9 X,Y pos of 4 corners*
0 Add a 4 corners polygon primitive as box body*
4,1,4,$2,$3,$4,$5,$6,$7,$8,$9,$2,$3,0*
0 Add four circle primitives for the rounded corners*
1,1,$1+$1,$2,$3*
1,1,$1+$1,$4,$5*
1,1,$1+$1,$6,$7*
1,1,$1+$1,$8,$9*
0 Add four rect primitives between the rounded corners*
20,1,$1+$1,$2,$3,$4,$5,0*
20,1,$1+$1,$4,$5,$6,$7,0*
20,1,$1+$1,$6,$7,$8,$9,0*
20,1,$1+$1,$8,$9,$2,$3,0*%
G04 Aperture macros list end*
%ADD10C,0.150000*%
%ADD11C,0.040000*%
%ADD12C,0.120000*%
%ADD13C,1.524000*%
%ADD14R,1.700000X1.700000*%
%ADD15O,1.700000X1.700000*%
%ADD16C,2.000000*%
%ADD17R,3.200000X2.000000*%
%ADD18R,2.000000X2.000000*%
%ADD19C,2.200000*%
%ADD20C,1.700000*%
%ADD21C,4.000000*%
%ADD22C,1.600000*%
%ADD23RoundRect,0.250000X0.550000X-0.550000X0.550000X0.550000X-0.550000X0.550000X-0.550000X-0.550000X0*%
G04 APERTURE END LIST*
D10*
X136068029Y-80832319D02*
X136068029Y-79832319D01*
X136068029Y-79832319D02*
X136401362Y-80546604D01*
X136401362Y-80546604D02*
X136734695Y-79832319D01*
X136734695Y-79832319D02*
X136734695Y-80832319D01*
X137639457Y-80832319D02*
X137639457Y-80308509D01*
X137639457Y-80308509D02*
X137591838Y-80213271D01*
X137591838Y-80213271D02*
X137496600Y-80165652D01*
X137496600Y-80165652D02*
X137306124Y-80165652D01*
X137306124Y-80165652D02*
X137210886Y-80213271D01*
X137639457Y-80784700D02*
X137544219Y-80832319D01*
X137544219Y-80832319D02*
X137306124Y-80832319D01*
X137306124Y-80832319D02*
X137210886Y-80784700D01*
X137210886Y-80784700D02*
X137163267Y-80689461D01*
X137163267Y-80689461D02*
X137163267Y-80594223D01*
X137163267Y-80594223D02*
X137210886Y-80498985D01*
X137210886Y-80498985D02*
X137306124Y-80451366D01*
X137306124Y-80451366D02*
X137544219Y-80451366D01*
X137544219Y-80451366D02*
X137639457Y-80403747D01*
X138544219Y-80784700D02*
X138448981Y-80832319D01*
X138448981Y-80832319D02*
X138258505Y-80832319D01*
X138258505Y-80832319D02*
X138163267Y-80784700D01*
X138163267Y-80784700D02*
X138115648Y-80737080D01*
X138115648Y-80737080D02*
X138068029Y-80641842D01*
X138068029Y-80641842D02*
X138068029Y-80356128D01*
X138068029Y-80356128D02*
X138115648Y-80260890D01*
X138115648Y-80260890D02*
X138163267Y-80213271D01*
X138163267Y-80213271D02*
X138258505Y-80165652D01*
X138258505Y-80165652D02*
X138448981Y-80165652D01*
X138448981Y-80165652D02*
X138544219Y-80213271D01*
X138972791Y-80832319D02*
X138972791Y-80165652D01*
X138972791Y-80356128D02*
X139020410Y-80260890D01*
X139020410Y-80260890D02*
X139068029Y-80213271D01*
X139068029Y-80213271D02*
X139163267Y-80165652D01*
X139163267Y-80165652D02*
X139258505Y-80165652D01*
X139734696Y-80832319D02*
X139639458Y-80784700D01*
X139639458Y-80784700D02*
X139591839Y-80737080D01*
X139591839Y-80737080D02*
X139544220Y-80641842D01*
X139544220Y-80641842D02*
X139544220Y-80356128D01*
X139544220Y-80356128D02*
X139591839Y-80260890D01*
X139591839Y-80260890D02*
X139639458Y-80213271D01*
X139639458Y-80213271D02*
X139734696Y-80165652D01*
X139734696Y-80165652D02*
X139877553Y-80165652D01*
X139877553Y-80165652D02*
X139972791Y-80213271D01*
X139972791Y-80213271D02*
X140020410Y-80260890D01*
X140020410Y-80260890D02*
X140068029Y-80356128D01*
X140068029Y-80356128D02*
X140068029Y-80641842D01*
X140068029Y-80641842D02*
X140020410Y-80737080D01*
X140020410Y-80737080D02*
X139972791Y-80784700D01*
X139972791Y-80784700D02*
X139877553Y-80832319D01*
X139877553Y-80832319D02*
X139734696Y-80832319D01*
X140496601Y-80832319D02*
X140496601Y-79832319D01*
X140496601Y-79832319D02*
X140829934Y-80546604D01*
X140829934Y-80546604D02*
X141163267Y-79832319D01*
X141163267Y-79832319D02*
X141163267Y-80832319D01*
X142020410Y-80784700D02*
X141925172Y-80832319D01*
X141925172Y-80832319D02*
X141734696Y-80832319D01*
X141734696Y-80832319D02*
X141639458Y-80784700D01*
X141639458Y-80784700D02*
X141591839Y-80689461D01*
X141591839Y-80689461D02*
X141591839Y-80308509D01*
X141591839Y-80308509D02*
X141639458Y-80213271D01*
X141639458Y-80213271D02*
X141734696Y-80165652D01*
X141734696Y-80165652D02*
X141925172Y-80165652D01*
X141925172Y-80165652D02*
X142020410Y-80213271D01*
X142020410Y-80213271D02*
X142068029Y-80308509D01*
X142068029Y-80308509D02*
X142068029Y-80403747D01*
X142068029Y-80403747D02*
X141591839Y-80498985D01*
X142925172Y-80832319D02*
X142925172Y-79832319D01*
X142925172Y-80784700D02*
X142829934Y-80832319D01*
X142829934Y-80832319D02*
X142639458Y-80832319D01*
X142639458Y-80832319D02*
X142544220Y-80784700D01*
X142544220Y-80784700D02*
X142496601Y-80737080D01*
X142496601Y-80737080D02*
X142448982Y-80641842D01*
X142448982Y-80641842D02*
X142448982Y-80356128D01*
X142448982Y-80356128D02*
X142496601Y-80260890D01*
X142496601Y-80260890D02*
X142544220Y-80213271D01*
X142544220Y-80213271D02*
X142639458Y-80165652D01*
X142639458Y-80165652D02*
X142829934Y-80165652D01*
X142829934Y-80165652D02*
X142925172Y-80213271D01*
X143401363Y-80832319D02*
X143401363Y-80165652D01*
X143401363Y-79832319D02*
X143353744Y-79879938D01*
X143353744Y-79879938D02*
X143401363Y-79927557D01*
X143401363Y-79927557D02*
X143448982Y-79879938D01*
X143448982Y-79879938D02*
X143401363Y-79832319D01*
X143401363Y-79832319D02*
X143401363Y-79927557D01*
X144306124Y-80832319D02*
X144306124Y-80308509D01*
X144306124Y-80308509D02*
X144258505Y-80213271D01*
X144258505Y-80213271D02*
X144163267Y-80165652D01*
X144163267Y-80165652D02*
X143972791Y-80165652D01*
X143972791Y-80165652D02*
X143877553Y-80213271D01*
X144306124Y-80784700D02*
X144210886Y-80832319D01*
X144210886Y-80832319D02*
X143972791Y-80832319D01*
X143972791Y-80832319D02*
X143877553Y-80784700D01*
X143877553Y-80784700D02*
X143829934Y-80689461D01*
X143829934Y-80689461D02*
X143829934Y-80594223D01*
X143829934Y-80594223D02*
X143877553Y-80498985D01*
X143877553Y-80498985D02*
X143972791Y-80451366D01*
X143972791Y-80451366D02*
X144210886Y-80451366D01*
X144210886Y-80451366D02*
X144306124Y-80403747D01*
X144782315Y-80737080D02*
X144829934Y-80784700D01*
X144829934Y-80784700D02*
X144782315Y-80832319D01*
X144782315Y-80832319D02*
X144734696Y-80784700D01*
X144734696Y-80784700D02*
X144782315Y-80737080D01*
X144782315Y-80737080D02*
X144782315Y-80832319D01*
X144782315Y-80213271D02*
X144829934Y-80260890D01*
X144829934Y-80260890D02*
X144782315Y-80308509D01*
X144782315Y-80308509D02*
X144734696Y-80260890D01*
X144734696Y-80260890D02*
X144782315Y-80213271D01*
X144782315Y-80213271D02*
X144782315Y-80308509D01*
X146020410Y-80832319D02*
X146020410Y-80165652D01*
X146020410Y-80260890D02*
X146068029Y-80213271D01*
X146068029Y-80213271D02*
X146163267Y-80165652D01*
X146163267Y-80165652D02*
X146306124Y-80165652D01*
X146306124Y-80165652D02*
X146401362Y-80213271D01*
X146401362Y-80213271D02*
X146448981Y-80308509D01*
X146448981Y-80308509D02*
X146448981Y-80832319D01*
X146448981Y-80308509D02*
X146496600Y-80213271D01*
X146496600Y-80213271D02*
X146591838Y-80165652D01*
X146591838Y-80165652D02*
X146734695Y-80165652D01*
X146734695Y-80165652D02*
X146829934Y-80213271D01*
X146829934Y-80213271D02*
X146877553Y-80308509D01*
X146877553Y-80308509D02*
X146877553Y-80832319D01*
X147782314Y-80832319D02*
X147782314Y-80308509D01*
X147782314Y-80308509D02*
X147734695Y-80213271D01*
X147734695Y-80213271D02*
X147639457Y-80165652D01*
X147639457Y-80165652D02*
X147448981Y-80165652D01*
X147448981Y-80165652D02*
X147353743Y-80213271D01*
X147782314Y-80784700D02*
X147687076Y-80832319D01*
X147687076Y-80832319D02*
X147448981Y-80832319D01*
X147448981Y-80832319D02*
X147353743Y-80784700D01*
X147353743Y-80784700D02*
X147306124Y-80689461D01*
X147306124Y-80689461D02*
X147306124Y-80594223D01*
X147306124Y-80594223D02*
X147353743Y-80498985D01*
X147353743Y-80498985D02*
X147448981Y-80451366D01*
X147448981Y-80451366D02*
X147687076Y-80451366D01*
X147687076Y-80451366D02*
X147782314Y-80403747D01*
X148687076Y-80832319D02*
X148687076Y-79832319D01*
X148687076Y-80784700D02*
X148591838Y-80832319D01*
X148591838Y-80832319D02*
X148401362Y-80832319D01*
X148401362Y-80832319D02*
X148306124Y-80784700D01*
X148306124Y-80784700D02*
X148258505Y-80737080D01*
X148258505Y-80737080D02*
X148210886Y-80641842D01*
X148210886Y-80641842D02*
X148210886Y-80356128D01*
X148210886Y-80356128D02*
X148258505Y-80260890D01*
X148258505Y-80260890D02*
X148306124Y-80213271D01*
X148306124Y-80213271D02*
X148401362Y-80165652D01*
X148401362Y-80165652D02*
X148591838Y-80165652D01*
X148591838Y-80165652D02*
X148687076Y-80213271D01*
X149544219Y-80784700D02*
X149448981Y-80832319D01*
X149448981Y-80832319D02*
X149258505Y-80832319D01*
X149258505Y-80832319D02*
X149163267Y-80784700D01*
X149163267Y-80784700D02*
X149115648Y-80689461D01*
X149115648Y-80689461D02*
X149115648Y-80308509D01*
X149115648Y-80308509D02*
X149163267Y-80213271D01*
X149163267Y-80213271D02*
X149258505Y-80165652D01*
X149258505Y-80165652D02*
X149448981Y-80165652D01*
X149448981Y-80165652D02*
X149544219Y-80213271D01*
X149544219Y-80213271D02*
X149591838Y-80308509D01*
X149591838Y-80308509D02*
X149591838Y-80403747D01*
X149591838Y-80403747D02*
X149115648Y-80498985D01*
X150782315Y-80832319D02*
X150782315Y-79832319D01*
X150782315Y-80213271D02*
X150877553Y-80165652D01*
X150877553Y-80165652D02*
X151068029Y-80165652D01*
X151068029Y-80165652D02*
X151163267Y-80213271D01*
X151163267Y-80213271D02*
X151210886Y-80260890D01*
X151210886Y-80260890D02*
X151258505Y-80356128D01*
X151258505Y-80356128D02*
X151258505Y-80641842D01*
X151258505Y-80641842D02*
X151210886Y-80737080D01*
X151210886Y-80737080D02*
X151163267Y-80784700D01*
X151163267Y-80784700D02*
X151068029Y-80832319D01*
X151068029Y-80832319D02*
X150877553Y-80832319D01*
X150877553Y-80832319D02*
X150782315Y-80784700D01*
X151591839Y-80165652D02*
X151829934Y-80832319D01*
X152068029Y-80165652D02*
X151829934Y-80832319D01*
X151829934Y-80832319D02*
X151734696Y-81070414D01*
X151734696Y-81070414D02*
X151687077Y-81118033D01*
X151687077Y-81118033D02*
X151591839Y-81165652D01*
X153068030Y-80451366D02*
X153115649Y-80403747D01*
X153115649Y-80403747D02*
X153210887Y-80356128D01*
X153210887Y-80356128D02*
X153401363Y-80451366D01*
X153401363Y-80451366D02*
X153496601Y-80403747D01*
X153496601Y-80403747D02*
X153544220Y-80356128D01*
X153925173Y-80832319D02*
X153925173Y-80165652D01*
X153925173Y-80260890D02*
X153972792Y-80213271D01*
X153972792Y-80213271D02*
X154068030Y-80165652D01*
X154068030Y-80165652D02*
X154210887Y-80165652D01*
X154210887Y-80165652D02*
X154306125Y-80213271D01*
X154306125Y-80213271D02*
X154353744Y-80308509D01*
X154353744Y-80308509D02*
X154353744Y-80832319D01*
X154353744Y-80308509D02*
X154401363Y-80213271D01*
X154401363Y-80213271D02*
X154496601Y-80165652D01*
X154496601Y-80165652D02*
X154639458Y-80165652D01*
X154639458Y-80165652D02*
X154734697Y-80213271D01*
X154734697Y-80213271D02*
X154782316Y-80308509D01*
X154782316Y-80308509D02*
X154782316Y-80832319D01*
X155258506Y-80832319D02*
X155258506Y-80165652D01*
X155258506Y-79832319D02*
X155210887Y-79879938D01*
X155210887Y-79879938D02*
X155258506Y-79927557D01*
X155258506Y-79927557D02*
X155306125Y-79879938D01*
X155306125Y-79879938D02*
X155258506Y-79832319D01*
X155258506Y-79832319D02*
X155258506Y-79927557D01*
X155734696Y-80832319D02*
X155734696Y-79832319D01*
X156163267Y-80832319D02*
X156163267Y-80308509D01*
X156163267Y-80308509D02*
X156115648Y-80213271D01*
X156115648Y-80213271D02*
X156020410Y-80165652D01*
X156020410Y-80165652D02*
X155877553Y-80165652D01*
X155877553Y-80165652D02*
X155782315Y-80213271D01*
X155782315Y-80213271D02*
X155734696Y-80260890D01*
X156639458Y-80832319D02*
X156639458Y-80165652D01*
X156639458Y-80356128D02*
X156687077Y-80260890D01*
X156687077Y-80260890D02*
X156734696Y-80213271D01*
X156734696Y-80213271D02*
X156829934Y-80165652D01*
X156829934Y-80165652D02*
X156925172Y-80165652D01*
X157687077Y-80832319D02*
X157687077Y-80308509D01*
X157687077Y-80308509D02*
X157639458Y-80213271D01*
X157639458Y-80213271D02*
X157544220Y-80165652D01*
X157544220Y-80165652D02*
X157353744Y-80165652D01*
X157353744Y-80165652D02*
X157258506Y-80213271D01*
X157687077Y-80784700D02*
X157591839Y-80832319D01*
X157591839Y-80832319D02*
X157353744Y-80832319D01*
X157353744Y-80832319D02*
X157258506Y-80784700D01*
X157258506Y-80784700D02*
X157210887Y-80689461D01*
X157210887Y-80689461D02*
X157210887Y-80594223D01*
X157210887Y-80594223D02*
X157258506Y-80498985D01*
X157258506Y-80498985D02*
X157353744Y-80451366D01*
X157353744Y-80451366D02*
X157591839Y-80451366D01*
X157591839Y-80451366D02*
X157687077Y-80403747D01*
X158163268Y-80165652D02*
X158163268Y-80832319D01*
X158163268Y-80260890D02*
X158210887Y-80213271D01*
X158210887Y-80213271D02*
X158306125Y-80165652D01*
X158306125Y-80165652D02*
X158448982Y-80165652D01*
X158448982Y-80165652D02*
X158544220Y-80213271D01*
X158544220Y-80213271D02*
X158591839Y-80308509D01*
X158591839Y-80308509D02*
X158591839Y-80832319D01*
X159068030Y-80832319D02*
X159068030Y-80165652D01*
X159068030Y-80356128D02*
X159115649Y-80260890D01*
X159115649Y-80260890D02*
X159163268Y-80213271D01*
X159163268Y-80213271D02*
X159258506Y-80165652D01*
X159258506Y-80165652D02*
X159353744Y-80165652D01*
X160115649Y-80832319D02*
X160115649Y-80308509D01*
X160115649Y-80308509D02*
X160068030Y-80213271D01*
X160068030Y-80213271D02*
X159972792Y-80165652D01*
X159972792Y-80165652D02*
X159782316Y-80165652D01*
X159782316Y-80165652D02*
X159687078Y-80213271D01*
X160115649Y-80784700D02*
X160020411Y-80832319D01*
X160020411Y-80832319D02*
X159782316Y-80832319D01*
X159782316Y-80832319D02*
X159687078Y-80784700D01*
X159687078Y-80784700D02*
X159639459Y-80689461D01*
X159639459Y-80689461D02*
X159639459Y-80594223D01*
X159639459Y-80594223D02*
X159687078Y-80498985D01*
X159687078Y-80498985D02*
X159782316Y-80451366D01*
X159782316Y-80451366D02*
X160020411Y-80451366D01*
X160020411Y-80451366D02*
X160115649Y-80403747D01*
X160496602Y-80165652D02*
X161020411Y-80165652D01*
X161020411Y-80165652D02*
X160496602Y-80832319D01*
X160496602Y-80832319D02*
X161020411Y-80832319D01*
X161829935Y-80832319D02*
X161829935Y-80308509D01*
X161829935Y-80308509D02*
X161782316Y-80213271D01*
X161782316Y-80213271D02*
X161687078Y-80165652D01*
X161687078Y-80165652D02*
X161496602Y-80165652D01*
X161496602Y-80165652D02*
X161401364Y-80213271D01*
X161829935Y-80784700D02*
X161734697Y-80832319D01*
X161734697Y-80832319D02*
X161496602Y-80832319D01*
X161496602Y-80832319D02*
X161401364Y-80784700D01*
X161401364Y-80784700D02*
X161353745Y-80689461D01*
X161353745Y-80689461D02*
X161353745Y-80594223D01*
X161353745Y-80594223D02*
X161401364Y-80498985D01*
X161401364Y-80498985D02*
X161496602Y-80451366D01*
X161496602Y-80451366D02*
X161734697Y-80451366D01*
X161734697Y-80451366D02*
X161829935Y-80403747D01*
X162734697Y-80832319D02*
X162734697Y-80308509D01*
X162734697Y-80308509D02*
X162687078Y-80213271D01*
X162687078Y-80213271D02*
X162591840Y-80165652D01*
X162591840Y-80165652D02*
X162401364Y-80165652D01*
X162401364Y-80165652D02*
X162306126Y-80213271D01*
X162734697Y-80784700D02*
X162639459Y-80832319D01*
X162639459Y-80832319D02*
X162401364Y-80832319D01*
X162401364Y-80832319D02*
X162306126Y-80784700D01*
X162306126Y-80784700D02*
X162258507Y-80689461D01*
X162258507Y-80689461D02*
X162258507Y-80594223D01*
X162258507Y-80594223D02*
X162306126Y-80498985D01*
X162306126Y-80498985D02*
X162401364Y-80451366D01*
X162401364Y-80451366D02*
X162639459Y-80451366D01*
X162639459Y-80451366D02*
X162734697Y-80403747D01*
X135273569Y-125543333D02*
X135987854Y-125543333D01*
X135987854Y-125543333D02*
X136130711Y-125590952D01*
X136130711Y-125590952D02*
X136225950Y-125686190D01*
X136225950Y-125686190D02*
X136273569Y-125829047D01*
X136273569Y-125829047D02*
X136273569Y-125924285D01*
X136273569Y-124543333D02*
X136273569Y-125114761D01*
X136273569Y-124829047D02*
X135273569Y-124829047D01*
X135273569Y-124829047D02*
X135416426Y-124924285D01*
X135416426Y-124924285D02*
X135511664Y-125019523D01*
X135511664Y-125019523D02*
X135559283Y-125114761D01*
X168722200Y-130020713D02*
X168757914Y-129913571D01*
X168757914Y-129913571D02*
X168757914Y-129734999D01*
X168757914Y-129734999D02*
X168722200Y-129663571D01*
X168722200Y-129663571D02*
X168686485Y-129627856D01*
X168686485Y-129627856D02*
X168615057Y-129592142D01*
X168615057Y-129592142D02*
X168543628Y-129592142D01*
X168543628Y-129592142D02*
X168472200Y-129627856D01*
X168472200Y-129627856D02*
X168436485Y-129663571D01*
X168436485Y-129663571D02*
X168400771Y-129734999D01*
X168400771Y-129734999D02*
X168365057Y-129877856D01*
X168365057Y-129877856D02*
X168329342Y-129949285D01*
X168329342Y-129949285D02*
X168293628Y-129984999D01*
X168293628Y-129984999D02*
X168222200Y-130020713D01*
X168222200Y-130020713D02*
X168150771Y-130020713D01*
X168150771Y-130020713D02*
X168079342Y-129984999D01*
X168079342Y-129984999D02*
X168043628Y-129949285D01*
X168043628Y-129949285D02*
X168007914Y-129877856D01*
X168007914Y-129877856D02*
X168007914Y-129699285D01*
X168007914Y-129699285D02*
X168043628Y-129592142D01*
X168757914Y-129270713D02*
X168007914Y-129270713D01*
X168007914Y-129270713D02*
X168007914Y-129092142D01*
X168007914Y-129092142D02*
X168043628Y-128984999D01*
X168043628Y-128984999D02*
X168115057Y-128913570D01*
X168115057Y-128913570D02*
X168186485Y-128877856D01*
X168186485Y-128877856D02*
X168329342Y-128842142D01*
X168329342Y-128842142D02*
X168436485Y-128842142D01*
X168436485Y-128842142D02*
X168579342Y-128877856D01*
X168579342Y-128877856D02*
X168650771Y-128913570D01*
X168650771Y-128913570D02*
X168722200Y-128984999D01*
X168722200Y-128984999D02*
X168757914Y-129092142D01*
X168757914Y-129092142D02*
X168757914Y-129270713D01*
X168543628Y-128556427D02*
X168543628Y-128199285D01*
X168757914Y-128627856D02*
X168007914Y-128377856D01*
X168007914Y-128377856D02*
X168757914Y-128127856D01*
X148990178Y-124754819D02*
X149180654Y-124754819D01*
X149180654Y-124754819D02*
X149275892Y-124802438D01*
X149275892Y-124802438D02*
X149371130Y-124897676D01*
X149371130Y-124897676D02*
X149418749Y-125088152D01*
X149418749Y-125088152D02*
X149418749Y-125421485D01*
X149418749Y-125421485D02*
X149371130Y-125611961D01*
X149371130Y-125611961D02*
X149275892Y-125707200D01*
X149275892Y-125707200D02*
X149180654Y-125754819D01*
X149180654Y-125754819D02*
X148990178Y-125754819D01*
X148990178Y-125754819D02*
X148894940Y-125707200D01*
X148894940Y-125707200D02*
X148799702Y-125611961D01*
X148799702Y-125611961D02*
X148752083Y-125421485D01*
X148752083Y-125421485D02*
X148752083Y-125088152D01*
X148752083Y-125088152D02*
X148799702Y-124897676D01*
X148799702Y-124897676D02*
X148894940Y-124802438D01*
X148894940Y-124802438D02*
X148990178Y-124754819D01*
X150323511Y-125754819D02*
X149847321Y-125754819D01*
X149847321Y-125754819D02*
X149847321Y-124754819D01*
X150656845Y-125231009D02*
X150990178Y-125231009D01*
X151133035Y-125754819D02*
X150656845Y-125754819D01*
X150656845Y-125754819D02*
X150656845Y-124754819D01*
X150656845Y-124754819D02*
X151133035Y-124754819D01*
X151561607Y-125754819D02*
X151561607Y-124754819D01*
X151561607Y-124754819D02*
X151799702Y-124754819D01*
X151799702Y-124754819D02*
X151942559Y-124802438D01*
X151942559Y-124802438D02*
X152037797Y-124897676D01*
X152037797Y-124897676D02*
X152085416Y-124992914D01*
X152085416Y-124992914D02*
X152133035Y-125183390D01*
X152133035Y-125183390D02*
X152133035Y-125326247D01*
X152133035Y-125326247D02*
X152085416Y-125516723D01*
X152085416Y-125516723D02*
X152037797Y-125611961D01*
X152037797Y-125611961D02*
X151942559Y-125707200D01*
X151942559Y-125707200D02*
X151799702Y-125754819D01*
X151799702Y-125754819D02*
X151561607Y-125754819D01*
X153323512Y-125754819D02*
X153323512Y-124754819D01*
X153323512Y-124754819D02*
X153704464Y-124754819D01*
X153704464Y-124754819D02*
X153799702Y-124802438D01*
X153799702Y-124802438D02*
X153847321Y-124850057D01*
X153847321Y-124850057D02*
X153894940Y-124945295D01*
X153894940Y-124945295D02*
X153894940Y-125088152D01*
X153894940Y-125088152D02*
X153847321Y-125183390D01*
X153847321Y-125183390D02*
X153799702Y-125231009D01*
X153799702Y-125231009D02*
X153704464Y-125278628D01*
X153704464Y-125278628D02*
X153323512Y-125278628D01*
X154752083Y-125754819D02*
X154752083Y-125231009D01*
X154752083Y-125231009D02*
X154704464Y-125135771D01*
X154704464Y-125135771D02*
X154609226Y-125088152D01*
X154609226Y-125088152D02*
X154418750Y-125088152D01*
X154418750Y-125088152D02*
X154323512Y-125135771D01*
X154752083Y-125707200D02*
X154656845Y-125754819D01*
X154656845Y-125754819D02*
X154418750Y-125754819D01*
X154418750Y-125754819D02*
X154323512Y-125707200D01*
X154323512Y-125707200D02*
X154275893Y-125611961D01*
X154275893Y-125611961D02*
X154275893Y-125516723D01*
X154275893Y-125516723D02*
X154323512Y-125421485D01*
X154323512Y-125421485D02*
X154418750Y-125373866D01*
X154418750Y-125373866D02*
X154656845Y-125373866D01*
X154656845Y-125373866D02*
X154752083Y-125326247D01*
X155228274Y-125088152D02*
X155228274Y-125754819D01*
X155228274Y-125183390D02*
X155275893Y-125135771D01*
X155275893Y-125135771D02*
X155371131Y-125088152D01*
X155371131Y-125088152D02*
X155513988Y-125088152D01*
X155513988Y-125088152D02*
X155609226Y-125135771D01*
X155609226Y-125135771D02*
X155656845Y-125231009D01*
X155656845Y-125231009D02*
X155656845Y-125754819D01*
X156513988Y-125707200D02*
X156418750Y-125754819D01*
X156418750Y-125754819D02*
X156228274Y-125754819D01*
X156228274Y-125754819D02*
X156133036Y-125707200D01*
X156133036Y-125707200D02*
X156085417Y-125611961D01*
X156085417Y-125611961D02*
X156085417Y-125231009D01*
X156085417Y-125231009D02*
X156133036Y-125135771D01*
X156133036Y-125135771D02*
X156228274Y-125088152D01*
X156228274Y-125088152D02*
X156418750Y-125088152D01*
X156418750Y-125088152D02*
X156513988Y-125135771D01*
X156513988Y-125135771D02*
X156561607Y-125231009D01*
X156561607Y-125231009D02*
X156561607Y-125326247D01*
X156561607Y-125326247D02*
X156085417Y-125421485D01*
X157133036Y-125754819D02*
X157037798Y-125707200D01*
X157037798Y-125707200D02*
X156990179Y-125611961D01*
X156990179Y-125611961D02*
X156990179Y-124754819D01*
X165258628Y-84982678D02*
X165222914Y-85054107D01*
X165222914Y-85054107D02*
X165222914Y-85161249D01*
X165222914Y-85161249D02*
X165258628Y-85268392D01*
X165258628Y-85268392D02*
X165330057Y-85339821D01*
X165330057Y-85339821D02*
X165401485Y-85375535D01*
X165401485Y-85375535D02*
X165544342Y-85411249D01*
X165544342Y-85411249D02*
X165651485Y-85411249D01*
X165651485Y-85411249D02*
X165794342Y-85375535D01*
X165794342Y-85375535D02*
X165865771Y-85339821D01*
X165865771Y-85339821D02*
X165937200Y-85268392D01*
X165937200Y-85268392D02*
X165972914Y-85161249D01*
X165972914Y-85161249D02*
X165972914Y-85089821D01*
X165972914Y-85089821D02*
X165937200Y-84982678D01*
X165937200Y-84982678D02*
X165901485Y-84946964D01*
X165901485Y-84946964D02*
X165651485Y-84946964D01*
X165651485Y-84946964D02*
X165651485Y-85089821D01*
X165972914Y-84625535D02*
X165222914Y-84625535D01*
X165222914Y-84625535D02*
X165972914Y-84196964D01*
X165972914Y-84196964D02*
X165222914Y-84196964D01*
X165972914Y-83839821D02*
X165222914Y-83839821D01*
X165222914Y-83839821D02*
X165222914Y-83661250D01*
X165222914Y-83661250D02*
X165258628Y-83554107D01*
X165258628Y-83554107D02*
X165330057Y-83482678D01*
X165330057Y-83482678D02*
X165401485Y-83446964D01*
X165401485Y-83446964D02*
X165544342Y-83411250D01*
X165544342Y-83411250D02*
X165651485Y-83411250D01*
X165651485Y-83411250D02*
X165794342Y-83446964D01*
X165794342Y-83446964D02*
X165865771Y-83482678D01*
X165865771Y-83482678D02*
X165937200Y-83554107D01*
X165937200Y-83554107D02*
X165972914Y-83661250D01*
X165972914Y-83661250D02*
X165972914Y-83839821D01*
X165222914Y-87951249D02*
X165972914Y-87701249D01*
X165972914Y-87701249D02*
X165222914Y-87451249D01*
X165901485Y-86772678D02*
X165937200Y-86808392D01*
X165937200Y-86808392D02*
X165972914Y-86915535D01*
X165972914Y-86915535D02*
X165972914Y-86986963D01*
X165972914Y-86986963D02*
X165937200Y-87094106D01*
X165937200Y-87094106D02*
X165865771Y-87165535D01*
X165865771Y-87165535D02*
X165794342Y-87201249D01*
X165794342Y-87201249D02*
X165651485Y-87236963D01*
X165651485Y-87236963D02*
X165544342Y-87236963D01*
X165544342Y-87236963D02*
X165401485Y-87201249D01*
X165401485Y-87201249D02*
X165330057Y-87165535D01*
X165330057Y-87165535D02*
X165258628Y-87094106D01*
X165258628Y-87094106D02*
X165222914Y-86986963D01*
X165222914Y-86986963D02*
X165222914Y-86915535D01*
X165222914Y-86915535D02*
X165258628Y-86808392D01*
X165258628Y-86808392D02*
X165294342Y-86772678D01*
X165901485Y-86022678D02*
X165937200Y-86058392D01*
X165937200Y-86058392D02*
X165972914Y-86165535D01*
X165972914Y-86165535D02*
X165972914Y-86236963D01*
X165972914Y-86236963D02*
X165937200Y-86344106D01*
X165937200Y-86344106D02*
X165865771Y-86415535D01*
X165865771Y-86415535D02*
X165794342Y-86451249D01*
X165794342Y-86451249D02*
X165651485Y-86486963D01*
X165651485Y-86486963D02*
X165544342Y-86486963D01*
X165544342Y-86486963D02*
X165401485Y-86451249D01*
X165401485Y-86451249D02*
X165330057Y-86415535D01*
X165330057Y-86415535D02*
X165258628Y-86344106D01*
X165258628Y-86344106D02*
X165222914Y-86236963D01*
X165222914Y-86236963D02*
X165222914Y-86165535D01*
X165222914Y-86165535D02*
X165258628Y-86058392D01*
X165258628Y-86058392D02*
X165294342Y-86022678D01*
X168722200Y-127462856D02*
X168757914Y-127355714D01*
X168757914Y-127355714D02*
X168757914Y-127177142D01*
X168757914Y-127177142D02*
X168722200Y-127105714D01*
X168722200Y-127105714D02*
X168686485Y-127069999D01*
X168686485Y-127069999D02*
X168615057Y-127034285D01*
X168615057Y-127034285D02*
X168543628Y-127034285D01*
X168543628Y-127034285D02*
X168472200Y-127069999D01*
X168472200Y-127069999D02*
X168436485Y-127105714D01*
X168436485Y-127105714D02*
X168400771Y-127177142D01*
X168400771Y-127177142D02*
X168365057Y-127319999D01*
X168365057Y-127319999D02*
X168329342Y-127391428D01*
X168329342Y-127391428D02*
X168293628Y-127427142D01*
X168293628Y-127427142D02*
X168222200Y-127462856D01*
X168222200Y-127462856D02*
X168150771Y-127462856D01*
X168150771Y-127462856D02*
X168079342Y-127427142D01*
X168079342Y-127427142D02*
X168043628Y-127391428D01*
X168043628Y-127391428D02*
X168007914Y-127319999D01*
X168007914Y-127319999D02*
X168007914Y-127141428D01*
X168007914Y-127141428D02*
X168043628Y-127034285D01*
X168686485Y-126284285D02*
X168722200Y-126319999D01*
X168722200Y-126319999D02*
X168757914Y-126427142D01*
X168757914Y-126427142D02*
X168757914Y-126498570D01*
X168757914Y-126498570D02*
X168722200Y-126605713D01*
X168722200Y-126605713D02*
X168650771Y-126677142D01*
X168650771Y-126677142D02*
X168579342Y-126712856D01*
X168579342Y-126712856D02*
X168436485Y-126748570D01*
X168436485Y-126748570D02*
X168329342Y-126748570D01*
X168329342Y-126748570D02*
X168186485Y-126712856D01*
X168186485Y-126712856D02*
X168115057Y-126677142D01*
X168115057Y-126677142D02*
X168043628Y-126605713D01*
X168043628Y-126605713D02*
X168007914Y-126498570D01*
X168007914Y-126498570D02*
X168007914Y-126427142D01*
X168007914Y-126427142D02*
X168043628Y-126319999D01*
X168043628Y-126319999D02*
X168079342Y-126284285D01*
X168757914Y-125605713D02*
X168757914Y-125962856D01*
X168757914Y-125962856D02*
X168007914Y-125962856D01*
X105034226Y-95713450D02*
X105177083Y-95761069D01*
X105177083Y-95761069D02*
X105415178Y-95761069D01*
X105415178Y-95761069D02*
X105510416Y-95713450D01*
X105510416Y-95713450D02*
X105558035Y-95665830D01*
X105558035Y-95665830D02*
X105605654Y-95570592D01*
X105605654Y-95570592D02*
X105605654Y-95475354D01*
X105605654Y-95475354D02*
X105558035Y-95380116D01*
X105558035Y-95380116D02*
X105510416Y-95332497D01*
X105510416Y-95332497D02*
X105415178Y-95284878D01*
X105415178Y-95284878D02*
X105224702Y-95237259D01*
X105224702Y-95237259D02*
X105129464Y-95189640D01*
X105129464Y-95189640D02*
X105081845Y-95142021D01*
X105081845Y-95142021D02*
X105034226Y-95046783D01*
X105034226Y-95046783D02*
X105034226Y-94951545D01*
X105034226Y-94951545D02*
X105081845Y-94856307D01*
X105081845Y-94856307D02*
X105129464Y-94808688D01*
X105129464Y-94808688D02*
X105224702Y-94761069D01*
X105224702Y-94761069D02*
X105462797Y-94761069D01*
X105462797Y-94761069D02*
X105605654Y-94808688D01*
X105938988Y-94761069D02*
X106177083Y-95761069D01*
X106177083Y-95761069D02*
X106367559Y-95046783D01*
X106367559Y-95046783D02*
X106558035Y-95761069D01*
X106558035Y-95761069D02*
X106796131Y-94761069D01*
X107700892Y-95761069D02*
X107129464Y-95761069D01*
X107415178Y-95761069D02*
X107415178Y-94761069D01*
X107415178Y-94761069D02*
X107319940Y-94903926D01*
X107319940Y-94903926D02*
X107224702Y-94999164D01*
X107224702Y-94999164D02*
X107129464Y-95046783D01*
X108605654Y-94761069D02*
X108129464Y-94761069D01*
X108129464Y-94761069D02*
X108081845Y-95237259D01*
X108081845Y-95237259D02*
X108129464Y-95189640D01*
X108129464Y-95189640D02*
X108224702Y-95142021D01*
X108224702Y-95142021D02*
X108462797Y-95142021D01*
X108462797Y-95142021D02*
X108558035Y-95189640D01*
X108558035Y-95189640D02*
X108605654Y-95237259D01*
X108605654Y-95237259D02*
X108653273Y-95332497D01*
X108653273Y-95332497D02*
X108653273Y-95570592D01*
X108653273Y-95570592D02*
X108605654Y-95665830D01*
X108605654Y-95665830D02*
X108558035Y-95713450D01*
X108558035Y-95713450D02*
X108462797Y-95761069D01*
X108462797Y-95761069D02*
X108224702Y-95761069D01*
X108224702Y-95761069D02*
X108129464Y-95713450D01*
X108129464Y-95713450D02*
X108081845Y-95665830D01*
X139160417Y-118739450D02*
X139303274Y-118787069D01*
X139303274Y-118787069D02*
X139541369Y-118787069D01*
X139541369Y-118787069D02*
X139636607Y-118739450D01*
X139636607Y-118739450D02*
X139684226Y-118691830D01*
X139684226Y-118691830D02*
X139731845Y-118596592D01*
X139731845Y-118596592D02*
X139731845Y-118501354D01*
X139731845Y-118501354D02*
X139684226Y-118406116D01*
X139684226Y-118406116D02*
X139636607Y-118358497D01*
X139636607Y-118358497D02*
X139541369Y-118310878D01*
X139541369Y-118310878D02*
X139350893Y-118263259D01*
X139350893Y-118263259D02*
X139255655Y-118215640D01*
X139255655Y-118215640D02*
X139208036Y-118168021D01*
X139208036Y-118168021D02*
X139160417Y-118072783D01*
X139160417Y-118072783D02*
X139160417Y-117977545D01*
X139160417Y-117977545D02*
X139208036Y-117882307D01*
X139208036Y-117882307D02*
X139255655Y-117834688D01*
X139255655Y-117834688D02*
X139350893Y-117787069D01*
X139350893Y-117787069D02*
X139588988Y-117787069D01*
X139588988Y-117787069D02*
X139731845Y-117834688D01*
X140065179Y-117787069D02*
X140303274Y-118787069D01*
X140303274Y-118787069D02*
X140493750Y-118072783D01*
X140493750Y-118072783D02*
X140684226Y-118787069D01*
X140684226Y-118787069D02*
X140922322Y-117787069D01*
X141208036Y-117787069D02*
X141874702Y-117787069D01*
X141874702Y-117787069D02*
X141446131Y-118787069D01*
X101060417Y-99689450D02*
X101203274Y-99737069D01*
X101203274Y-99737069D02*
X101441369Y-99737069D01*
X101441369Y-99737069D02*
X101536607Y-99689450D01*
X101536607Y-99689450D02*
X101584226Y-99641830D01*
X101584226Y-99641830D02*
X101631845Y-99546592D01*
X101631845Y-99546592D02*
X101631845Y-99451354D01*
X101631845Y-99451354D02*
X101584226Y-99356116D01*
X101584226Y-99356116D02*
X101536607Y-99308497D01*
X101536607Y-99308497D02*
X101441369Y-99260878D01*
X101441369Y-99260878D02*
X101250893Y-99213259D01*
X101250893Y-99213259D02*
X101155655Y-99165640D01*
X101155655Y-99165640D02*
X101108036Y-99118021D01*
X101108036Y-99118021D02*
X101060417Y-99022783D01*
X101060417Y-99022783D02*
X101060417Y-98927545D01*
X101060417Y-98927545D02*
X101108036Y-98832307D01*
X101108036Y-98832307D02*
X101155655Y-98784688D01*
X101155655Y-98784688D02*
X101250893Y-98737069D01*
X101250893Y-98737069D02*
X101488988Y-98737069D01*
X101488988Y-98737069D02*
X101631845Y-98784688D01*
X101965179Y-98737069D02*
X102203274Y-99737069D01*
X102203274Y-99737069D02*
X102393750Y-99022783D01*
X102393750Y-99022783D02*
X102584226Y-99737069D01*
X102584226Y-99737069D02*
X102822322Y-98737069D01*
X103727083Y-99737069D02*
X103155655Y-99737069D01*
X103441369Y-99737069D02*
X103441369Y-98737069D01*
X103441369Y-98737069D02*
X103346131Y-98879926D01*
X103346131Y-98879926D02*
X103250893Y-98975164D01*
X103250893Y-98975164D02*
X103155655Y-99022783D01*
X158210417Y-118739450D02*
X158353274Y-118787069D01*
X158353274Y-118787069D02*
X158591369Y-118787069D01*
X158591369Y-118787069D02*
X158686607Y-118739450D01*
X158686607Y-118739450D02*
X158734226Y-118691830D01*
X158734226Y-118691830D02*
X158781845Y-118596592D01*
X158781845Y-118596592D02*
X158781845Y-118501354D01*
X158781845Y-118501354D02*
X158734226Y-118406116D01*
X158734226Y-118406116D02*
X158686607Y-118358497D01*
X158686607Y-118358497D02*
X158591369Y-118310878D01*
X158591369Y-118310878D02*
X158400893Y-118263259D01*
X158400893Y-118263259D02*
X158305655Y-118215640D01*
X158305655Y-118215640D02*
X158258036Y-118168021D01*
X158258036Y-118168021D02*
X158210417Y-118072783D01*
X158210417Y-118072783D02*
X158210417Y-117977545D01*
X158210417Y-117977545D02*
X158258036Y-117882307D01*
X158258036Y-117882307D02*
X158305655Y-117834688D01*
X158305655Y-117834688D02*
X158400893Y-117787069D01*
X158400893Y-117787069D02*
X158638988Y-117787069D01*
X158638988Y-117787069D02*
X158781845Y-117834688D01*
X159115179Y-117787069D02*
X159353274Y-118787069D01*
X159353274Y-118787069D02*
X159543750Y-118072783D01*
X159543750Y-118072783D02*
X159734226Y-118787069D01*
X159734226Y-118787069D02*
X159972322Y-117787069D01*
X160496131Y-118215640D02*
X160400893Y-118168021D01*
X160400893Y-118168021D02*
X160353274Y-118120402D01*
X160353274Y-118120402D02*
X160305655Y-118025164D01*
X160305655Y-118025164D02*
X160305655Y-117977545D01*
X160305655Y-117977545D02*
X160353274Y-117882307D01*
X160353274Y-117882307D02*
X160400893Y-117834688D01*
X160400893Y-117834688D02*
X160496131Y-117787069D01*
X160496131Y-117787069D02*
X160686607Y-117787069D01*
X160686607Y-117787069D02*
X160781845Y-117834688D01*
X160781845Y-117834688D02*
X160829464Y-117882307D01*
X160829464Y-117882307D02*
X160877083Y-117977545D01*
X160877083Y-117977545D02*
X160877083Y-118025164D01*
X160877083Y-118025164D02*
X160829464Y-118120402D01*
X160829464Y-118120402D02*
X160781845Y-118168021D01*
X160781845Y-118168021D02*
X160686607Y-118215640D01*
X160686607Y-118215640D02*
X160496131Y-118215640D01*
X160496131Y-118215640D02*
X160400893Y-118263259D01*
X160400893Y-118263259D02*
X160353274Y-118310878D01*
X160353274Y-118310878D02*
X160305655Y-118406116D01*
X160305655Y-118406116D02*
X160305655Y-118596592D01*
X160305655Y-118596592D02*
X160353274Y-118691830D01*
X160353274Y-118691830D02*
X160400893Y-118739450D01*
X160400893Y-118739450D02*
X160496131Y-118787069D01*
X160496131Y-118787069D02*
X160686607Y-118787069D01*
X160686607Y-118787069D02*
X160781845Y-118739450D01*
X160781845Y-118739450D02*
X160829464Y-118691830D01*
X160829464Y-118691830D02*
X160877083Y-118596592D01*
X160877083Y-118596592D02*
X160877083Y-118406116D01*
X160877083Y-118406116D02*
X160829464Y-118310878D01*
X160829464Y-118310878D02*
X160781845Y-118263259D01*
X160781845Y-118263259D02*
X160686607Y-118215640D01*
X120110417Y-118739450D02*
X120253274Y-118787069D01*
X120253274Y-118787069D02*
X120491369Y-118787069D01*
X120491369Y-118787069D02*
X120586607Y-118739450D01*
X120586607Y-118739450D02*
X120634226Y-118691830D01*
X120634226Y-118691830D02*
X120681845Y-118596592D01*
X120681845Y-118596592D02*
X120681845Y-118501354D01*
X120681845Y-118501354D02*
X120634226Y-118406116D01*
X120634226Y-118406116D02*
X120586607Y-118358497D01*
X120586607Y-118358497D02*
X120491369Y-118310878D01*
X120491369Y-118310878D02*
X120300893Y-118263259D01*
X120300893Y-118263259D02*
X120205655Y-118215640D01*
X120205655Y-118215640D02*
X120158036Y-118168021D01*
X120158036Y-118168021D02*
X120110417Y-118072783D01*
X120110417Y-118072783D02*
X120110417Y-117977545D01*
X120110417Y-117977545D02*
X120158036Y-117882307D01*
X120158036Y-117882307D02*
X120205655Y-117834688D01*
X120205655Y-117834688D02*
X120300893Y-117787069D01*
X120300893Y-117787069D02*
X120538988Y-117787069D01*
X120538988Y-117787069D02*
X120681845Y-117834688D01*
X121015179Y-117787069D02*
X121253274Y-118787069D01*
X121253274Y-118787069D02*
X121443750Y-118072783D01*
X121443750Y-118072783D02*
X121634226Y-118787069D01*
X121634226Y-118787069D02*
X121872322Y-117787069D01*
X122681845Y-117787069D02*
X122491369Y-117787069D01*
X122491369Y-117787069D02*
X122396131Y-117834688D01*
X122396131Y-117834688D02*
X122348512Y-117882307D01*
X122348512Y-117882307D02*
X122253274Y-118025164D01*
X122253274Y-118025164D02*
X122205655Y-118215640D01*
X122205655Y-118215640D02*
X122205655Y-118596592D01*
X122205655Y-118596592D02*
X122253274Y-118691830D01*
X122253274Y-118691830D02*
X122300893Y-118739450D01*
X122300893Y-118739450D02*
X122396131Y-118787069D01*
X122396131Y-118787069D02*
X122586607Y-118787069D01*
X122586607Y-118787069D02*
X122681845Y-118739450D01*
X122681845Y-118739450D02*
X122729464Y-118691830D01*
X122729464Y-118691830D02*
X122777083Y-118596592D01*
X122777083Y-118596592D02*
X122777083Y-118358497D01*
X122777083Y-118358497D02*
X122729464Y-118263259D01*
X122729464Y-118263259D02*
X122681845Y-118215640D01*
X122681845Y-118215640D02*
X122586607Y-118168021D01*
X122586607Y-118168021D02*
X122396131Y-118168021D01*
X122396131Y-118168021D02*
X122300893Y-118215640D01*
X122300893Y-118215640D02*
X122253274Y-118263259D01*
X122253274Y-118263259D02*
X122205655Y-118358497D01*
X101060417Y-118739450D02*
X101203274Y-118787069D01*
X101203274Y-118787069D02*
X101441369Y-118787069D01*
X101441369Y-118787069D02*
X101536607Y-118739450D01*
X101536607Y-118739450D02*
X101584226Y-118691830D01*
X101584226Y-118691830D02*
X101631845Y-118596592D01*
X101631845Y-118596592D02*
X101631845Y-118501354D01*
X101631845Y-118501354D02*
X101584226Y-118406116D01*
X101584226Y-118406116D02*
X101536607Y-118358497D01*
X101536607Y-118358497D02*
X101441369Y-118310878D01*
X101441369Y-118310878D02*
X101250893Y-118263259D01*
X101250893Y-118263259D02*
X101155655Y-118215640D01*
X101155655Y-118215640D02*
X101108036Y-118168021D01*
X101108036Y-118168021D02*
X101060417Y-118072783D01*
X101060417Y-118072783D02*
X101060417Y-117977545D01*
X101060417Y-117977545D02*
X101108036Y-117882307D01*
X101108036Y-117882307D02*
X101155655Y-117834688D01*
X101155655Y-117834688D02*
X101250893Y-117787069D01*
X101250893Y-117787069D02*
X101488988Y-117787069D01*
X101488988Y-117787069D02*
X101631845Y-117834688D01*
X101965179Y-117787069D02*
X102203274Y-118787069D01*
X102203274Y-118787069D02*
X102393750Y-118072783D01*
X102393750Y-118072783D02*
X102584226Y-118787069D01*
X102584226Y-118787069D02*
X102822322Y-117787069D01*
X103679464Y-117787069D02*
X103203274Y-117787069D01*
X103203274Y-117787069D02*
X103155655Y-118263259D01*
X103155655Y-118263259D02*
X103203274Y-118215640D01*
X103203274Y-118215640D02*
X103298512Y-118168021D01*
X103298512Y-118168021D02*
X103536607Y-118168021D01*
X103536607Y-118168021D02*
X103631845Y-118215640D01*
X103631845Y-118215640D02*
X103679464Y-118263259D01*
X103679464Y-118263259D02*
X103727083Y-118358497D01*
X103727083Y-118358497D02*
X103727083Y-118596592D01*
X103727083Y-118596592D02*
X103679464Y-118691830D01*
X103679464Y-118691830D02*
X103631845Y-118739450D01*
X103631845Y-118739450D02*
X103536607Y-118787069D01*
X103536607Y-118787069D02*
X103298512Y-118787069D01*
X103298512Y-118787069D02*
X103203274Y-118739450D01*
X103203274Y-118739450D02*
X103155655Y-118691830D01*
X158210417Y-99689450D02*
X158353274Y-99737069D01*
X158353274Y-99737069D02*
X158591369Y-99737069D01*
X158591369Y-99737069D02*
X158686607Y-99689450D01*
X158686607Y-99689450D02*
X158734226Y-99641830D01*
X158734226Y-99641830D02*
X158781845Y-99546592D01*
X158781845Y-99546592D02*
X158781845Y-99451354D01*
X158781845Y-99451354D02*
X158734226Y-99356116D01*
X158734226Y-99356116D02*
X158686607Y-99308497D01*
X158686607Y-99308497D02*
X158591369Y-99260878D01*
X158591369Y-99260878D02*
X158400893Y-99213259D01*
X158400893Y-99213259D02*
X158305655Y-99165640D01*
X158305655Y-99165640D02*
X158258036Y-99118021D01*
X158258036Y-99118021D02*
X158210417Y-99022783D01*
X158210417Y-99022783D02*
X158210417Y-98927545D01*
X158210417Y-98927545D02*
X158258036Y-98832307D01*
X158258036Y-98832307D02*
X158305655Y-98784688D01*
X158305655Y-98784688D02*
X158400893Y-98737069D01*
X158400893Y-98737069D02*
X158638988Y-98737069D01*
X158638988Y-98737069D02*
X158781845Y-98784688D01*
X159115179Y-98737069D02*
X159353274Y-99737069D01*
X159353274Y-99737069D02*
X159543750Y-99022783D01*
X159543750Y-99022783D02*
X159734226Y-99737069D01*
X159734226Y-99737069D02*
X159972322Y-98737069D01*
X160781845Y-99070402D02*
X160781845Y-99737069D01*
X160543750Y-98689450D02*
X160305655Y-99403735D01*
X160305655Y-99403735D02*
X160924702Y-99403735D01*
X139160417Y-99689450D02*
X139303274Y-99737069D01*
X139303274Y-99737069D02*
X139541369Y-99737069D01*
X139541369Y-99737069D02*
X139636607Y-99689450D01*
X139636607Y-99689450D02*
X139684226Y-99641830D01*
X139684226Y-99641830D02*
X139731845Y-99546592D01*
X139731845Y-99546592D02*
X139731845Y-99451354D01*
X139731845Y-99451354D02*
X139684226Y-99356116D01*
X139684226Y-99356116D02*
X139636607Y-99308497D01*
X139636607Y-99308497D02*
X139541369Y-99260878D01*
X139541369Y-99260878D02*
X139350893Y-99213259D01*
X139350893Y-99213259D02*
X139255655Y-99165640D01*
X139255655Y-99165640D02*
X139208036Y-99118021D01*
X139208036Y-99118021D02*
X139160417Y-99022783D01*
X139160417Y-99022783D02*
X139160417Y-98927545D01*
X139160417Y-98927545D02*
X139208036Y-98832307D01*
X139208036Y-98832307D02*
X139255655Y-98784688D01*
X139255655Y-98784688D02*
X139350893Y-98737069D01*
X139350893Y-98737069D02*
X139588988Y-98737069D01*
X139588988Y-98737069D02*
X139731845Y-98784688D01*
X140065179Y-98737069D02*
X140303274Y-99737069D01*
X140303274Y-99737069D02*
X140493750Y-99022783D01*
X140493750Y-99022783D02*
X140684226Y-99737069D01*
X140684226Y-99737069D02*
X140922322Y-98737069D01*
X141208036Y-98737069D02*
X141827083Y-98737069D01*
X141827083Y-98737069D02*
X141493750Y-99118021D01*
X141493750Y-99118021D02*
X141636607Y-99118021D01*
X141636607Y-99118021D02*
X141731845Y-99165640D01*
X141731845Y-99165640D02*
X141779464Y-99213259D01*
X141779464Y-99213259D02*
X141827083Y-99308497D01*
X141827083Y-99308497D02*
X141827083Y-99546592D01*
X141827083Y-99546592D02*
X141779464Y-99641830D01*
X141779464Y-99641830D02*
X141731845Y-99689450D01*
X141731845Y-99689450D02*
X141636607Y-99737069D01*
X141636607Y-99737069D02*
X141350893Y-99737069D01*
X141350893Y-99737069D02*
X141255655Y-99689450D01*
X141255655Y-99689450D02*
X141208036Y-99641830D01*
X120110417Y-99689450D02*
X120253274Y-99737069D01*
X120253274Y-99737069D02*
X120491369Y-99737069D01*
X120491369Y-99737069D02*
X120586607Y-99689450D01*
X120586607Y-99689450D02*
X120634226Y-99641830D01*
X120634226Y-99641830D02*
X120681845Y-99546592D01*
X120681845Y-99546592D02*
X120681845Y-99451354D01*
X120681845Y-99451354D02*
X120634226Y-99356116D01*
X120634226Y-99356116D02*
X120586607Y-99308497D01*
X120586607Y-99308497D02*
X120491369Y-99260878D01*
X120491369Y-99260878D02*
X120300893Y-99213259D01*
X120300893Y-99213259D02*
X120205655Y-99165640D01*
X120205655Y-99165640D02*
X120158036Y-99118021D01*
X120158036Y-99118021D02*
X120110417Y-99022783D01*
X120110417Y-99022783D02*
X120110417Y-98927545D01*
X120110417Y-98927545D02*
X120158036Y-98832307D01*
X120158036Y-98832307D02*
X120205655Y-98784688D01*
X120205655Y-98784688D02*
X120300893Y-98737069D01*
X120300893Y-98737069D02*
X120538988Y-98737069D01*
X120538988Y-98737069D02*
X120681845Y-98784688D01*
X121015179Y-98737069D02*
X121253274Y-99737069D01*
X121253274Y-99737069D02*
X121443750Y-99022783D01*
X121443750Y-99022783D02*
X121634226Y-99737069D01*
X121634226Y-99737069D02*
X121872322Y-98737069D01*
X122205655Y-98832307D02*
X122253274Y-98784688D01*
X122253274Y-98784688D02*
X122348512Y-98737069D01*
X122348512Y-98737069D02*
X122586607Y-98737069D01*
X122586607Y-98737069D02*
X122681845Y-98784688D01*
X122681845Y-98784688D02*
X122729464Y-98832307D01*
X122729464Y-98832307D02*
X122777083Y-98927545D01*
X122777083Y-98927545D02*
X122777083Y-99022783D01*
X122777083Y-99022783D02*
X122729464Y-99165640D01*
X122729464Y-99165640D02*
X122158036Y-99737069D01*
X122158036Y-99737069D02*
X122777083Y-99737069D01*
D11*
G04 #@! TO.C,J1*
X134633750Y-82221250D02*
X134633750Y-94221250D01*
X164133750Y-82221250D02*
X164133750Y-94221250D01*
X169133750Y-82221250D02*
X131133750Y-82221250D01*
X131133750Y-82221250D02*
X131133750Y-94221250D01*
X131133750Y-94221250D02*
X169133750Y-94221250D01*
X169133750Y-94221250D02*
X169133750Y-82221250D01*
D12*
G04 #@! TO.C,SW15*
X102643750Y-88106250D02*
X101643750Y-88106250D01*
X102143750Y-88606250D02*
X102143750Y-87606250D01*
X96043750Y-84606250D02*
X96043750Y-82206250D01*
X96043750Y-89406250D02*
X96043750Y-86806250D01*
X96043750Y-94006250D02*
X96043750Y-91606250D01*
X109343750Y-92206250D02*
X109643750Y-91906250D01*
X109943750Y-92206250D02*
X109343750Y-92206250D01*
X109643750Y-91906250D02*
X109943750Y-92206250D01*
X108243750Y-94006250D02*
X108243750Y-82206250D01*
X104143750Y-94006250D02*
X108243750Y-94006250D01*
X104143750Y-82206250D02*
X108243750Y-82206250D01*
X96043750Y-82206250D02*
X100143750Y-82206250D01*
X100143750Y-94006250D02*
X96043750Y-94006250D01*
X105143750Y-88106250D02*
G75*
G02*
X99143750Y-88106250I-3000000J0D01*
G01*
X99143750Y-88106250D02*
G75*
G02*
X105143750Y-88106250I3000000J0D01*
G01*
G04 #@! TO.C,SW7*
X147478750Y-133191250D02*
X133508750Y-133191250D01*
X147478750Y-119221250D02*
X147478750Y-133191250D01*
X133508750Y-133191250D02*
X133508750Y-119221250D01*
X133508750Y-119221250D02*
X147478750Y-119221250D01*
G04 #@! TO.C,SW1*
X109378750Y-114141250D02*
X95408750Y-114141250D01*
X109378750Y-100171250D02*
X109378750Y-114141250D01*
X95408750Y-114141250D02*
X95408750Y-100171250D01*
X95408750Y-100171250D02*
X109378750Y-100171250D01*
G04 #@! TO.C,SW8*
X152558750Y-119221250D02*
X166528750Y-119221250D01*
X152558750Y-133191250D02*
X152558750Y-119221250D01*
X166528750Y-119221250D02*
X166528750Y-133191250D01*
X166528750Y-133191250D02*
X152558750Y-133191250D01*
G04 #@! TO.C,SW6*
X114458750Y-119221250D02*
X128428750Y-119221250D01*
X114458750Y-133191250D02*
X114458750Y-119221250D01*
X128428750Y-119221250D02*
X128428750Y-133191250D01*
X128428750Y-133191250D02*
X114458750Y-133191250D01*
G04 #@! TO.C,SW5*
X95408750Y-119221250D02*
X109378750Y-119221250D01*
X95408750Y-133191250D02*
X95408750Y-119221250D01*
X109378750Y-119221250D02*
X109378750Y-133191250D01*
X109378750Y-133191250D02*
X95408750Y-133191250D01*
G04 #@! TO.C,SW4*
X152558750Y-100171250D02*
X166528750Y-100171250D01*
X152558750Y-114141250D02*
X152558750Y-100171250D01*
X166528750Y-100171250D02*
X166528750Y-114141250D01*
X166528750Y-114141250D02*
X152558750Y-114141250D01*
G04 #@! TO.C,SW3*
X133508750Y-100171250D02*
X147478750Y-100171250D01*
X133508750Y-114141250D02*
X133508750Y-100171250D01*
X147478750Y-100171250D02*
X147478750Y-114141250D01*
X147478750Y-114141250D02*
X133508750Y-114141250D01*
G04 #@! TO.C,SW2*
X114458750Y-100171250D02*
X128428750Y-100171250D01*
X114458750Y-114141250D02*
X114458750Y-100171250D01*
X128428750Y-100171250D02*
X128428750Y-114141250D01*
X128428750Y-114141250D02*
X114458750Y-114141250D01*
G04 #@! TD*
%LPC*%
D13*
G04 #@! TO.C,U1*
X129063750Y-80486250D03*
X129063750Y-83026250D03*
X129063750Y-85566250D03*
X129063750Y-88106250D03*
X129063750Y-90646250D03*
X129063750Y-93186250D03*
X129063750Y-95726250D03*
X113823750Y-95726250D03*
X113823750Y-93186250D03*
X113823750Y-90646250D03*
X113823750Y-88106250D03*
X113823750Y-85566250D03*
X113823750Y-83026250D03*
X113823750Y-80486250D03*
G04 #@! TD*
D14*
G04 #@! TO.C,J1*
X167633750Y-84411250D03*
D15*
X167633750Y-86951250D03*
X167633750Y-89491250D03*
X167633750Y-92031250D03*
G04 #@! TD*
D16*
G04 #@! TO.C,SW15*
X95143750Y-85606250D03*
X95143750Y-90606250D03*
D17*
X102143750Y-82506250D03*
X102143750Y-93706250D03*
D16*
X109643750Y-85606250D03*
X109643750Y-88106250D03*
D18*
X109643750Y-90606250D03*
G04 #@! TD*
D19*
G04 #@! TO.C,SW7*
X136683750Y-123666250D03*
X143033750Y-121126250D03*
D20*
X145573750Y-126206250D03*
D21*
X140493750Y-126206250D03*
D20*
X135413750Y-126206250D03*
G04 #@! TD*
D22*
G04 #@! TO.C,D5*
X92868750Y-123348750D03*
D23*
X92868750Y-130968750D03*
G04 #@! TD*
D22*
G04 #@! TO.C,D6*
X111918750Y-123348750D03*
D23*
X111918750Y-130968750D03*
G04 #@! TD*
D22*
G04 #@! TO.C,D4*
X150018750Y-104298750D03*
D23*
X150018750Y-111918750D03*
G04 #@! TD*
D22*
G04 #@! TO.C,D8*
X150018750Y-123348750D03*
D23*
X150018750Y-130968750D03*
G04 #@! TD*
D22*
G04 #@! TO.C,D7*
X130968750Y-123348750D03*
D23*
X130968750Y-130968750D03*
G04 #@! TD*
D19*
G04 #@! TO.C,SW1*
X98583750Y-104616250D03*
X104933750Y-102076250D03*
D20*
X107473750Y-107156250D03*
D21*
X102393750Y-107156250D03*
D20*
X97313750Y-107156250D03*
G04 #@! TD*
G04 #@! TO.C,SW8*
X154463750Y-126206250D03*
D21*
X159543750Y-126206250D03*
D20*
X164623750Y-126206250D03*
D19*
X162083750Y-121126250D03*
X155733750Y-123666250D03*
G04 #@! TD*
D20*
G04 #@! TO.C,SW6*
X116363750Y-126206250D03*
D21*
X121443750Y-126206250D03*
D20*
X126523750Y-126206250D03*
D19*
X123983750Y-121126250D03*
X117633750Y-123666250D03*
G04 #@! TD*
D20*
G04 #@! TO.C,SW5*
X97313750Y-126206250D03*
D21*
X102393750Y-126206250D03*
D20*
X107473750Y-126206250D03*
D19*
X104933750Y-121126250D03*
X98583750Y-123666250D03*
G04 #@! TD*
D20*
G04 #@! TO.C,SW4*
X154463750Y-107156250D03*
D21*
X159543750Y-107156250D03*
D20*
X164623750Y-107156250D03*
D19*
X162083750Y-102076250D03*
X155733750Y-104616250D03*
G04 #@! TD*
D20*
G04 #@! TO.C,SW3*
X135413750Y-107156250D03*
D21*
X140493750Y-107156250D03*
D20*
X145573750Y-107156250D03*
D19*
X143033750Y-102076250D03*
X136683750Y-104616250D03*
G04 #@! TD*
D20*
G04 #@! TO.C,SW2*
X116363750Y-107156250D03*
D21*
X121443750Y-107156250D03*
D20*
X126523750Y-107156250D03*
D19*
X123983750Y-102076250D03*
X117633750Y-104616250D03*
G04 #@! TD*
D23*
G04 #@! TO.C,D3*
X130968750Y-111918750D03*
D22*
X130968750Y-104298750D03*
G04 #@! TD*
D23*
G04 #@! TO.C,D2*
X111918750Y-111918750D03*
D22*
X111918750Y-104298750D03*
G04 #@! TD*
D23*
G04 #@! TO.C,D1*
X92868750Y-111918750D03*
D22*
X92868750Y-104298750D03*
G04 #@! TD*
%LPD*%
M02*
