M48
; DRILL file {KiCad 9.0.2} date 2025-06-09T08:41:51+0530
; FORMAT={-:-/ absolute / metric / decimal}
; #@! TF.CreationDate,2025-06-09T08:41:51+05:30
; #@! TF.GenerationSoftware,Kicad,Pcbnew,9.0.2
; #@! TF.FileFunction,Plated,1,2,PTH
FMAT,2
METRIC
; #@! TA.AperFunction,Plated,PTH,ViaDrill
T1C0.300
; #@! TA.AperFunction,Plated,PTH,ComponentDrill
T2C0.800
; #@! TA.AperFunction,Plated,PTH,ComponentDrill
T3C0.889
; #@! TA.AperFunction,Plated,PTH,ComponentDrill
T4C1.000
; #@! TA.AperFunction,Plated,PTH,ComponentDrill
T5C1.500
%
G90
G05
T1
X126.206Y-83.344
X131.615Y-85.725
X152.4Y-88.106
X152.4Y-95.25
X157.162Y-92.869
T2
X92.869Y-104.299
X92.869Y-111.919
X92.869Y-123.349
X92.869Y-130.969
X111.919Y-104.299
X111.919Y-111.919
X111.919Y-123.349
X111.919Y-130.969
X130.969Y-104.299
X130.969Y-111.919
X130.969Y-123.349
X130.969Y-130.969
X150.019Y-104.299
X150.019Y-111.919
X150.019Y-123.349
X150.019Y-130.969
T3
X113.824Y-80.486
X113.824Y-83.026
X113.824Y-85.566
X113.824Y-88.106
X113.824Y-90.646
X113.824Y-93.186
X113.824Y-95.726
X129.064Y-80.486
X129.064Y-83.026
X129.064Y-85.566
X129.064Y-88.106
X129.064Y-90.646
X129.064Y-93.186
X129.064Y-95.726
T4
X95.144Y-85.606
X95.144Y-90.606
X109.644Y-85.606
X109.644Y-88.106
X109.644Y-90.606
X167.634Y-84.411
X167.634Y-86.951
X167.634Y-89.491
X167.634Y-92.031
T5
X98.584Y-104.616
X98.584Y-123.666
X104.934Y-102.076
X104.934Y-121.126
X117.634Y-104.616
X117.634Y-123.666
X123.984Y-102.076
X123.984Y-121.126
X136.684Y-104.616
X136.684Y-123.666
X143.034Y-102.076
X143.034Y-121.126
X155.734Y-104.616
X155.734Y-123.666
X162.084Y-102.076
X162.084Y-121.126
T5
G00X102.794Y-82.506
M15
G01X101.494Y-82.506
M16
G05
G00X102.794Y-93.706
M15
G01X101.494Y-93.706
M16
G05
M30
